<mxfile host="Electron" modified="2024-04-06T07:59:35.054Z" agent="Mozilla/5.0 (X11; Linux x86_64) AppleWebKit/537.36 (KHTML, like Gecko) draw.io/21.6.1 Chrome/112.0.5615.204 Electron/24.6.1 Safari/537.36" etag="CxkZZzAhXMKKz2Iglaqp" version="21.6.1" type="device">
  <diagram name="Page-1" id="zB9UREpVWNrtzUzA8oSV">
    <mxGraphModel dx="3457" dy="1464" grid="1" gridSize="10" guides="1" tooltips="1" connect="1" arrows="1" fold="1" page="1" pageScale="1" pageWidth="850" pageHeight="1100" math="0" shadow="0">
      <root>
        <mxCell id="0" />
        <mxCell id="1" parent="0" />
        <mxCell id="1mAbDg6GUyUuiM4qipqp-305" value="" style="rounded=1;whiteSpace=wrap;html=1;fillColor=#76608a;strokeWidth=0.2;strokeColor=#432D57;fontColor=#ffffff;opacity=10;" parent="1" vertex="1">
          <mxGeometry x="260" y="446" width="190" height="60" as="geometry" />
        </mxCell>
        <mxCell id="-NK8212SFT77abo9Widv-19" value="" style="rounded=1;whiteSpace=wrap;html=1;fillColor=#76608a;strokeWidth=0.2;strokeColor=#432D57;fontColor=#ffffff;opacity=10;" parent="1" vertex="1">
          <mxGeometry x="126" y="446" width="214" height="60" as="geometry" />
        </mxCell>
        <mxCell id="1mAbDg6GUyUuiM4qipqp-304" value="" style="rounded=1;whiteSpace=wrap;html=1;fillColor=#76608a;strokeWidth=0.2;strokeColor=#432D57;fontColor=#ffffff;opacity=10;" parent="1" vertex="1">
          <mxGeometry x="-16" y="280" width="436" height="73" as="geometry" />
        </mxCell>
        <mxCell id="1mAbDg6GUyUuiM4qipqp-316" value="&lt;b style=&quot;border-color: var(--border-color); font-size: 12px;&quot;&gt;&lt;b style=&quot;border-color: var(--border-color); font-size: 12px;&quot;&gt;Hits&lt;br style=&quot;border-color: var(--border-color); font-size: 12px;&quot;&gt;&lt;/b&gt;Decoder&lt;br style=&quot;font-size: 12px;&quot;&gt;&lt;/b&gt;" style="rounded=1;whiteSpace=wrap;html=1;fillColor=#a0522d;strokeColor=#6D1F00;fontColor=#ffffff;fontSize=12;" parent="1" vertex="1">
          <mxGeometry x="458" y="341" width="82" height="39" as="geometry" />
        </mxCell>
        <mxCell id="-NK8212SFT77abo9Widv-47" style="edgeStyle=orthogonalEdgeStyle;rounded=0;orthogonalLoop=1;jettySize=auto;html=1;exitX=1;exitY=0.5;exitDx=0;exitDy=0;entryX=0;entryY=0.5;entryDx=0;entryDy=0;endArrow=none;strokeColor=#999999;endFill=0;" parent="1" source="1mAbDg6GUyUuiM4qipqp-179" target="1mAbDg6GUyUuiM4qipqp-196" edge="1">
          <mxGeometry relative="1" as="geometry" />
        </mxCell>
        <mxCell id="1mAbDg6GUyUuiM4qipqp-179" value="&lt;b style=&quot;font-size: 12px;&quot;&gt;Variational&amp;nbsp;&lt;br style=&quot;font-size: 12px;&quot;&gt;Encoder&lt;/b&gt;" style="rounded=1;whiteSpace=wrap;html=1;fillColor=#76608a;fontColor=#ffffff;strokeColor=#432D57;fontSize=12;" parent="1" vertex="1">
          <mxGeometry x="247.5" y="379" width="91" height="51" as="geometry" />
        </mxCell>
        <mxCell id="1mAbDg6GUyUuiM4qipqp-180" value="" style="group" parent="1" vertex="1" connectable="0">
          <mxGeometry x="-20" y="389" width="106" height="53" as="geometry" />
        </mxCell>
        <mxCell id="1mAbDg6GUyUuiM4qipqp-181" value="" style="group" parent="1mAbDg6GUyUuiM4qipqp-180" vertex="1" connectable="0">
          <mxGeometry x="7.571428571428571" width="90.85714285714286" height="30" as="geometry" />
        </mxCell>
        <mxCell id="1mAbDg6GUyUuiM4qipqp-182" value="" style="rounded=0;whiteSpace=wrap;html=1;fillColor=#eeeeee;strokeColor=none;" parent="1mAbDg6GUyUuiM4qipqp-181" vertex="1">
          <mxGeometry width="90.85714285714286" height="30" as="geometry" />
        </mxCell>
        <mxCell id="1mAbDg6GUyUuiM4qipqp-183" value="" style="group" parent="1mAbDg6GUyUuiM4qipqp-181" vertex="1" connectable="0">
          <mxGeometry x="3.785714285714286" y="4" width="83.28571428571429" height="24" as="geometry" />
        </mxCell>
        <mxCell id="1mAbDg6GUyUuiM4qipqp-184" value="" style="endArrow=oval;html=1;rounded=0;endFill=1;strokeWidth=1;dashed=1;" parent="1mAbDg6GUyUuiM4qipqp-183" edge="1">
          <mxGeometry width="50" height="50" relative="1" as="geometry">
            <mxPoint x="0.043453416149083074" y="24" as="sourcePoint" />
            <mxPoint as="targetPoint" />
          </mxGeometry>
        </mxCell>
        <mxCell id="1mAbDg6GUyUuiM4qipqp-185" value="" style="endArrow=oval;html=1;rounded=0;endFill=1;strokeWidth=1;dashed=1;" parent="1mAbDg6GUyUuiM4qipqp-183" edge="1">
          <mxGeometry width="50" height="50" relative="1" as="geometry">
            <mxPoint x="7.28568944099378" y="24" as="sourcePoint" />
            <mxPoint x="7.24223602484474" y="12" as="targetPoint" />
          </mxGeometry>
        </mxCell>
        <mxCell id="1mAbDg6GUyUuiM4qipqp-186" value="" style="endArrow=oval;html=1;rounded=0;endFill=1;startSize=1;strokeWidth=1;dashed=1;" parent="1mAbDg6GUyUuiM4qipqp-183" edge="1">
          <mxGeometry width="50" height="50" relative="1" as="geometry">
            <mxPoint x="21.77016149068322" y="24" as="sourcePoint" />
            <mxPoint x="21.726708074534177" as="targetPoint" />
          </mxGeometry>
        </mxCell>
        <mxCell id="1mAbDg6GUyUuiM4qipqp-187" value="" style="endArrow=oval;html=1;rounded=0;endFill=1;" parent="1mAbDg6GUyUuiM4qipqp-183" edge="1">
          <mxGeometry width="50" height="50" relative="1" as="geometry">
            <mxPoint x="21.77016149068322" y="24" as="sourcePoint" />
            <mxPoint x="21.770161490683176" y="24" as="targetPoint" />
          </mxGeometry>
        </mxCell>
        <mxCell id="1mAbDg6GUyUuiM4qipqp-188" value="" style="endArrow=oval;html=1;rounded=0;endFill=1;startSize=1;strokeWidth=1;dashed=1;" parent="1mAbDg6GUyUuiM4qipqp-183" edge="1">
          <mxGeometry width="50" height="50" relative="1" as="geometry">
            <mxPoint x="21.77016149068322" y="24" as="sourcePoint" />
            <mxPoint x="21.726708074534177" y="24" as="targetPoint" />
          </mxGeometry>
        </mxCell>
        <mxCell id="1mAbDg6GUyUuiM4qipqp-189" value="" style="endArrow=oval;html=1;rounded=0;endFill=1;startSize=1;strokeWidth=1;dashed=1;" parent="1mAbDg6GUyUuiM4qipqp-183" edge="1">
          <mxGeometry width="50" height="50" relative="1" as="geometry">
            <mxPoint x="43.460658385093154" y="24" as="sourcePoint" />
            <mxPoint x="43.45341614906831" y="12" as="targetPoint" />
          </mxGeometry>
        </mxCell>
        <mxCell id="1mAbDg6GUyUuiM4qipqp-190" value="" style="endArrow=oval;html=1;rounded=0;endFill=1;startSize=1;strokeWidth=1;dashed=1;" parent="1mAbDg6GUyUuiM4qipqp-183" edge="1">
          <mxGeometry width="50" height="50" relative="1" as="geometry">
            <mxPoint x="50.695652173913054" y="24" as="sourcePoint" />
            <mxPoint x="50.695652173913054" y="18" as="targetPoint" />
            <Array as="points">
              <mxPoint x="50.695652173913054" y="18" />
            </Array>
          </mxGeometry>
        </mxCell>
        <mxCell id="1mAbDg6GUyUuiM4qipqp-191" value="" style="endArrow=oval;html=1;rounded=0;dashed=1;endFill=1;" parent="1mAbDg6GUyUuiM4qipqp-183" edge="1">
          <mxGeometry width="50" height="50" relative="1" as="geometry">
            <mxPoint x="65.18012422360249" y="24" as="sourcePoint" />
            <mxPoint x="65.18012422360249" y="6" as="targetPoint" />
          </mxGeometry>
        </mxCell>
        <mxCell id="1mAbDg6GUyUuiM4qipqp-192" value="" style="endArrow=oval;html=1;rounded=0;dashed=1;endFill=1;" parent="1mAbDg6GUyUuiM4qipqp-183" edge="1">
          <mxGeometry width="50" height="50" relative="1" as="geometry">
            <mxPoint x="83.28373913043481" y="24" as="sourcePoint" />
            <mxPoint x="83.28373913043481" as="targetPoint" />
          </mxGeometry>
        </mxCell>
        <mxCell id="1mAbDg6GUyUuiM4qipqp-193" value="" style="endArrow=none;html=1;rounded=0;" parent="1mAbDg6GUyUuiM4qipqp-183" edge="1">
          <mxGeometry width="50" height="50" relative="1" as="geometry">
            <mxPoint y="24" as="sourcePoint" />
            <mxPoint x="83.28571428571429" y="24" as="targetPoint" />
          </mxGeometry>
        </mxCell>
        <mxCell id="1mAbDg6GUyUuiM4qipqp-194" value="" style="endArrow=none;html=1;rounded=0;" parent="1mAbDg6GUyUuiM4qipqp-183" edge="1">
          <mxGeometry width="50" height="50" relative="1" as="geometry">
            <mxPoint y="24" as="sourcePoint" />
            <mxPoint x="83.28571428571429" y="24" as="targetPoint" />
          </mxGeometry>
        </mxCell>
        <mxCell id="1mAbDg6GUyUuiM4qipqp-195" value="Single Voice Rhythm" style="text;html=1;strokeColor=none;fillColor=none;align=center;verticalAlign=middle;whiteSpace=wrap;rounded=0;fontStyle=1" parent="1mAbDg6GUyUuiM4qipqp-180" vertex="1">
          <mxGeometry y="31" width="106" height="30" as="geometry" />
        </mxCell>
        <mxCell id="1mAbDg6GUyUuiM4qipqp-196" value="&lt;b&gt;Z&lt;/b&gt;" style="rounded=0;whiteSpace=wrap;html=1;fillColor=#f0a30a;fontColor=#000000;strokeColor=#BD7000;" parent="1" vertex="1">
          <mxGeometry x="355" y="377" width="20" height="55" as="geometry" />
        </mxCell>
        <mxCell id="1mAbDg6GUyUuiM4qipqp-202" style="edgeStyle=orthogonalEdgeStyle;rounded=0;orthogonalLoop=1;jettySize=auto;html=1;entryX=0;entryY=0.5;entryDx=0;entryDy=0;strokeColor=#999999;exitX=1;exitY=0.5;exitDx=0;exitDy=0;endArrow=none;endFill=0;" parent="1" source="-NK8212SFT77abo9Widv-12" target="1mAbDg6GUyUuiM4qipqp-179" edge="1">
          <mxGeometry relative="1" as="geometry">
            <mxPoint x="220" y="404" as="sourcePoint" />
          </mxGeometry>
        </mxCell>
        <mxCell id="1mAbDg6GUyUuiM4qipqp-318" style="edgeStyle=orthogonalEdgeStyle;shape=connector;rounded=0;orthogonalLoop=1;jettySize=auto;html=1;entryX=0;entryY=0.5;entryDx=0;entryDy=0;labelBackgroundColor=default;strokeColor=#999999;fontFamily=Helvetica;fontSize=11;fontColor=default;endArrow=none;endFill=0;" parent="1" source="1mAbDg6GUyUuiM4qipqp-281" target="1mAbDg6GUyUuiM4qipqp-316" edge="1">
          <mxGeometry relative="1" as="geometry">
            <Array as="points">
              <mxPoint x="440" y="404" />
              <mxPoint x="440" y="360" />
            </Array>
          </mxGeometry>
        </mxCell>
        <mxCell id="1mAbDg6GUyUuiM4qipqp-281" value="+" style="ellipse;whiteSpace=wrap;html=1;aspect=fixed;fillColor=#f5f5f5;fontColor=#333333;strokeColor=#666666;" parent="1" vertex="1">
          <mxGeometry x="410" y="394.5" width="19" height="19" as="geometry" />
        </mxCell>
        <mxCell id="1mAbDg6GUyUuiM4qipqp-283" style="edgeStyle=orthogonalEdgeStyle;rounded=0;orthogonalLoop=1;jettySize=auto;html=1;entryX=0.5;entryY=0;entryDx=0;entryDy=0;opacity=80;strokeColor=#999999;dashed=1;" parent="1" source="1mAbDg6GUyUuiM4qipqp-238" target="1mAbDg6GUyUuiM4qipqp-281" edge="1">
          <mxGeometry relative="1" as="geometry">
            <Array as="points">
              <mxPoint x="136" y="360" />
              <mxPoint x="420" y="360" />
              <mxPoint x="420" y="395" />
            </Array>
          </mxGeometry>
        </mxCell>
        <mxCell id="1mAbDg6GUyUuiM4qipqp-284" style="edgeStyle=orthogonalEdgeStyle;rounded=0;orthogonalLoop=1;jettySize=auto;html=1;entryX=0.5;entryY=0;entryDx=0;entryDy=0;opacity=80;strokeColor=#999999;dashed=1;" parent="1" source="1mAbDg6GUyUuiM4qipqp-266" target="1mAbDg6GUyUuiM4qipqp-281" edge="1">
          <mxGeometry relative="1" as="geometry">
            <Array as="points">
              <mxPoint x="196" y="360" />
              <mxPoint x="420" y="360" />
              <mxPoint x="420" y="395" />
            </Array>
          </mxGeometry>
        </mxCell>
        <mxCell id="1mAbDg6GUyUuiM4qipqp-285" style="edgeStyle=orthogonalEdgeStyle;rounded=0;orthogonalLoop=1;jettySize=auto;html=1;entryX=0.5;entryY=0;entryDx=0;entryDy=0;opacity=80;strokeColor=#999999;dashed=1;" parent="1" source="1mAbDg6GUyUuiM4qipqp-270" target="1mAbDg6GUyUuiM4qipqp-281" edge="1">
          <mxGeometry relative="1" as="geometry">
            <Array as="points">
              <mxPoint x="256" y="360" />
              <mxPoint x="420" y="360" />
              <mxPoint x="420" y="395" />
            </Array>
          </mxGeometry>
        </mxCell>
        <mxCell id="1mAbDg6GUyUuiM4qipqp-286" style="edgeStyle=orthogonalEdgeStyle;rounded=0;orthogonalLoop=1;jettySize=auto;html=1;entryX=0.5;entryY=0;entryDx=0;entryDy=0;opacity=80;strokeColor=#999999;dashed=1;" parent="1" source="1mAbDg6GUyUuiM4qipqp-275" target="1mAbDg6GUyUuiM4qipqp-281" edge="1">
          <mxGeometry relative="1" as="geometry">
            <Array as="points">
              <mxPoint x="316" y="360" />
              <mxPoint x="420" y="360" />
              <mxPoint x="420" y="395" />
            </Array>
          </mxGeometry>
        </mxCell>
        <mxCell id="1mAbDg6GUyUuiM4qipqp-288" style="edgeStyle=orthogonalEdgeStyle;rounded=0;orthogonalLoop=1;jettySize=auto;html=1;entryX=0.5;entryY=0;entryDx=0;entryDy=0;opacity=80;strokeColor=#999999;dashed=1;" parent="1" source="1mAbDg6GUyUuiM4qipqp-279" target="1mAbDg6GUyUuiM4qipqp-281" edge="1">
          <mxGeometry relative="1" as="geometry">
            <Array as="points">
              <mxPoint x="376" y="360" />
              <mxPoint x="420" y="360" />
              <mxPoint x="420" y="395" />
            </Array>
          </mxGeometry>
        </mxCell>
        <mxCell id="1mAbDg6GUyUuiM4qipqp-292" value="&lt;b style=&quot;font-size: 10px;&quot;&gt;Genre &lt;br&gt;One-Hot&lt;br style=&quot;font-size: 10px;&quot;&gt;&lt;/b&gt;" style="rounded=0;whiteSpace=wrap;html=1;fillColor=#f0a30a;strokeColor=#BD7000;fontSize=9;fontColor=#000000;opacity=40;" parent="1" vertex="1">
          <mxGeometry x="266" y="450" width="70" height="31" as="geometry" />
        </mxCell>
        <mxCell id="1mAbDg6GUyUuiM4qipqp-298" style="edgeStyle=orthogonalEdgeStyle;rounded=0;orthogonalLoop=1;jettySize=auto;html=1;entryX=0.5;entryY=1;entryDx=0;entryDy=0;strokeColor=#999999;dashed=1;" parent="1" source="1mAbDg6GUyUuiM4qipqp-293" target="1mAbDg6GUyUuiM4qipqp-281" edge="1">
          <mxGeometry relative="1" as="geometry">
            <Array as="points">
              <mxPoint x="420" y="466" />
              <mxPoint x="420" y="434" />
            </Array>
          </mxGeometry>
        </mxCell>
        <mxCell id="1mAbDg6GUyUuiM4qipqp-293" value="&lt;b style=&quot;font-size: 9px;&quot;&gt;Embed&lt;br style=&quot;font-size: 9px;&quot;&gt;&lt;/b&gt;" style="rounded=0;whiteSpace=wrap;html=1;fillColor=#f0a30a;strokeColor=#BD7000;fontSize=9;fontColor=#000000;opacity=40;" parent="1" vertex="1">
          <mxGeometry x="356" y="455.00142857142856" width="52" height="21.428571428571427" as="geometry" />
        </mxCell>
        <mxCell id="1mAbDg6GUyUuiM4qipqp-237" value="&lt;b style=&quot;font-size: 9px;&quot;&gt;Is Kick&lt;br style=&quot;font-size: 9px;&quot;&gt;Muted ?&lt;br style=&quot;font-size: 9px;&quot;&gt;&lt;/b&gt;" style="rounded=0;whiteSpace=wrap;html=1;fillColor=#f0a30a;strokeColor=#BD7000;fontSize=9;fontColor=#000000;opacity=40;" parent="1" vertex="1">
          <mxGeometry x="110" y="287" width="52" height="31.43" as="geometry" />
        </mxCell>
        <mxCell id="1mAbDg6GUyUuiM4qipqp-238" value="&lt;b style=&quot;font-size: 9px;&quot;&gt;Embed&lt;br style=&quot;font-size: 9px;&quot;&gt;&lt;/b&gt;" style="rounded=1;whiteSpace=wrap;html=1;fillColor=#f0a30a;strokeColor=#BD7000;fontSize=9;fontColor=#000000;opacity=40;" parent="1" vertex="1">
          <mxGeometry x="110" y="325.57142857142856" width="52" height="21.428571428571427" as="geometry" />
        </mxCell>
        <mxCell id="1mAbDg6GUyUuiM4qipqp-239" value="" style="endArrow=none;html=1;rounded=0;exitX=0.5;exitY=0;exitDx=0;exitDy=0;entryX=0.5;entryY=1;entryDx=0;entryDy=0;" parent="1" source="1mAbDg6GUyUuiM4qipqp-238" target="1mAbDg6GUyUuiM4qipqp-237" edge="1">
          <mxGeometry width="50" height="50" relative="1" as="geometry">
            <mxPoint x="90" y="354.14285714285717" as="sourcePoint" />
            <mxPoint x="140" y="318.42857142857144" as="targetPoint" />
          </mxGeometry>
        </mxCell>
        <mxCell id="1mAbDg6GUyUuiM4qipqp-265" value="&lt;b style=&quot;font-size: 9px;&quot;&gt;Is Snare&lt;br style=&quot;font-size: 9px;&quot;&gt;Muted ?&lt;br style=&quot;font-size: 9px;&quot;&gt;&lt;/b&gt;" style="rounded=0;whiteSpace=wrap;html=1;fillColor=#f0a30a;strokeColor=#BD7000;fontSize=9;fontColor=#000000;opacity=40;" parent="1" vertex="1">
          <mxGeometry x="170" y="287" width="52" height="31.43" as="geometry" />
        </mxCell>
        <mxCell id="1mAbDg6GUyUuiM4qipqp-266" value="&lt;b style=&quot;font-size: 9px;&quot;&gt;Embed&lt;br style=&quot;font-size: 9px;&quot;&gt;&lt;/b&gt;" style="rounded=1;whiteSpace=wrap;html=1;fillColor=#f0a30a;strokeColor=#BD7000;fontSize=9;fontColor=#000000;opacity=40;" parent="1" vertex="1">
          <mxGeometry x="170" y="325.57142857142856" width="52" height="21.428571428571427" as="geometry" />
        </mxCell>
        <mxCell id="1mAbDg6GUyUuiM4qipqp-267" value="" style="endArrow=none;html=1;rounded=0;exitX=0.5;exitY=0;exitDx=0;exitDy=0;entryX=0.5;entryY=1;entryDx=0;entryDy=0;" parent="1" source="1mAbDg6GUyUuiM4qipqp-266" target="1mAbDg6GUyUuiM4qipqp-265" edge="1">
          <mxGeometry width="50" height="50" relative="1" as="geometry">
            <mxPoint x="150" y="354.14285714285717" as="sourcePoint" />
            <mxPoint x="200" y="318.42857142857144" as="targetPoint" />
          </mxGeometry>
        </mxCell>
        <mxCell id="1mAbDg6GUyUuiM4qipqp-269" value="&lt;b style=&quot;font-size: 9px;&quot;&gt;Are Hats&lt;br style=&quot;font-size: 9px;&quot;&gt;Muted ?&lt;br style=&quot;font-size: 9px;&quot;&gt;&lt;/b&gt;" style="rounded=0;whiteSpace=wrap;html=1;fillColor=#f0a30a;strokeColor=#BD7000;fontSize=9;fontColor=#000000;opacity=40;" parent="1" vertex="1">
          <mxGeometry x="230" y="287" width="52" height="31.43" as="geometry" />
        </mxCell>
        <mxCell id="1mAbDg6GUyUuiM4qipqp-270" value="&lt;b style=&quot;font-size: 9px;&quot;&gt;Embed&lt;br style=&quot;font-size: 9px;&quot;&gt;&lt;/b&gt;" style="rounded=1;whiteSpace=wrap;html=1;fillColor=#f0a30a;strokeColor=#BD7000;fontSize=9;fontColor=#000000;opacity=40;" parent="1" vertex="1">
          <mxGeometry x="230" y="325.57142857142856" width="52" height="21.428571428571427" as="geometry" />
        </mxCell>
        <mxCell id="1mAbDg6GUyUuiM4qipqp-271" value="" style="endArrow=none;html=1;rounded=0;exitX=0.5;exitY=0;exitDx=0;exitDy=0;entryX=0.5;entryY=1;entryDx=0;entryDy=0;" parent="1" source="1mAbDg6GUyUuiM4qipqp-270" target="1mAbDg6GUyUuiM4qipqp-269" edge="1">
          <mxGeometry width="50" height="50" relative="1" as="geometry">
            <mxPoint x="210" y="354.14285714285717" as="sourcePoint" />
            <mxPoint x="260" y="318.42857142857144" as="targetPoint" />
          </mxGeometry>
        </mxCell>
        <mxCell id="1mAbDg6GUyUuiM4qipqp-274" value="&lt;b style=&quot;font-size: 9px;&quot;&gt;Are Toms&lt;br style=&quot;font-size: 9px;&quot;&gt;Muted ?&lt;br style=&quot;font-size: 9px;&quot;&gt;&lt;/b&gt;" style="rounded=0;whiteSpace=wrap;html=1;fillColor=#f0a30a;strokeColor=#BD7000;fontSize=9;fontColor=#000000;opacity=40;" parent="1" vertex="1">
          <mxGeometry x="290" y="287" width="52" height="31.43" as="geometry" />
        </mxCell>
        <mxCell id="1mAbDg6GUyUuiM4qipqp-275" value="&lt;b style=&quot;font-size: 9px;&quot;&gt;Embed&lt;br style=&quot;font-size: 9px;&quot;&gt;&lt;/b&gt;" style="rounded=1;whiteSpace=wrap;html=1;fillColor=#f0a30a;strokeColor=#BD7000;fontSize=9;fontColor=#000000;opacity=40;" parent="1" vertex="1">
          <mxGeometry x="290" y="325.57142857142856" width="52" height="21.428571428571427" as="geometry" />
        </mxCell>
        <mxCell id="1mAbDg6GUyUuiM4qipqp-276" value="" style="endArrow=none;html=1;rounded=0;exitX=0.5;exitY=0;exitDx=0;exitDy=0;entryX=0.5;entryY=1;entryDx=0;entryDy=0;" parent="1" source="1mAbDg6GUyUuiM4qipqp-275" target="1mAbDg6GUyUuiM4qipqp-274" edge="1">
          <mxGeometry width="50" height="50" relative="1" as="geometry">
            <mxPoint x="270" y="354.14285714285717" as="sourcePoint" />
            <mxPoint x="320" y="318.42857142857144" as="targetPoint" />
          </mxGeometry>
        </mxCell>
        <mxCell id="1mAbDg6GUyUuiM4qipqp-278" value="&lt;b style=&quot;font-size: 9px;&quot;&gt;Are Cymbals&lt;br style=&quot;font-size: 9px;&quot;&gt;Muted ?&lt;br style=&quot;font-size: 9px;&quot;&gt;&lt;/b&gt;" style="rounded=0;whiteSpace=wrap;html=1;fillColor=#f0a30a;strokeColor=#BD7000;fontSize=9;fontColor=#000000;opacity=40;" parent="1" vertex="1">
          <mxGeometry x="350" y="287" width="52" height="31.43" as="geometry" />
        </mxCell>
        <mxCell id="1mAbDg6GUyUuiM4qipqp-279" value="&lt;b style=&quot;font-size: 9px;&quot;&gt;Embed&lt;br style=&quot;font-size: 9px;&quot;&gt;&lt;/b&gt;" style="rounded=1;whiteSpace=wrap;html=1;fillColor=#f0a30a;strokeColor=#BD7000;fontSize=9;fontColor=#000000;opacity=40;" parent="1" vertex="1">
          <mxGeometry x="350" y="325.57142857142856" width="52" height="21.428571428571427" as="geometry" />
        </mxCell>
        <mxCell id="1mAbDg6GUyUuiM4qipqp-280" value="" style="endArrow=none;html=1;rounded=0;exitX=0.5;exitY=0;exitDx=0;exitDy=0;entryX=0.5;entryY=1;entryDx=0;entryDy=0;" parent="1" source="1mAbDg6GUyUuiM4qipqp-279" target="1mAbDg6GUyUuiM4qipqp-278" edge="1">
          <mxGeometry width="50" height="50" relative="1" as="geometry">
            <mxPoint x="330" y="354.14285714285717" as="sourcePoint" />
            <mxPoint x="380" y="318.42857142857144" as="targetPoint" />
          </mxGeometry>
        </mxCell>
        <mxCell id="1mAbDg6GUyUuiM4qipqp-306" value="MuteVAE &amp;amp;&amp;nbsp;&lt;br style=&quot;font-size: 9px;&quot;&gt;MuteGenreLatentVAE &amp;amp; MuteLatentGenreInputVAE" style="text;html=1;strokeColor=none;fillColor=none;align=left;verticalAlign=middle;whiteSpace=wrap;rounded=0;fontSize=9;fontStyle=1" parent="1" vertex="1">
          <mxGeometry x="-11" y="301.5" width="97" height="30" as="geometry" />
        </mxCell>
        <mxCell id="1mAbDg6GUyUuiM4qipqp-307" value="MuteGenreLatentVAE" style="text;html=1;strokeColor=none;fillColor=none;align=center;verticalAlign=middle;whiteSpace=wrap;rounded=0;fontSize=9;fontStyle=1" parent="1" vertex="1">
          <mxGeometry x="365" y="476" width="60" height="30" as="geometry" />
        </mxCell>
        <mxCell id="1mAbDg6GUyUuiM4qipqp-314" value="&lt;b style=&quot;border-color: var(--border-color); font-size: 12px;&quot;&gt;Velocities&lt;br style=&quot;font-size: 12px;&quot;&gt;Decoder&lt;br style=&quot;font-size: 12px;&quot;&gt;&lt;/b&gt;" style="rounded=1;whiteSpace=wrap;html=1;fillColor=#647687;strokeColor=#314354;fontColor=#ffffff;fontSize=12;" parent="1" vertex="1">
          <mxGeometry x="458" y="385" width="82" height="39" as="geometry" />
        </mxCell>
        <mxCell id="-NK8212SFT77abo9Widv-28" style="edgeStyle=orthogonalEdgeStyle;rounded=0;orthogonalLoop=1;jettySize=auto;html=1;entryX=0;entryY=0.477;entryDx=0;entryDy=0;entryPerimeter=0;strokeColor=#999999;endArrow=none;endFill=0;" parent="1" source="1mAbDg6GUyUuiM4qipqp-281" target="1mAbDg6GUyUuiM4qipqp-314" edge="1">
          <mxGeometry relative="1" as="geometry" />
        </mxCell>
        <mxCell id="1mAbDg6GUyUuiM4qipqp-315" value="&lt;b style=&quot;font-size: 12px;&quot;&gt;Offsets&lt;br style=&quot;font-size: 12px;&quot;&gt;Decoder&lt;br style=&quot;font-size: 12px;&quot;&gt;&lt;/b&gt;" style="rounded=1;whiteSpace=wrap;html=1;fillColor=#6d8764;strokeColor=#3A5431;fontColor=#ffffff;fontSize=12;" parent="1" vertex="1">
          <mxGeometry x="459" y="429" width="81" height="41.5" as="geometry" />
        </mxCell>
        <mxCell id="-NK8212SFT77abo9Widv-1" value="&lt;b style=&quot;font-size: 9px;&quot;&gt;Embed&lt;br style=&quot;font-size: 9px;&quot;&gt;&lt;/b&gt;" style="rounded=0;whiteSpace=wrap;html=1;fillColor=#f0a30a;strokeColor=#BD7000;fontSize=9;fontColor=#000000;opacity=40;" parent="1" vertex="1">
          <mxGeometry x="194" y="455.00142857142856" width="52" height="21.428571428571427" as="geometry" />
        </mxCell>
        <mxCell id="1mAbDg6GUyUuiM4qipqp-317" style="edgeStyle=orthogonalEdgeStyle;shape=connector;rounded=0;orthogonalLoop=1;jettySize=auto;html=1;entryX=-0.002;entryY=0.269;entryDx=0;entryDy=0;labelBackgroundColor=default;strokeColor=#999999;fontFamily=Helvetica;fontSize=11;fontColor=default;endArrow=none;entryPerimeter=0;endFill=0;" parent="1" source="1mAbDg6GUyUuiM4qipqp-281" target="1mAbDg6GUyUuiM4qipqp-315" edge="1">
          <mxGeometry relative="1" as="geometry">
            <Array as="points">
              <mxPoint x="440" y="404" />
              <mxPoint x="440" y="440" />
              <mxPoint x="458" y="440" />
            </Array>
          </mxGeometry>
        </mxCell>
        <mxCell id="-NK8212SFT77abo9Widv-2" style="edgeStyle=orthogonalEdgeStyle;rounded=0;orthogonalLoop=1;jettySize=auto;html=1;entryX=0;entryY=0.5;entryDx=0;entryDy=0;strokeColor=#999999;dashed=1;" parent="1" edge="1">
          <mxGeometry relative="1" as="geometry">
            <mxPoint x="266" y="465" as="sourcePoint" />
            <mxPoint x="246" y="465" as="targetPoint" />
          </mxGeometry>
        </mxCell>
        <mxCell id="-NK8212SFT77abo9Widv-4" value="&lt;b style=&quot;&quot;&gt;&lt;font style=&quot;font-size: 10px;&quot;&gt;Hits Linear&lt;/font&gt;&lt;/b&gt;" style="rounded=1;whiteSpace=wrap;html=1;fillColor=#a0522d;fontColor=#ffffff;strokeColor=#6D1F00;fontSize=12;" parent="1" vertex="1">
          <mxGeometry x="103" y="366" width="87" height="21" as="geometry" />
        </mxCell>
        <mxCell id="-NK8212SFT77abo9Widv-5" value="&lt;b style=&quot;&quot;&gt;&lt;font style=&quot;font-size: 10px;&quot;&gt;Velocities Linear&lt;/font&gt;&lt;/b&gt;" style="rounded=1;whiteSpace=wrap;html=1;fillColor=#647687;fontColor=#ffffff;strokeColor=#314354;fontSize=12;" parent="1" vertex="1">
          <mxGeometry x="103" y="393" width="87" height="22" as="geometry" />
        </mxCell>
        <mxCell id="-NK8212SFT77abo9Widv-44" style="edgeStyle=orthogonalEdgeStyle;rounded=0;orthogonalLoop=1;jettySize=auto;html=1;exitX=1;exitY=0.25;exitDx=0;exitDy=0;entryX=0;entryY=1;entryDx=0;entryDy=0;endArrow=none;strokeColor=#999999;endFill=0;" parent="1" source="-NK8212SFT77abo9Widv-6" target="-NK8212SFT77abo9Widv-12" edge="1">
          <mxGeometry relative="1" as="geometry">
            <Array as="points">
              <mxPoint x="200" y="428" />
              <mxPoint x="200" y="411" />
            </Array>
          </mxGeometry>
        </mxCell>
        <mxCell id="-NK8212SFT77abo9Widv-6" value="&lt;b style=&quot;&quot;&gt;&lt;font style=&quot;font-size: 10px;&quot;&gt;Offsets Linear&lt;/font&gt;&lt;/b&gt;" style="rounded=1;whiteSpace=wrap;html=1;fillColor=#6d8764;fontColor=#ffffff;strokeColor=#3A5431;fontSize=12;" parent="1" vertex="1">
          <mxGeometry x="103" y="422.5" width="87" height="21" as="geometry" />
        </mxCell>
        <mxCell id="-NK8212SFT77abo9Widv-9" style="edgeStyle=orthogonalEdgeStyle;rounded=0;orthogonalLoop=1;jettySize=auto;html=1;entryX=0;entryY=0.5;entryDx=0;entryDy=0;exitX=1;exitY=0.5;exitDx=0;exitDy=0;strokeColor=#999999;endArrow=none;endFill=0;" parent="1" source="1mAbDg6GUyUuiM4qipqp-182" target="-NK8212SFT77abo9Widv-4" edge="1">
          <mxGeometry relative="1" as="geometry">
            <Array as="points">
              <mxPoint x="86" y="404" />
              <mxPoint x="86" y="376" />
            </Array>
          </mxGeometry>
        </mxCell>
        <mxCell id="-NK8212SFT77abo9Widv-10" style="edgeStyle=orthogonalEdgeStyle;rounded=0;orthogonalLoop=1;jettySize=auto;html=1;entryX=0;entryY=0.5;entryDx=0;entryDy=0;strokeColor=#999999;endArrow=none;endFill=0;" parent="1" source="1mAbDg6GUyUuiM4qipqp-182" target="-NK8212SFT77abo9Widv-5" edge="1">
          <mxGeometry relative="1" as="geometry" />
        </mxCell>
        <mxCell id="-NK8212SFT77abo9Widv-11" style="edgeStyle=orthogonalEdgeStyle;rounded=0;orthogonalLoop=1;jettySize=auto;html=1;entryX=0;entryY=0.5;entryDx=0;entryDy=0;strokeColor=#999999;endArrow=none;endFill=0;" parent="1" source="1mAbDg6GUyUuiM4qipqp-182" target="-NK8212SFT77abo9Widv-6" edge="1">
          <mxGeometry relative="1" as="geometry">
            <mxPoint x="96" y="436" as="targetPoint" />
            <Array as="points">
              <mxPoint x="86" y="404" />
              <mxPoint x="86" y="433" />
            </Array>
          </mxGeometry>
        </mxCell>
        <mxCell id="-NK8212SFT77abo9Widv-12" value="+" style="ellipse;whiteSpace=wrap;html=1;aspect=fixed;fillColor=#f5f5f5;fontColor=#333333;strokeColor=#666666;" parent="1" vertex="1">
          <mxGeometry x="210" y="394.5" width="19" height="19" as="geometry" />
        </mxCell>
        <mxCell id="-NK8212SFT77abo9Widv-23" style="edgeStyle=orthogonalEdgeStyle;rounded=0;orthogonalLoop=1;jettySize=auto;html=1;entryX=0.5;entryY=1;entryDx=0;entryDy=0;strokeColor=#999999;dashed=1;" parent="1" source="-NK8212SFT77abo9Widv-1" target="-NK8212SFT77abo9Widv-12" edge="1">
          <mxGeometry relative="1" as="geometry" />
        </mxCell>
        <mxCell id="-NK8212SFT77abo9Widv-20" value="MuteLatentGenreInputVAE" style="text;html=1;strokeColor=none;fillColor=none;align=center;verticalAlign=middle;whiteSpace=wrap;rounded=0;fontSize=9;fontStyle=1" parent="1" vertex="1">
          <mxGeometry x="164" y="476" width="60" height="30" as="geometry" />
        </mxCell>
        <mxCell id="-NK8212SFT77abo9Widv-25" style="edgeStyle=orthogonalEdgeStyle;rounded=0;orthogonalLoop=1;jettySize=auto;html=1;entryX=0;entryY=0.5;entryDx=0;entryDy=0;strokeColor=#999999;dashed=1;" parent="1" edge="1">
          <mxGeometry relative="1" as="geometry">
            <mxPoint x="336" y="466" as="sourcePoint" />
            <mxPoint x="356" y="466" as="targetPoint" />
          </mxGeometry>
        </mxCell>
        <mxCell id="1mAbDg6GUyUuiM4qipqp-164" value="" style="group;fillColor=#ffe6cc;strokeColor=#d79b00;" parent="1" vertex="1" connectable="0">
          <mxGeometry x="603.38" y="336" width="83.24" height="30" as="geometry" />
        </mxCell>
        <mxCell id="1mAbDg6GUyUuiM4qipqp-165" value="..." style="rounded=0;whiteSpace=wrap;html=1;fillColor=#fff2cc;strokeColor=#d6b656;" parent="1mAbDg6GUyUuiM4qipqp-164" vertex="1">
          <mxGeometry width="83.23999999999998" height="30" as="geometry" />
        </mxCell>
        <mxCell id="-NK8212SFT77abo9Widv-22" value="7 Other Voices" style="text;html=1;strokeColor=none;fillColor=none;align=center;verticalAlign=middle;whiteSpace=wrap;rounded=0;fontStyle=1;fontSize=10;" parent="1" vertex="1">
          <mxGeometry x="600.0015028901734" y="365.21000000000004" width="90" height="19.79" as="geometry" />
        </mxCell>
        <mxCell id="-NK8212SFT77abo9Widv-21" value="Kick" style="text;html=1;strokeColor=none;fillColor=none;align=center;verticalAlign=middle;whiteSpace=wrap;rounded=0;fontStyle=1;fontSize=10;" parent="1" vertex="1">
          <mxGeometry x="627.6604624277456" y="470.5036170212766" width="34.68208092485549" height="19.787234042553195" as="geometry" />
        </mxCell>
        <mxCell id="-NK8212SFT77abo9Widv-29" value="Snare" style="text;html=1;strokeColor=none;fillColor=none;align=center;verticalAlign=middle;whiteSpace=wrap;rounded=0;fontStyle=1;fontSize=10;" parent="1" vertex="1">
          <mxGeometry x="627.6604624277456" y="416.7063829787234" width="34.68208092485549" height="19.787234042553195" as="geometry" />
        </mxCell>
        <mxCell id="-NK8212SFT77abo9Widv-33" value="Sigmoid" style="ellipse;whiteSpace=wrap;html=1;fontSize=9;fillColor=#a0522d;fontColor=#ffffff;strokeColor=#6D1F00;fontStyle=1" parent="1" vertex="1">
          <mxGeometry x="552" y="342.74" width="40" height="31.57" as="geometry" />
        </mxCell>
        <mxCell id="-NK8212SFT77abo9Widv-34" value="Tanh" style="ellipse;whiteSpace=wrap;html=1;fontSize=9;fillColor=#647687;fontColor=#ffffff;strokeColor=#314354;fontStyle=1" parent="1" vertex="1">
          <mxGeometry x="552" y="388.21000000000004" width="40" height="31.57" as="geometry" />
        </mxCell>
        <mxCell id="-NK8212SFT77abo9Widv-35" value="Tanh" style="ellipse;whiteSpace=wrap;html=1;fontSize=9;fillColor=#6d8764;fontColor=#ffffff;strokeColor=#3A5431;fontStyle=1" parent="1" vertex="1">
          <mxGeometry x="553" y="434.49" width="40" height="31.57" as="geometry" />
        </mxCell>
        <mxCell id="-NK8212SFT77abo9Widv-37" style="edgeStyle=orthogonalEdgeStyle;rounded=0;orthogonalLoop=1;jettySize=auto;html=1;entryX=0;entryY=0.5;entryDx=0;entryDy=0;strokeColor=#999999;endArrow=none;endFill=0;" parent="1" target="1mAbDg6GUyUuiM4qipqp-281" edge="1">
          <mxGeometry relative="1" as="geometry">
            <mxPoint x="375" y="404" as="sourcePoint" />
            <mxPoint x="391" y="404" as="targetPoint" />
          </mxGeometry>
        </mxCell>
        <mxCell id="-NK8212SFT77abo9Widv-38" style="edgeStyle=orthogonalEdgeStyle;rounded=0;orthogonalLoop=1;jettySize=auto;html=1;strokeColor=#999999;entryX=0;entryY=0.5;entryDx=0;entryDy=0;endArrow=none;endFill=0;" parent="1" target="-NK8212SFT77abo9Widv-35" edge="1">
          <mxGeometry relative="1" as="geometry">
            <mxPoint x="540" y="450.15999999999997" as="sourcePoint" />
            <mxPoint x="550" y="450" as="targetPoint" />
          </mxGeometry>
        </mxCell>
        <mxCell id="-NK8212SFT77abo9Widv-39" style="edgeStyle=orthogonalEdgeStyle;rounded=0;orthogonalLoop=1;jettySize=auto;html=1;strokeColor=#999999;entryX=0;entryY=0.5;entryDx=0;entryDy=0;endArrow=none;endFill=0;" parent="1" target="-NK8212SFT77abo9Widv-34" edge="1">
          <mxGeometry relative="1" as="geometry">
            <mxPoint x="540" y="404.55999999999995" as="sourcePoint" />
            <mxPoint x="550" y="404.4" as="targetPoint" />
          </mxGeometry>
        </mxCell>
        <mxCell id="-NK8212SFT77abo9Widv-40" style="edgeStyle=orthogonalEdgeStyle;rounded=0;orthogonalLoop=1;jettySize=auto;html=1;strokeColor=#999999;entryX=0;entryY=0.5;entryDx=0;entryDy=0;endArrow=none;endFill=0;" parent="1" target="-NK8212SFT77abo9Widv-33" edge="1">
          <mxGeometry relative="1" as="geometry">
            <mxPoint x="540" y="358.5899999999999" as="sourcePoint" />
            <mxPoint x="550" y="358.42999999999995" as="targetPoint" />
          </mxGeometry>
        </mxCell>
        <mxCell id="-NK8212SFT77abo9Widv-18" style="edgeStyle=orthogonalEdgeStyle;rounded=0;orthogonalLoop=1;jettySize=auto;html=1;entryX=0;entryY=0;entryDx=0;entryDy=0;strokeColor=#999999;endArrow=none;endFill=0;" parent="1" source="-NK8212SFT77abo9Widv-4" target="-NK8212SFT77abo9Widv-12" edge="1">
          <mxGeometry relative="1" as="geometry">
            <Array as="points">
              <mxPoint x="200" y="380" />
              <mxPoint x="200" y="397" />
            </Array>
          </mxGeometry>
        </mxCell>
        <mxCell id="-NK8212SFT77abo9Widv-13" style="edgeStyle=orthogonalEdgeStyle;rounded=0;orthogonalLoop=1;jettySize=auto;html=1;entryX=0;entryY=0.5;entryDx=0;entryDy=0;strokeColor=#999999;endArrow=none;endFill=0;" parent="1" source="-NK8212SFT77abo9Widv-5" target="-NK8212SFT77abo9Widv-12" edge="1">
          <mxGeometry relative="1" as="geometry" />
        </mxCell>
        <mxCell id="-NK8212SFT77abo9Widv-48" value="" style="group" parent="1" vertex="1" connectable="0">
          <mxGeometry x="603.38" y="440" width="83.24" height="30" as="geometry" />
        </mxCell>
        <mxCell id="1mAbDg6GUyUuiM4qipqp-147" value="" style="group;fillColor=#cce5ff;strokeColor=#36393d;container=0;" parent="-NK8212SFT77abo9Widv-48" vertex="1" connectable="0">
          <mxGeometry width="83.23999999999998" height="30.00000000000004" as="geometry" />
        </mxCell>
        <mxCell id="1mAbDg6GUyUuiM4qipqp-150" value="" style="endArrow=oval;html=1;rounded=0;endFill=1;strokeWidth=1;dashed=1;" parent="-NK8212SFT77abo9Widv-48" edge="1">
          <mxGeometry width="50" height="50" relative="1" as="geometry">
            <mxPoint x="3.508143768115985" y="27.999999999999982" as="sourcePoint" />
            <mxPoint x="3.468333333333281" y="3.999999999999948" as="targetPoint" />
          </mxGeometry>
        </mxCell>
        <mxCell id="1mAbDg6GUyUuiM4qipqp-153" value="" style="endArrow=oval;html=1;rounded=0;endFill=1;" parent="-NK8212SFT77abo9Widv-48" edge="1">
          <mxGeometry width="50" height="50" relative="1" as="geometry">
            <mxPoint x="23.413361159420294" y="27.999999999999982" as="sourcePoint" />
            <mxPoint x="23.41336115942018" y="27.999999999999982" as="targetPoint" />
          </mxGeometry>
        </mxCell>
        <mxCell id="1mAbDg6GUyUuiM4qipqp-154" value="" style="endArrow=oval;html=1;rounded=0;endFill=1;startSize=1;strokeWidth=1;dashed=1;" parent="-NK8212SFT77abo9Widv-48" edge="1">
          <mxGeometry width="50" height="50" relative="1" as="geometry">
            <mxPoint x="23.413361159420294" y="27.999999999999982" as="sourcePoint" />
            <mxPoint x="23.37355072463759" y="27.999999999999982" as="targetPoint" />
          </mxGeometry>
        </mxCell>
        <mxCell id="1mAbDg6GUyUuiM4qipqp-155" value="" style="endArrow=oval;html=1;rounded=0;endFill=1;startSize=1;strokeWidth=1;dashed=1;" parent="-NK8212SFT77abo9Widv-48" edge="1">
          <mxGeometry width="50" height="50" relative="1" as="geometry">
            <mxPoint x="43.28540318840566" y="27.999999999999982" as="sourcePoint" />
            <mxPoint x="43.278768115941894" y="15.999999999999964" as="targetPoint" />
          </mxGeometry>
        </mxCell>
        <mxCell id="1mAbDg6GUyUuiM4qipqp-157" value="" style="endArrow=oval;html=1;rounded=0;dashed=1;endFill=1;" parent="-NK8212SFT77abo9Widv-48" edge="1">
          <mxGeometry width="50" height="50" relative="1" as="geometry">
            <mxPoint x="74.97631884057961" y="27.999999999999982" as="sourcePoint" />
            <mxPoint x="74.97631884057961" y="10" as="targetPoint" />
          </mxGeometry>
        </mxCell>
        <mxCell id="1mAbDg6GUyUuiM4qipqp-158" value="" style="endArrow=oval;html=1;rounded=0;dashed=1;endFill=1;" parent="-NK8212SFT77abo9Widv-48" edge="1">
          <mxGeometry width="50" height="50" relative="1" as="geometry">
            <mxPoint x="79.76985710144925" y="27.999999999999982" as="sourcePoint" />
            <mxPoint x="79.76985710144925" y="3.999999999999948" as="targetPoint" />
          </mxGeometry>
        </mxCell>
        <mxCell id="1mAbDg6GUyUuiM4qipqp-159" value="" style="endArrow=none;html=1;rounded=0;" parent="-NK8212SFT77abo9Widv-48" edge="1">
          <mxGeometry width="50" height="50" relative="1" as="geometry">
            <mxPoint x="3.468333333333281" y="27.999999999999982" as="sourcePoint" />
            <mxPoint x="79.77166666666659" y="27.999999999999982" as="targetPoint" />
          </mxGeometry>
        </mxCell>
        <mxCell id="1mAbDg6GUyUuiM4qipqp-160" value="" style="endArrow=none;html=1;rounded=0;" parent="-NK8212SFT77abo9Widv-48" edge="1">
          <mxGeometry width="50" height="50" relative="1" as="geometry">
            <mxPoint x="3.468333333333281" y="27.999999999999982" as="sourcePoint" />
            <mxPoint x="79.77166666666659" y="27.999999999999982" as="targetPoint" />
          </mxGeometry>
        </mxCell>
        <mxCell id="1mAbDg6GUyUuiM4qipqp-178" value="" style="endArrow=oval;html=1;rounded=0;endFill=1;startSize=1;strokeWidth=1;dashed=1;" parent="-NK8212SFT77abo9Widv-48" edge="1">
          <mxGeometry width="50" height="50" relative="1" as="geometry">
            <mxPoint x="20.1163333333333" y="27.999999999999982" as="sourcePoint" />
            <mxPoint x="20.1163333333333" y="6.999999999999974" as="targetPoint" />
          </mxGeometry>
        </mxCell>
        <mxCell id="-NK8212SFT77abo9Widv-49" value="" style="group" parent="1" vertex="1" connectable="0">
          <mxGeometry x="603.38" y="390" width="83.24" height="30" as="geometry" />
        </mxCell>
        <mxCell id="1mAbDg6GUyUuiM4qipqp-132" value="" style="rounded=0;whiteSpace=wrap;html=1;fillColor=#ffcc99;strokeColor=#36393d;" parent="-NK8212SFT77abo9Widv-49" vertex="1">
          <mxGeometry width="83.24" height="30" as="geometry" />
        </mxCell>
        <mxCell id="1mAbDg6GUyUuiM4qipqp-136" value="" style="endArrow=oval;html=1;rounded=0;endFill=1;startSize=1;strokeWidth=1;dashed=1;" parent="-NK8212SFT77abo9Widv-49" edge="1">
          <mxGeometry width="50" height="50" relative="1" as="geometry">
            <mxPoint x="23.413361159420294" y="28.000000000000068" as="sourcePoint" />
            <mxPoint x="23.37355072463759" y="4.000000000000035" as="targetPoint" />
          </mxGeometry>
        </mxCell>
        <mxCell id="1mAbDg6GUyUuiM4qipqp-137" value="" style="endArrow=oval;html=1;rounded=0;endFill=1;" parent="-NK8212SFT77abo9Widv-49" edge="1">
          <mxGeometry width="50" height="50" relative="1" as="geometry">
            <mxPoint x="23.413361159420294" y="28.000000000000068" as="sourcePoint" />
            <mxPoint x="23.41336115942018" y="28.000000000000068" as="targetPoint" />
          </mxGeometry>
        </mxCell>
        <mxCell id="1mAbDg6GUyUuiM4qipqp-138" value="" style="endArrow=oval;html=1;rounded=0;endFill=1;startSize=1;strokeWidth=1;dashed=1;" parent="-NK8212SFT77abo9Widv-49" edge="1">
          <mxGeometry width="50" height="50" relative="1" as="geometry">
            <mxPoint x="23.413361159420294" y="28.000000000000068" as="sourcePoint" />
            <mxPoint x="23.37355072463759" y="28.000000000000068" as="targetPoint" />
          </mxGeometry>
        </mxCell>
        <mxCell id="1mAbDg6GUyUuiM4qipqp-141" value="" style="endArrow=oval;html=1;rounded=0;dashed=1;endFill=1;" parent="-NK8212SFT77abo9Widv-49" edge="1">
          <mxGeometry width="50" height="50" relative="1" as="geometry">
            <mxPoint x="63.18398550724632" y="28.000000000000068" as="sourcePoint" />
            <mxPoint x="63.18398550724632" y="10" as="targetPoint" />
          </mxGeometry>
        </mxCell>
        <mxCell id="1mAbDg6GUyUuiM4qipqp-143" value="" style="endArrow=none;html=1;rounded=0;" parent="-NK8212SFT77abo9Widv-49" edge="1">
          <mxGeometry width="50" height="50" relative="1" as="geometry">
            <mxPoint x="3.468333333333281" y="28.000000000000068" as="sourcePoint" />
            <mxPoint x="79.77166666666659" y="28.000000000000068" as="targetPoint" />
          </mxGeometry>
        </mxCell>
        <mxCell id="1mAbDg6GUyUuiM4qipqp-144" value="" style="endArrow=none;html=1;rounded=0;" parent="-NK8212SFT77abo9Widv-49" edge="1">
          <mxGeometry width="50" height="50" relative="1" as="geometry">
            <mxPoint x="3.468333333333281" y="28.000000000000068" as="sourcePoint" />
            <mxPoint x="79.77166666666659" y="28.000000000000068" as="targetPoint" />
          </mxGeometry>
        </mxCell>
        <mxCell id="mIjLraYWU1ijbTPT-EfQ-3" value="" style="group" vertex="1" connectable="0" parent="1">
          <mxGeometry x="-540" y="580" width="106" height="150" as="geometry" />
        </mxCell>
        <mxCell id="mIjLraYWU1ijbTPT-EfQ-1" value="" style="sketch=0;outlineConnect=0;fontColor=#232F3E;gradientColor=none;fillColor=#067F68;strokeColor=none;dashed=0;verticalLabelPosition=bottom;verticalAlign=top;align=center;html=1;fontSize=12;fontStyle=0;aspect=fixed;pointerEvents=1;shape=mxgraph.aws4.sagemaker_model;" vertex="1" parent="mIjLraYWU1ijbTPT-EfQ-3">
          <mxGeometry width="100" height="100" as="geometry" />
        </mxCell>
        <mxCell id="mIjLraYWU1ijbTPT-EfQ-2" value="Initial&lt;br&gt;Accompaniment&lt;br&gt;System" style="text;html=1;strokeColor=none;fillColor=none;align=center;verticalAlign=middle;whiteSpace=wrap;rounded=0;fontStyle=1" vertex="1" parent="mIjLraYWU1ijbTPT-EfQ-3">
          <mxGeometry y="110" width="106" height="40" as="geometry" />
        </mxCell>
        <mxCell id="mIjLraYWU1ijbTPT-EfQ-4" value="" style="group" vertex="1" connectable="0" parent="1">
          <mxGeometry x="-340" y="580" width="106" height="150" as="geometry" />
        </mxCell>
        <mxCell id="mIjLraYWU1ijbTPT-EfQ-5" value="" style="sketch=0;outlineConnect=0;fontColor=#232F3E;gradientColor=none;fillColor=#067F68;strokeColor=none;dashed=0;verticalLabelPosition=bottom;verticalAlign=top;align=center;html=1;fontSize=12;fontStyle=0;aspect=fixed;pointerEvents=1;shape=mxgraph.aws4.sagemaker_model;" vertex="1" parent="mIjLraYWU1ijbTPT-EfQ-4">
          <mxGeometry width="100" height="100" as="geometry" />
        </mxCell>
        <mxCell id="mIjLraYWU1ijbTPT-EfQ-6" value="Initial&lt;br&gt;Accompaniment&lt;br&gt;System" style="text;html=1;strokeColor=none;fillColor=none;align=center;verticalAlign=middle;whiteSpace=wrap;rounded=0;fontStyle=1" vertex="1" parent="mIjLraYWU1ijbTPT-EfQ-4">
          <mxGeometry y="110" width="106" height="40" as="geometry" />
        </mxCell>
        <mxCell id="mIjLraYWU1ijbTPT-EfQ-20" value="" style="group" vertex="1" connectable="0" parent="1">
          <mxGeometry x="245" y="730" width="675" height="600" as="geometry" />
        </mxCell>
        <mxCell id="mIjLraYWU1ijbTPT-EfQ-16" value="" style="shape=image;verticalLabelPosition=bottom;labelBackgroundColor=default;verticalAlign=top;aspect=fixed;imageAspect=0;image=data:image/png,iVBORw0KGgoAAAANSUhEUgAAAZAAAAJYCAYAAABM7LCIAAAAOXRFWHRTb2Z0d2FyZQBNYXRwbG90bGliIHZlcnNpb24zLjcuMCwgaHR0cHM6Ly9tYXRwbG90bGliLm9yZy88F64QAAAACXBIWXMAAA9hAAAPYQGoP6dpAABVvUlEQVR4nO3dfVxO9/8H8Ncl3dCtVHKX3CdEQlIRoxjm/n5zb5mw3H7NRpZhNMPM7dzO8jWMYUYsYgwj9zczt2Oj5K4Spbrevz98Oz+XMvpIJa/n43E96JxznfM513Wu8zqf8/mcc3QiIiAiIsqmQnldACIiej0xQIiISAkDhIiIlDBAiIhICQOEiIiUMECIiEgJA4SIiJQwQIiISAkDhIiIlDBAiIhICQOEiIiUMECIiEgJA4SIiJQwQIiISAkDhIiIlDBAiIhICQOEiIiUMECIiEgJA4SIiJQwQIiISAkDhIiIlDBAiIhICQOEiIiUMECIiEgJA4SIiJQwQIiISAkDhIiIlDBAiIhICQOEiIiUMECIiEgJA4SIiJQwQIiISAkDhIiIlDBAiIhICQOEiIiUMECIiEgJA4SIiJQwQIiISAkDhIiIlDBAiIhICQOEiIiUMECIiEgJA4SIiJQwQIiISAkDhIiIlDBAiIhICQOEiIiUMECIiEgJA4SIiJQwQPIhnU6HiRMnan8vX74cOp0OV65cyZH5Z8zv8OHDOTI/+n8TJ06ETqfL62K8VqKioqDT6RAVFZXXRaFsYoDksnnz5kGn08HT0zPH5nnlyhXodLoXeuVUCOWWjB1yxsvY2BjOzs4YNmwY7t27pzTP69evY+LEiTh27FiOllXFr7/+ii5duqB06dIwMTGBtbU1PD09ERoaitjY2LwuXo6aN28eli9fntfFoBxUOK8L8KYJDw+Hs7Mzfv/9d1y4cAGVKlV66Xna29tj5cqVBsNmzJiBv//+GzNnzsw07eto/vz5sLCwQFJSEiIjIzFnzhwcOXIEe/fuzfa8rl+/jk8//RTOzs6oXbt2zhf2BU2YMAGTJk1ChQoV0KdPH1SoUAHJycmIjo7GjBkzsGLFCly8eDHPypfT5s2bBzs7O/Tp08dgeKNGjfDw4UOYmJjkTcFIGQMkF12+fBm//fYb1q9fj8DAQISHhyMkJOSl52tubo53333XYNjq1atx9+7dTMNfloggOTkZRYoUydH5Pk+nTp1gZ2cHAAgMDES3bt3w/fff4/fff0f9+vVztSw54fvvv8ekSZPQpUsXrFy5MtPOc+bMmZnCPz/Jye2gUKFCMDMzy4FSUW7jKaxcFB4ejmLFiqFVq1bo1KkTwsPD87Q8KSkpGDFiBOzt7WFubo727dsjLi7OYBpnZ2e0bt0aERERqFu3LooUKYKFCxcCAO7du4fg4GCULVsWpqamqFSpEqZNmwa9Xm8wD71ej1mzZqF69eowMzNDiRIlEBgYiLt37yqX3dfXFwAMjtDv3LmDUaNGoWbNmrCwsICVlRVatmyJ48ePa9NERUWhXr16AIC+fftqp8aePLVy8OBBtGjRAtbW1ihatCgaN26Mffv2ZSrD3r17Ua9ePZiZmaFixYra5/IiJkyYADs7OyxZsiTLI29ra2uDdrAMW7duha+vL8zNzWFpaYlWrVrh9OnTBtP06dMHFhYW+Oeff9CuXTtYWFjA3t4eo0aNQnp6usG0L/rd/Nt2sGzZMjRt2hQODg4wNTWFq6sr5s+fn+n9p0+fxu7du7XP3M/PD8Cz20DWrl0LDw8PFClSBHZ2dnj33Xfxzz//KK/r6tWr4eHhAUtLS1hZWaFmzZqYPXt2ps+YskEo17i4uEj//v1FRGTPnj0CQH7//fdM0wGQkJAQ7e9ly5YJALl8+fILL6tVq1ZSrly5LMdlzM/d3V2aNm0qc+bMkZEjR4qRkZF06dLFYNpy5cpJpUqVpFixYjJ27FhZsGCB7Nq1S5KSksTNzU2KFy8u48aNkwULFkivXr1Ep9PJhx9+aDCPAQMGSOHChWXgwIGyYMEC+c9//iPm5uZSr149efTo0b+uR0hIiACQuLg4g+GjRo0SALJ161Zt2KFDh6RixYoyduxYWbhwoYSGhkrp0qXF2tpa/vnnHxERiYmJkdDQUAEg77//vqxcuVJWrlwpFy9eFBGRyMhIMTExES8vL5kxY4bMnDlT3NzcxMTERA4ePKgt68SJE1KkSBFxcnKSqVOnyqRJk6REiRLi5uYmz/tZnTt3TgDIgAED/nW6p3377bei0+mkRYsWMmfOHJk2bZo4OzuLjY2NwbbRu3dvMTMzk+rVq0u/fv1k/vz50rFjRwEg8+bNM5jni343z9oORETq1asnffr0kZkzZ8qcOXPE399fAMjXX3+tvX/Dhg1SpkwZcXFx0T7z7du3i4jIrl27BIA2P5H/30br1asnM2fOlLFjx0qRIkXE2dlZ7t69m+113b59uwCQt956S+bOnStz586VIUOGSOfOnbP1HZAhBkguOXz4sACQHTt2iIiIXq+XMmXKZNrZiuRegDRr1kz0er02fPjw4WJkZCT37t3ThpUrV04AyLZt2wzmMWnSJDE3N5c///zTYPjYsWPFyMhIrl69KiIiv/76qwCQ8PBwg+m2bduW5fCnZQTIuXPnJC4uTq5cuSJLly6VIkWKiL29vSQlJWnTJicnS3p6usH7L1++LKamphIaGqoNO3TokACQZcuWGUyr1+ulcuXKEhAQYPC5PHjwQMqXLy/NmzfXhrVr107MzMzkr7/+0oadOXNGjIyMnhsgGzduFAAya9asTMuPi4szeKWmpoqISGJiotjY2MjAgQMN3hMTEyPW1tYGw3v37i0ADNZZRMTd3V08PDy0v7Pz3TxrO8j4fJ4WEBAgFSpUMBhWvXp1ady4caZpnw6QR48eiYODg9SoUUMePnyoTffTTz8JAJkwYUK21/XDDz8UKysrSUtLy7R8UsdTWLkkPDwcJUqUQJMmTQA87qrbtWtXrF69OlNVO7e8//77Bl1OfX19kZ6ejr/++stguvLlyyMgIMBg2Nq1a+Hr64tixYrh1q1b2qtZs2ZIT0/Hnj17tOmsra3RvHlzg+k8PDxgYWGBXbt2vVBZq1atCnt7ezg7O6Nfv36oVKkStm7diqJFi2rTmJqaolChx5t0eno6bt++DQsLC1StWhVHjhx57jKOHTuG8+fPo0ePHrh9+7ZW1qSkJLz11lvYs2cP9Ho90tPTERERgXbt2sHJyUl7f7Vq1TJ9TllJSEgAAFhYWBgMj4+Ph729vcEro6fYjh07cO/ePXTv3t3gczQyMoKnp2eWn+OgQYMM/vb19cWlS5e0v7P73WS1HQAwaAeJj4/HrVu30LhxY1y6dAnx8fHP/TyedvjwYdy8eRODBw82aBtp1aoVXFxcsGXLlmyvq42NDZKSkrBjx45sl4eejY3ouSA9PR2rV69GkyZNcPnyZW24p6cnZsyYgcjISPj7++d6uZ7c+QFAsWLFACDT+e/y5ctneu/58+dx4sSJZ/bqunnzpjZdfHw8HBwc/nW65/nhhx9gZWWFuLg4fPXVV7h8+XKmBly9Xo/Zs2dj3rx5uHz5skEwFy9e/LnLOH/+PACgd+/ez5wmPj4eKSkpePjwISpXrpxpfNWqVfHzzz//63IsLS0BAPfv3zcYbmFhoe3gtm/fjrCwsExla9q0aZbztLKyMvjbzMws03dTrFgxg+82u99NVtsBAOzbtw8hISHYv38/Hjx4YDAuPj4e1tbWWb7vWTIOYKpWrZppnIuLS6aedy+yroMHD8aaNWvQsmVLlC5dGv7+/ujSpQtatGiRrbKRIQZILti5cydu3LiB1atXY/Xq1ZnGh4eH50mAGBkZZTlcRAz+zqqnjV6vR/PmzTFmzJgs51GlShVtOgcHh2d2GHjRbsWNGjXSemG1adMGNWvWRM+ePREdHa3VOqZMmYLx48ejX79+mDRpEmxtbVGoUCEEBwdnatjPSsY0YWFhz+zea2FhgZSUlBcq87O4uLgAAE6dOmUwvHDhwmjWrBkA4O+//86ybCtXroSjo2OmeRYubPhTftZ3+/Q8s/PdZLUdXLx4EW+99RZcXFzw5ZdfomzZsjAxMcHPP/+MmTNnvtDn/rJeZF0dHBxw7NgxREREYOvWrdi6dSuWLVuGXr16YcWKFa+8jAUVAyQXhIeHw8HBAXPnzs00bv369diwYQMWLFiQ611jX0bFihVx//59bYf3b9P98ssv8Pb2zrH1s7CwQEhICPr27Ys1a9agW7duAIB169ahSZMmWLJkicH09+7d08IHwDOvFK9YsSKAx0fz/7Ze9vb2KFKkiFYreNK5c+eeW/6qVauicuXK+PHHHzFr1iyYm5s/9z0ZZXNwcHjuZ/6icuK72bx5M1JSUrBp0yaDGm1Wp9Re9Ar9cuXKAXj8WT5d4zp37pw2PrtMTEzQpk0btGnTBnq9HoMHD8bChQsxfvz4HLke603ENpBX7OHDh1i/fj1at26NTp06ZXoNGTIEiYmJ2LRpU14XNVu6dOmC/fv3IyIiItO4e/fuIS0tTZsuPT0dkyZNyjRdWlqa8tXkPXv2RJkyZTBt2jRtmJGRUaba09q1azN1/czYYT+9bA8PD1SsWBFffPFFptNLALQuzkZGRggICMCPP/6Iq1evauPPnj2b5eeRlYkTJ+LWrVsYOHAgUlNTM41/ej0CAgJgZWWFKVOmZDn9092vX0ROfDcZR/9Pljc+Ph7Lli3LNK25ufkLzbNu3bpwcHDAggULDGp7W7duxdmzZ9GqVavnzuNpt2/fNvi7UKFCcHNzA4CXrlG+yVgDecU2bdqExMREvPPOO1mOb9CgAezt7REeHo6uXbvmcunUjR49Gps2bULr1q3Rp08feHh4ICkpCSdPnsS6detw5coV2NnZoXHjxggMDMTUqVNx7Ngx+Pv7w9jYGOfPn8fatWsxe/ZsdOrUKdvLNzY2xocffojRo0dj27ZtaNGiBVq3bo3Q0FD07dsXDRs2xMmTJxEeHo4KFSoYvLdixYqwsbHBggULYGlpCXNzc3h6eqJ8+fJYvHgxWrZsierVq6Nv374oXbo0/vnnH+zatQtWVlbYvHkzAODTTz/Ftm3b4Ovri8GDByMtLQ1z5sxB9erVceLEieeWv0ePHjh16hSmTp2K33//Hd26dUP58uWRlJSEU6dO4b///S8sLS21dikrKyvMnz8f7733HurUqYNu3brB3t4eV69exZYtW+Dt7Y2vv/46W59hTnw3/v7+2pF9YGAg7t+/j2+++QYODg64ceOGwbQeHh6YP38+PvvsM1SqVAkODg5ZtukYGxtj2rRp6Nu3Lxo3bozu3bsjNjYWs2fPhrOzM4YPH56t9QSAAQMG4M6dO2jatCnKlCmDv/76C3PmzEHt2rVRrVq1bM+P/idvO4EVfG3atBEzMzOD7qZP69OnjxgbG8utW7dEJPe68R46dMhgeFb98cuVKyetWrXKcj6JiYny0UcfSaVKlcTExETs7OykYcOG8sUXX2S6vmPRokXi4eEhRYoUEUtLS6lZs6aMGTNGrl+//q/r8azrQERE4uPjxdraWusampycLCNHjpSSJUtKkSJFxNvbW/bv3y+NGzfO1H1048aN4urqKoULF87Upffo0aPSoUMHKV68uJiamkq5cuWkS5cuEhkZaTCP3bt3i4eHh5iYmEiFChVkwYIFWnlfVFRUlHTq1ElKliwpxsbGYmVlJXXr1pWQkBC5ceNGpul37dolAQEBYm1tLWZmZlKxYkXp06ePHD58WJumd+/eYm5u/szP8mkv8t3823awadMmcXNzEzMzM3F2dpZp06bJ0qVLM22zMTEx0qpVK7G0tBQA2neS1XYnIvL999+Lu7u7mJqaiq2trfTs2VP+/vtvg2ledF3XrVsn/v7+4uDgICYmJuLk5CSBgYFZfsb04nQiT9WViYiIXgDbQIiISAkDhIiIlDBAiIhICQOEiKgAePrhazqdTrtoFQCSk5MRFBSE4sWLw8LCAh07djR4aNmdO3fQpk0bWFhYwN3dHUePHjWYf1BQEGbMmGEwjAFCRFRAVK9eHTdu3NBeT972Zfjw4di8eTPWrl2L3bt34/r16+jQoYM2fvLkyUhMTMSRI0fg5+eHgQMHauMOHDiAgwcPIjg42GB5vA6EiKiAKFy4cJa3uomPj8eSJUuwatUq7dqbZcuWoVq1ajhw4AAaNGiAs2fPolu3bqhSpQref/99LFq0CACQmpqKQYMGYfHixZluG1MgAkSv1+P69euwtLR84dslEBHlZyKC27dva/d0y2BqagpTU9Ms33P+/HmUKlUKZmZm8PLywtSpU+Hk5ITo6GikpqYa3AbHxcUFTk5O2L9/Pxo0aIBatWph586dGDBgACIiIrQr9adPnw4/Pz/UrVs3y0K+9q5duyYA+OKLL74K/OvJi4yf9PPPP8uaNWvk+PHjsm3bNvHy8hInJydJSEiQ8PBwMTExyfSeevXqyZgxY0RE5N69e9K9e3dxcnKSRo0ayenTp+XPP/+UypUry61btyQwMFDKly8vnTt31p4ZVCBqIBm3x7527Vqm21oTEb2OEhISULZsWVy9etXglvjPqn20bNlS+7+bmxs8PT1Rrlw5rFmz5oVulmltbY1Vq1YZDGvatCnCwsIQHh6OS5cu4dy5cxg4cCBCQ0MxY8aMgnEKK+O0lZWVFQOEiAoUa2trpf2ajY0NqlSpggsXLqB58+Z49OgR7t27BxsbG22a2NjYLNtMgMdtJDY2Nmjbti06dOiAdu3awdjYGJ07d8aECRMAsBcWEVGBdP/+fVy8eBElS5aEh4cHjI2NERkZqY0/d+4crl69Ci8vr0zvjYuLQ2hoKObMmQPg8UPxMu4CnZqaqj2srUDUQIiI3nSjRo1CmzZtUK5cOVy/fh0hISEwMjJC9+7dYW1tjf79+2PEiBGwtbWFlZUVhg4dCi8vLzRo0CDTvIKDgzFy5EiULl0aAODt7Y2VK1fC398fixYtgre3NwAGCBFRgfD333+je/fuuH37Nuzt7eHj44MDBw5oT5acOXMmChUqhI4dOyIlJQUBAQGYN29epvlERETgwoULWLlypTZsyJAhOHz4MDw9PVG/fn2EhIQAAArE3XgTEhJgbW2N+Ph4toEQUYHwOuzX2AZCRERKGCBERKSEAUJEREoYIEREpIQBQkREShggRESkhAFCRERKGCBERKSEAUJEREoYIEREpIQBQkREShggRESkhAFCRERKGCBERKSEAUJEREoYIEREpIQBQkREShggRESkhAFCRERKGCBERKSEAUJEREoYIEREpIQBQkREShggRESkhAFCRERKGCBERKSEAUJEREoYIEREpIQBQkREShggRESkhAFCRERKGCBERKSEAUJEREoYIEREpIQBQkREShggRESkhAFCRERKGCBERKSEAUJEREoYIEREpIQBQkREShggRESkhAFCRERKGCBERKSEAUJEREoYIEREpIQBQkREShggRESkhAFCRERKGCBERKSEAUJEREoYIEREpIQBQkREShggRESkhAFCRERKGCBERKSEAUJEREoYIEREpIQBQkREShggRESkhAFCRERKGCBERKSEAUJEREoYIEREpIQBQkREShggRESkhAFCRERKGCBERKSEAUJEREoYIEREpIQBQkREShggRESkhAFCRERKGCBERKSEAUJEREoYIEREpIQBQkREShggRESkhAFCRERKGCBERKSEAUJEREoYIEREBcznn38OnU6H4OBgbVhycjKCgoJQvHhxWFhYoGPHjoiNjdXG37lzB23atIGFhQXc3d1x9OhRg3kGBQVhxowZBsMYIEREBcihQ4ewcOFCuLm5GQwfPnw4Nm/ejLVr12L37t24fv06OnTooI2fPHkyEhMTceTIEfj5+WHgwIHauAMHDuDgwYMGgQQwQIiICoz79++jZ8+e+Oabb1CsWDFteHx8PJYsWYIvv/wSTZs2hYeHB5YtW4bffvsNBw4cAACcPXsW3bp1Q5UqVfD+++/j7NmzAIDU1FQMGjQICxYsgJGRkcHyGCBERPlYQkKCwSslJeWZ0wYFBaFVq1Zo1qyZwfDo6GikpqYaDHdxcYGTkxP2798PAKhVqxZ27tyJtLQ0REREaDWY6dOnw8/PD3Xr1s20PAYIEVE+VrZsWVhbW2uvqVOnZjnd6tWrceTIkSzHx8TEwMTEBDY2NgbDS5QogZiYGADA2LFjUbhwYVSsWBEbNmzAkiVLcP78eaxYsQLjx4/HoEGDUKFCBXTp0gXx8fEAgMI5u6pERJSTrl27BisrK+1vU1PTLKf58MMPsWPHDpiZmSktx9raGqtWrTIY1rRpU4SFhSE8PByXLl3CuXPnMHDgQISGhmLGjBmsgRAR5WdWVlYGr6wCJDo6Gjdv3kSdOnVQuHBhFC5cGLt378ZXX32FwoULo0SJEnj06BHu3btn8L7Y2Fg4Ojpmudxly5bBxsYGbdu2RVRUFNq1awdjY2N07twZUVFRAFgDISJ67b311ls4efKkwbC+ffvCxcUF//nPf1C2bFkYGxsjMjISHTt2BACcO3cOV69ehZeXV6b5xcXFITQ0FHv37gUApKenIzU1FcDjRvX09HQADBAioteepaUlatSoYTDM3NwcxYsX14b3798fI0aMgK2tLaysrDB06FB4eXmhQYMGmeYXHByMkSNHonTp0gAAb29vrFy5Ev7+/li0aBG8vb0BMECIiN4IM2fORKFChdCxY0ekpKQgICAA8+bNyzRdREQELly4gJUrV2rDhgwZgsOHD8PT0xP169dHSEgIAEAnIpJra/CKJCQkwNraGvHx8QaNTUREr6vXYb/GRnQiIlLCACEiIiUMECIiUsIAISIiJQwQIiJSwgAhIiIlDBAiIlLCACEiIiUMECIiUsIAISIiJQwQIiJSwgAhIiIlDBAiIlLCACEiIiUMECIiUsIAISIiJQwQIiJSwgAhIiIlDBAiIlLCACEiIiUMECIiUsIAISIiJQwQIiJSwgAhIiIlDBAiIlLCACEiIiUMECIiUsIAISIiJQwQIiJSwgAhIiIlDBAiIlLCACEiIiUMECIiUsIAISIiJQwQIiJSwgAhIiIlDBAiIlLCACEiIiUMECIiUsIAISIiJQwQIiJSwgAhIiIlDBAiIlLCACEiIiUMECIiUsIAISIiJQwQIiJSwgAhIiIlDBAiIlLCACEiIiUMECIiUsIAISIiJQwQIiJSwgAhIiIlDBAiIlLCACEiIiUMECIiUsIAISIiJQwQIiJSwgAhIiIlDBAiIlLCACEiIiUMECIiUsIAISIiJQwQIiJSwgAhIiIlDBAiIlLCACEiIiUMECIiUsIAISIiJQwQIiJSwgAhIiIlDBAiIlLCACEiIiUMECIiUsIAISIiJQwQIiJSwgAhIiIlDBAiIlLCACEiIiUMECIiUsIAISIqAObPnw83NzdYWVnBysoKXl5e2Lp1qzY+OTkZQUFBKF68OCwsLNCxY0fExsZq4+/cuYM2bdrAwsIC7u7uOHr0qMH8g4KCMGPGDINhDBAiogKgTJky+PzzzxEdHY3Dhw+jadOmaNu2LU6fPg0AGD58ODZv3oy1a9di9+7duH79Ojp06KC9f/LkyUhMTMSRI0fg5+eHgQMHauMOHDiAgwcPIjg42GCZOhGRXFm7VyghIQHW1taIj4+HlZVVXheHXgNzB+3Ms2UHLWiaZ8um10dO7NdsbW0RFhaGTp06wd7eHqtWrUKnTp0AAH/88QeqVauG/fv3o0GDBnj77bfxzjvvYNCgQTh79izq1q2LpKQkpKamol69eli8eDHq1q1rMH/WQIiICpj09HSsXr0aSUlJ8PLyQnR0NFJTU9GsWTNtGhcXFzg5OWH//v0AgFq1amHnzp1IS0tDREQE3NzcAADTp0+Hn59fpvAAGCBERPlaQkKCwSslJeWZ0548eRIWFhYwNTXFoEGDsGHDBri6uiImJgYmJiawsbExmL5EiRKIiYkBAIwdOxaFCxdGxYoVsWHDBixZsgTnz5/HihUrMH78eAwaNAgVKlRAly5dEB8fD4ABQkSUr5UtWxbW1tbaa+rUqc+ctmrVqjh27BgOHjyIDz74AL1798aZM2deaDnW1tZYtWoV/vrrL+zevRuurq4IDAxEWFgYwsPDcenSJZw7dw5FixZFaGgoAKBwjqwhERG9EteuXTNoAzE1NX3mtCYmJqhUqRIAwMPDA4cOHcLs2bPRtWtXPHr0CPfu3TOohcTGxsLR0THLeS1btgw2NjZo27YtOnTogHbt2sHY2BidO3fGhAkTADBAiIjytYxuuSr0ej1SUlLg4eEBY2NjREZGomPHjgCAc+fO4erVq/Dy8sr0vri4OISGhmLv3r0AHreppKamAgBSU1ORnp4OgAFCRFQgfPTRR2jZsiWcnJyQmJiIVatWISoqChEREbC2tkb//v0xYsQI2NrawsrKCkOHDoWXlxcaNGiQaV7BwcEYOXIkSpcuDQDw9vbGypUr4e/vj0WLFsHb2xsAA4SIqEC4efMmevXqhRs3bsDa2hpubm6IiIhA8+bNAQAzZ85EoUKF0LFjR6SkpCAgIADz5s3LNJ+IiAhcuHABK1eu1IYNGTIEhw8fhqenJ+rXr4+QkBAAvA6E3lC8DoTyu9dhv8ZeWEREpIQBQkREShggRESkhAFCRERKGCBERKSEAUJEREoYIEREpIQBQkREShggRESkhAFCRERKGCBERKSEAUJEREoYIEREpIQBQkRESvg8EKI3CG9jTzmJNRAiIlLCACEiIiUMECIiUsIAISIiJQwQIiJSwgAhIiIlDBAiIlLCACEiIiUMECIiUsIAISIiJQwQIiJSwgAhIiIlDBAiIlLCu/HSG6lpVFAeLv1sHi6bKOewBkJEREoYIEREpIQBQkREShggRESkhAFCRERKGCBERKSEAUJEREoYIEREpIQBQkREShggRESkhAFCRERKGCBERKSEAUJEREoYIEREpIQBQkREShggRESkhAFCRERKGCBERKSEAUJEREr4THSiNwifBU85iTUQIiJSwgAhIiIlDBAiIlLCACEiIiUMECIiUsIAISIiJQwQIiJSwgAhIiIlDBAiIlLCACEiIiUMECIiUsIAISIiJQwQIiJSwgAhIiIlDBAiIlLCACEiIiUMECIiUsIAISIiJQwQIiJSwgAhIiIlDBAiIlLCACEiIiUMECIiUsIAISIiJQwQIiJSUjivC0CUF7p8lHeb/sk8WzJRzmINhIiIlDBAiIhICQOEiIiUMECIiEgJA4SIiJQwQIiISAkDhIiIlDBAiIgKgKlTp6JevXqwtLSEg4MD2rVrh3PnzhlMk5ycjKCgIBQvXhwWFhbo2LEjYmNjtfF37txBmzZtYGFhAXd3dxw9etTg/UFBQZgxY4b2NwOEiKgA2L17N4KCgnDgwAHs2LEDqamp8Pf3R1JSkjbN8OHDsXnzZqxduxa7d+/G9evX0aFDB2385MmTkZiYiCNHjsDPzw8DBw7Uxh04cAAHDx5EcHCwNoxXohMRFQDbtm0z+Hv58uVwcHBAdHQ0GjVqhPj4eCxZsgSrVq1C06ZNAQDLli1DtWrVcODAATRo0ABnz55Ft27dUKVKFbz//vtYtGgRACA1NRWDBg3C4sWLYWRkpC2DNRAionwsISHB4JWSkvJC74uPjwcA2NraAgCio6ORmpqKZs2aadO4uLjAyckJ+/fvBwDUqlULO3fuRFpaGiIiIuDm5gYAmD59Ovz8/FC3bl2DZTBAiIjysbJly8La2lp7TZ069bnv0ev1CA4Ohre3N2rUqAEAiImJgYmJCWxsbAymLVGiBGJiYgAAY8eOReHChVGxYkVs2LABS5Yswfnz57FixQqMHz8egwYNQoUKFdClSxfEx8fzFBYRUX527do1WFlZaX+bmpo+9z1BQUE4deoU9u7dm61lWVtbY9WqVQbDmjZtirCwMISHh+PSpUs4d+4cBg4ciNDQUNZAiIjyMysrK4PX8wJkyJAh+Omnn7Br1y6UKVNGG+7o6IhHjx7h3r17BtPHxsbC0dExy3ktW7YMNjY2aNu2LaKiotCuXTsYGxujc+fOiIqKYoAQERUEIoIhQ4Zgw4YN2LlzJ8qXL28w3sPDA8bGxoiMjNSGnTt3DlevXoWXl1em+cXFxSE0NBRz5swBAKSnpyM1NRXA40b19PR0nsIiIioIgoKCsGrVKmzcuBGWlpZau4a1tTWKFCkCa2tr9O/fHyNGjICtrS2srKwwdOhQeHl5oUGDBpnmFxwcjJEjR6J06dIAAG9vb6xcuRL+/v5YtGgRvL29WQMhIioI5s+fj/j4ePj5+aFkyZLa6/vvv9emmTlzJlq3bo2OHTuiUaNGcHR0xPr16zPNKyIiAhcuXMDgwYO1YUOGDEGFChXg6emJR48eISQkBDoRkVxZu1coISEB1tbWiI+PN2hsInqWmitq5tmyT/bOu2cSnnWplmfLrvbH2Txb9uvoddiv8RQW0RuEj/KlnMRTWEREpIQBQkREShggRESkhAFCRERKGCBERKSEAUJEREoYIEREpIQBQkREShggRESkhAFCRERKGCBERKSEAUJEREp4M8U33NxBO/Ns2UELmubZsono5bEGQkREShggRESkhAFCRERKGCBERKSEAUJEREoYIEREpIQBQkREShggRESkhAFCRERKGCBERKSEAUJEREoYIEREpIQBQkREShggRESkhAFCRERKGCBERKSEAUJEREoYIEREpIQBQkREShggRESkhAFCRERKCud1AShvNY0KysOln83DZRPRy2INhIiIlDBAiIhICQOEiIiUMECIiEgJA4SIiJQwQIiISAkDhIiIlDBAiIhICQOEiIiUMECIiEgJA4SIiJQwQIiISAkDhIiIlDBAiIhICQOEiIiUMECIiEgJA4SIiJTwiYREVODNHbQzz5YdtKBpni37VWMNhIiIlDBAiIhICQOEiIiUMECIiEgJA4SIiJSwFxa9kU5evprXRSB67bEGQkRESlgDecN1+SjvNoGTebZkIsoJrIEQEZESBggRESlhgBARkRIGCBERKWGAEBGREgYIEREpYYAQEZESBggRESlhgBARkRIGCBERKeGtTIjeILyJJOUk1kCIiEgJA4SIiJQwQIiISAkDhIiIlDBAiIhICQOEiIiUMECIiEgJA4SIiJTwQkIiKvCaRgXl4dLP5spS9uzZg7CwMERHR+PGjRvYsGED2rVrp40XEYSEhOCbb77BvXv34O3tjfnz56Ny5coAgJSUFAwYMAAbN26Eo6Mj5s2bh2bNmmnvDwsLw9WrVzFnzhxtGAPkf+YO2plnyw5a0DTPlk1EBUNSUhJq1aqFfv36oUOHDpnGT58+HV999RVWrFiB8uXLY/z48QgICMCZM2dgZmaGRYsWITo6Gvv378fWrVvRo0cPxMbGQqfT4fLly/jmm29w+PBhg3kyQIiICoCWLVuiZcuWWY4TEcyaNQuffPIJ2rZtCwD49ttvUaJECfz444/o1q0bzp49i3feeQfVq1dHhQoVMHr0aNy6dQv29vb44IMPMG3aNFhZWRnMl20gREQF3OXLlxETE2NwSsra2hqenp7Yv38/AKBWrVrYu3cvHj58iIiICJQsWRJ2dnYIDw+HmZkZ2rdvn2m+rIEQEeVjCQkJBn+bmprC1NQ0W/OIiYkBAJQoUcJgeIkSJbRx/fr1w4kTJ+Dq6go7OzusWbMGd+/exYQJExAVFYVPPvkEq1evRsWKFbF06VKULl2aNRAiovysbNmysLa21l5Tp059JcsxNjbG3LlzcfnyZRw6dAg+Pj4YOXIkhg0bhqNHj+LHH3/E8ePH0aBBAwwbNgwAayBERPnatWvXDNoeslv7AABHR0cAQGxsLEqWLKkNj42NRe3atbN8z65du3D69GksXrwYo0ePxttvvw1zc3N06dIFX3/9NQC2gRAR5WtWVlYGL5UAKV++PBwdHREZGakNS0hIwMGDB+Hl5ZVp+uTkZAQFBWHhwoUwMjJCeno6UlNTAQCpqalIT08HwAAhIioQ7t+/j2PHjuHYsWMAHjecHzt2DFevXoVOp0NwcDA+++wzbNq0CSdPnkSvXr1QqlQpg2tFMkyaNAlvv/023N3dAQDe3t5Yv349Tpw4ga+//hre3t4AeAqLiKhAOHz4MJo0aaL9PWLECABA7969sXz5cowZMwZJSUl4//33ce/ePfj4+GDbtm0wMzMzmM+pU6ewZs0aLYgAoFOnToiKioKvry+qVq2KVatWAWCAEBEVCH5+fhCRZ47X6XQIDQ1FaGjov86nRo0aOH/+vMGwQoUKYd68eZg3b57hcPXiEhHRm4wBQkREShggRESkhAFCRERKGCBERKSEAUJEREoYIEREpIQBQkREShggRESkhAFCRERKeCuT/2kaFZSHSz+bh8smIlLDGggRESlhDeQNd/Ly1bwuAtEr1+WjvNvVncyzJb96rIEQEZESBggRESlhgBARkRIGCBERKWGAEBGREgYIEREpYYAQEZESBggRESlhgBARkRIGCBERKWGAEBGREgYIEREpYYAQEZES3o33f3i3TiKi7GENhIiIlDBAiIhICQOEiIiUMECIiEgJA4SIiJQwQIiISAkDhIiIlDBAiIhICQOEiIiUMECIiEgJA4SIiJQwQIiISAkDhIiIlDBAiIhICQOEiIiUMECIiEgJA4SIiJQwQIiISAkfaUtEBd7Jy1fzuggFEmsgRESkhDWQ/+ERChFR9rAGQkREShggRESkhAFCRERK2AZCbyTn5FV5tuwrebZkopzFGggRESlhgBARkRKewiJ6g/DUHeUk1kCIiEgJA4SIiJQwQIiISAkDhIiIlDBAiIhICQOEiIiUMECIiEgJA4SIiJQwQIiISAmvRH/D8cpkIlLFGggRESlhgBARkRIGCBERKWGAEBGREgYIEREpYYAQEZESBggRESnhdSD/w+shiIiyhwFCRAUeDxBfDZ7CIiIiJQwQIiJSwgAhIiIlDBAiIlLCACEiIiUMECIiUsIAISIiJQwQIiJSwgAhIipA5s6dC2dnZ5iZmcHT0xO///67Nm7EiBGwtbVF2bJlER4ebvC+tWvXok2bNtlaFq9EJyIqIL7//nuMGDECCxYsgKenJ2bNmoWAgACcO3cOBw8exKpVq7B9+3acP38e/fr1Q0BAAOzs7BAfH4+PP/4Yv/zyS7aWxxoIEVEB8eWXX2LgwIHo27cvXF1dsWDBAhQtWhRLly7F2bNn4efnh7p166J79+6wsrLC5cuXAQBjxozBBx98ACcnp2wtr0DUQEQEAJCQkKA8D33Kg5wqTra9TLlfFtc793G9c9/ruN4Z74uPjzcYbmpqClNT00zTP3r0CNHR0fjoo4+0YYUKFUKzZs2wf/9+DB48GIsWLcLdu3dx6dIlPHz4EJUqVcLevXtx5MgRzJs3L/uFlALg2rVrAoAvvvjiq8C/QkJCstwP/vPPPwJAfvvtN4Pho0ePlvr164uISEhIiFSsWFFq1Kgh69evl5SUFKlRo4YcPnxY5syZI1WqVJGGDRvKqVOnXmjfWyBqIKVKlcK1a9dgaWkJnU6Xq8tOSEhA2bJlce3aNVhZWeXqsvMS15vr/SbIy/UWEdy+fRu2trYoVOj/Wxuyqn28qIkTJ2LixIna359++imaNWsGY2NjfPbZZzh58iR++ukn9OrVC9HR0c+dX4EIkEKFCqFMmTJ5WgYrK6s36oeVgev9ZuF65y5ra+sXntbOzg5GRkaIjY01GB4bGwtHR8dM0//xxx/47rvvcPToUSxduhSNGjWCvb09unTpgn79+iExMRGWlpb/ukw2ohMRFQAmJibw8PBAZGSkNkyv1yMyMhJeXl4G04oIAgMD8eWXX8LCwgLp6elITU0FAO3f9PT05y6zQNRAiIjo8XUevXv3Rt26dVG/fn3MmjULSUlJ6Nu3r8F0ixcvhr29vXbdh7e3NyZOnIgDBw5g69atcHV1hY2NzXOXxwB5SaampggJCXmp85KvI6431/tN8Lqtd9euXREXF4cJEyYgJiYGtWvXxrZt21CiRAltmtjYWEyePBm//fabNqx+/foYOXIkWrVqBQcHB6xYseKFlqcT+V8fWCIiomxgGwgRESlhgBARkRIGCBERKWGAEBGREgYIEREpYYAQ5SB2aqQ3CQOE8oRer8/rIuQovV6P9PT0TPdiK6iBUtC+v9ywY8cO3L59O6+LkaMYIDmIP6oX9+TN4V53IoJChQrByMgIFy5cwJw5cxAZGYmkpKRcv7lnbsn4/lJSUvK4JPlPVgcNf/31FwICAnDt2jUABWdfUXB+xXno77//BmC4UyyoR545RUQwfvx4bNq0Sfv7daXT6aDX6zFixAi4u7tjw4YN6NevHzp06IB9+/bldfFemenTp2PYsGEAXuy+SQXVnTt3sHLlSty/fx8AMh006PV6FC1aFPXr18ehQ4cAFJwDqIKxFnlowIABGDZsGFJSUrBv3z4MHDgQQOaN6E2W1c7l+vXr2L59O/78808Ar//ntXHjRuzcuRO7d+/Gzp07ceHCBRw8eBAzZ87EzZs387p4L+Xpo+WMsE9LS8OePXsAAEZGRrlervxi+/bt6N27t8Gzx9etW4f9+/cDeBwWRYsWRWpqqvZZsgbyhsv4EfXs2ROHDh1Cw4YN0bRpUxQtWrTAbBwvK+NzyGrnUrp0aQD//9S11+EIVkQylTM9PR0igg0bNqBTp06oU6cOtmzZAh8fHxQrVgx9+vSBg4NDHpX45YiIdnoOeHykDfx/2Nva2sLBwQFXr17NszLmhSdryyKCbt26oUGDBpgxYwYSEhJw5swZTJkyBd26dcPx48fx6NEjmJubo0KFCtiyZQsA1kDeWBk7xYyNKD4+Hjdv3sTVq1exefNmzJ49u8BsHC/jyR3PvXv30LFjRyxatAi3bt3SpgkICMD27dsBvB5HsDqdDkZGRoiLi8ORI0eg1+thZGQEnU6H27dv4/Lly+jTpw/effddBAQE4Pjx42jdujWSk5Px4EHePVJVhYhAp9NBp9MhNjYW48ePR/fu3REVFaVN4+rqiiNHjqBo0aJ5V9A8oNPp8PDhQ+3/ADB//nxs3boVGzduhKurK3bu3AkfHx+89957mDt3LgDAy8sL6enpBaohnXu6F6TX66HX67WdYsaGU6lSJSxfvhxFihTB8ePHtfOgr/M5/ZeRsd4Zn0+/fv0wffp02NvbY8mSJfjggw+0aYsXLw4LC4t8fYono8aRsV4TJ05E+fLl0alTJ3Tt2hXnz58HALz99ttYuXIl4uLi8OeffyI0NBRWVla4ceMGPv/8c1y6dCnP1kFFxvf3ySefoHPnzjA1NUWFChXQsWNHbN68GY8ePUL9+vVRqlQpbNu2LY9Lm3v0ej3mzJmDHj16AAASExOxZs0a1KpVC++99x6mTJmCixcvwsbGBt999x26d++OsLAwzJ49Gw8fPsTNmzef+5Cm18oLPfj2DafX67X/Hz9+XD744AMZN26c/Prrr5KYmCgiIsOGDZPatWtLVFRUXhUzX4mOjpYtW7ZI/fr1Zf/+/SIisn37dqlUqZK0bdtWzp49K8eOHRNzc3NJSkrK49JmLT093eDva9euSdu2bWXPnj2yZcsWcXZ2lsDAQLl165YcO3ZMPD09pXPnziIikpqaKklJSfLxxx9L/fr15ffff8+LVVC2Z88eWb58ubRp00Z+/fVXSU1NFRGR999/X7y8vGT06NGSkJAg3t7esnjx4jwube6aP3++VK1aVXr27Ck6nU769esnIiIJCQliamoqoaGhBtv0Dz/8IO7u7tK0aVPR6XRy5syZvCp6jmOAPMODBw9k27ZtIiLy6NEj0ev1MmHCBDEzM5MePXpInTp1pGrVqtK/f38REYmPj5cqVarIsGHD5ObNmwbzejKAChq9Xp9p/bZt2yY6nU5q1qwpW7duNRh3/vx5adu2rbi6usrKlSulevXqsnHjxtws8nOlpaVp///111/l7bfflv79+8tHH30kEydO1MYtWbJE3N3d5ZtvvhERkQ0bNoi1tbVUr15dunfvLuXLlxcXFxf57bffcn0dXpRer9eCMuN7vHv3rlhZWYmNjY1MmDBBRESSk5NFROT+/fvy008/iZmZmYSFhYmjo6OMHTtWRDIHbkGRnp5usG5btmwRnU4nFhYW8tNPP2nTiIhMnTpVbG1t5fDhwwbz+OWXX6R79+6i0+lk8+bNuVf4V4wBkoX09HT54osvRKfTyd27d0VE5M8//5Q6derI6tWrRUQkMTFRli9fLmZmZrJhwwYREZkzZ45UqVJFFi5cKElJSTJkyBA5fvx4Hq3Fq5dxVCpiGJJxcXHSo0cPsba2lr/++ksbnvEju3nzpowcOVKKFi0qZmZmsn79+twr9Au6f/++REdHS5UqVaR///7SoEED0el0Mn78eG0avV4vHTp0kFatWsmpU6dEROTw4cMyb948GT16tCxdujSviv9CngzKjIDI+B4XLFggRkZGEhoaqk3z5Hf8448/SpcuXUSn08lbb70lDx8+zKVS564nP6O///5bLly4IFu2bJEPP/xQ3NzcZM6cOSIikpKSok1XtmxZ6du3r8THxxvMKzU1Vezs7LQDjoIQuAyQZ7h48aLUrl1bunfvLiIiUVFRUqhQIbl48aI2TUJCgvTv319cXFy0YZ06dRI3Nzext7eXMmXKyB9//FGgayAiIpMnT5aRI0fKtGnTJDY2VkREdu/eLcbGxvLtt9+KSNY/lgULFkiJEiXkP//5zzOnyQ1Pfz/Hjh2TevXqScOGDeXrr78WEZGYmBjp3Lmz+Pn5yaVLl7Rpd+zYIfXq1ZOJEye+Nt/zl19+KRcuXND+DgkJkSZNmkjPnj3lyy+/1IZ7enpK+/bttfV9ev1u3rwp7dq1kzp16khycvJrs/7Z9ejRIxk4cKDY29vL1KlT5caNG/LgwQMtRP7++28RES1Ef/zxRzEzMzOofWcETPv27eX999/P/ZV4RRggInLlyhVZsGCBwbnJtLQ0CQ8PF51OJ0eOHJHo6GhxdXWVn3/+2eC9P/74o7i4uMjRo0dFROTWrVuyZ88e+eWXX5673Fu3buXoeuSWjB3F4cOHpUKFClKzZk355JNPpGrVqtK+fXutHah///5Srly5TO/PCIqkpCQZPXq0dOjQwaA2k1uePjWR4c8//5QePXqIhYWFQQ3yhx9+EG9vb/nkk08Mpu/Tp4+4u7u/FrXN2NhYMTExkTlz5khaWprUq1dPqlevLkuXLpUJEyZIqVKlZNy4cSIismnTJildurQsWbIkUzhk/H306FEpWrSoXL9+PdfXJTfcuHFDGjVqJI0bN5bdu3fLhQsXtG01MjJSGjZsKEOGDBERwwMgd3d3qVu3rkEtJCUlRapXry5LlizJ3ZV4hd74ALlz545UqlRJdDqdlCtXTjZt2iS3b98WkcdHWAEBAeLj4yPp6elSu3ZtGTNmjMGOf9myZeLg4PDCP6D09HS5deuWdOjQQUaOHPnaHLVltaMdOnSo1gYkIrJmzRoxNTWVwMBAERE5e/as2NnZyeTJkzPNI2O9Bw0aJJ06dXrmMl6VJ5d17tw5WbdunZw/f14btnHjRnF0dDRo80hLS5OhQ4dKo0aN5ODBg9rwS5cuGfydn12/fl0aNGggU6ZMkfDwcAkICNCOjv/44w9xcHCQOnXqaNt4u3btpHnz5nLixIks57d3716pXbu2/PHHH7m2Dq/Cs36HP/74o1SpUkU7RfmklJQUmTx5slSrVk12794tIiI//fST/P3333L9+nU5cuSINu3Dhw8lKChIypYtK5cvX34l65AX3vgAERGZMmWK1K9fX1xcXMTX11d8fHzk3LlzIvL4VIyRkZFERETImjVrxMXFRT7++GO5ffu2xMXFSa9evaRr164vdA44Li5O+3+vXr2kadOmEhkZ+crWK6clJSXJhg0bJDExUe7evStNmjSRffv2SWJiorz33ntiaWkpwcHBEhMTIyKPf5RhYWFiYmIiN27cyDS/uLg4qVOnjgwaNChXyp+WliaPHj3S/k5OTpa+ffuKubm5uLi4iKOjowwYMEBSU1Pl/v37MnLkSKlRo4bBD37//v3i5+en9bbKzzJC8ulg9vHxkaFDh8oXX3whvXv3FhGR3r17i4WFhQQFBck///yjTXv69GkpWbKkjBs3Th48eGAwn+TkZPH09BR3d3dJSEjIsgxZdbLIb/6t9hscHCxubm4Gw55cnzNnzkjbtm2lTJky4unpKWZmZgYHE09+9gWxlsYAkce9Ttq3by89e/aUY8eOSePGjaVy5cry6aefytWrV2XcuHFSsmRJERGZNWuW2NraSo0aNcTR0VGqV68uJ0+efO4yIiMjxcPDQ5YvXy4ijzc8T09PGTJkSKbGtvwgqx99WFiY2NraisjjMLGzs5MePXqIvb29+Pv7a6fxRB7veFJSUuTmzZtSqVIlWbFiRab5TZkyRfr27Ztpx/QqLFiwQAYMGCBbt27VftQzZ84UV1dX+eOPP+Svv/6SzZs3i4mJiUyaNEnS09Nl//794uPjk+mc9YQJEyQsLMyggfV5surt9Cp9//330rFjR7l69ao2LGNHOWHCBKlRo4YMHTpUGjRoIFZWVuLv7y+HDh3Spt2zZ492wDN48GCZOnVqpiC6fPmyjBs37pnb75M75rw4Rfk8T38Pc+fOle+++04OHDigDfvqq6/E2dlZazN68jPIaO+LiYmRKVOmyBdffJELpc5fGCD/s3r1avHw8NC65X377bdSpkwZ8fLykunTp0uxYsUkLCxMREROnTolmzZtylb303Pnzknr1q2lc+fOcufOHRER+eyzz6R+/fqyatWqnF+hl/D0DytjR3no0CEpVaqU1kVxzJgxotPp5IcffjCYfs+ePTJy5EjtR5dxrUyGjB/hk7WBV2X79u3i7OwsNWrUkBEjRsimTZvk4cOH8vDhQ2nUqFGm89dTp06VcuXKyYkTJyQtLU3CwsLE1dVVduzYoc3zRcut1+slLS1Nvv76a+2oPqNL+KsWGRkpNWrUkJo1a2a6Nmny5MnSokULWbhwoRQvXlwGDx5sMP769evSvXt3rQPEy5Q3JSVFPvroIwkMDJSvv/5aOxWUn3ogrVq1ShwdHcXNzU3q1asn5ubmsm7dOhF53P3W29tbhg8fbvCeQ4cOydy5c7XT3U/Kj2H5qjBA/ufRo0fSpUsXadWqldar4vjx4zJs2DApWbKk6HQ60el0ma7xyI7FixeLp6enzJgxQ0Qe13yaNWsmPXr0kCtXruTIeuSUf/75R+bMmaN1YxYROXjwoNSrV0/rSHDs2DGxsrKS//znP3LixAm5f/++bN26VerUqSO9evUyaCvKi1MZUVFRUqNGDZk6dao8fPhQ66qawcPDQ0aMGCEiht0w7ezsZObMmSLyuJHYx8dHu1gsu65cuSI6nU6++eYbmTZtmhQuXFj++9//qq1QNsXHx0vDhg2latWqsnDhQm343r17pXDhwhIXFyfdunWTevXqyaxZs+T06dPy888/S506dcTPz09r18j43rK70//ll1/EwcFBGjVqJMHBweLv7y+urq4G21Rue7rWGBUVJb6+vlp3XBGRd999V1xdXeXEiROi1+tl2rRp4uDgIGPHjpWffvpJVq1aJRUqVJC+ffvK/fv3DeaX30/X5TQGyBMOHjwoXl5eMmnSJIPhW7ZskUaNGomXl5fcuXPnhTeSjB9cxkYbHx8vvXv3lrfeekvr8bVixQpxd3eXWbNm5eCavLy5c+dK5cqV5e2335Z79+5pw0uVKiXz58/X/l67dq24uLiIvb29+Pr6StGiRbWLz/LamDFjpHnz5s/cYU2aNEkqVaqkHRRk1Cx8fHzkgw8+0KZ7kVOUWcmYX7t27aRIkSJSqlSpXL/m5dKlSzJhwgQxMjKSKVOmSFxcnNy8eVOcnZ1l06ZN8s8//8iECRPEwsJCPD09tR1ldjx5ei5Damqq9O3bV0JCQrRhq1atEp1OJ1OmTMmJVVN2+/Zt7YDt4MGDWm3jyeuXTExMpH///pKWlib379+XxYsXS+XKlaV69epStmxZ7QDjTccAeYJer5cPP/xQmjRponXJzAiLJ49Qn+ffzo1v2rRJfHx8ZPTo0dqwLl26SMuWLTNdvfqqZdU188mjzQsXLoiTk5N07txZ65bcr18/adu2rcH7rly5Irt27ZJVq1YZVOmz00bwKrRo0UK6du2q/b1161aZOXOmBAcHy+zZs2XhwoXSpk0b6dGjhzbNpUuXpEqVKpm6a7+op9c5Pj5eKleuLGZmZjJy5EhteG4fqU6cOFGqVasmbdu2lYsXL0qFChW0U1Qij09bnThxwiBsX+T7e/J0zd27d7X2rMTERKlSpYocPHhQbt26Ja1atRJbW1sJCQl5ZoN7Tnj6c336dGN8fLx4eHjIp59+KiL/v46///67uLm5yTvvvCPXr1+X8PBwMTMzk4iICINu5+fPnzdY57zexvMaA+QpV69eFR8fH3nvvfeU3v/kBvztt9/KsGHDZMaMGQYXbo0YMUIaNmyo7ZR37dolderUkfHjx+fK+dNjx47JuHHjtJ19VvdpyvjR7N+/X3r16iWOjo5y+vRpGTlypLz33nv/WhNLS0vLF1X5iIgI0el04ufnJ87OzlK1alVp3ry51KhRQ6pVqyblypWTH374QaytraV+/foyaNAgKVOmjPj7+2sNpC/q6R3J/fv3DQ46vv32WylatKjs2bMnR9Ytu9LS0mT37t1SvHhxeffdd8XIyEhr/8lq2ux+f6NGjZIqVarI999/L2lpaXLhwgXx9vaWjh07iqWlpXTr1s2gm3ROHyw9XQvavn17lt9hbGysWFtbaw3lGd/bmDFjpHXr1lrHgdWrV4tOpxN/f3+5du1apvm86cGRgQGShS+++EJmz56tvBM8c+aMNGzYUEqWLCmDBw+W8uXLyzvvvCO7du0SEZEDBw6Iv7+/9OrVS9voR4wYIR4eHtptUV6ljRs3ipWVlYSFhWk3ePvzzz+fOf39+/flnXfekRYtWoi3t7c4Ozs/M+ie95nldrBs2rRJxowZI1OnTpV9+/ZpQR4VFSVly5aVjRs3ytGjRyUkJEQ6d+780jcGXLx4sdSsWVNr23ryaNvV1VXat2+vtQ3lRcj+9ttv0rVrV9HpdNKpU6ds1ayzEh0dLRUqVBAvLy/573//K0eOHNG26XfeeUfMzMxkzZo1Bu+JioqSfv36aW2NL+vJnfnRo0elZs2a4uTkJEeOHJFbt25Js2bNZO7cuXLt2jW5fv26VK9eXbtuI0ONGjUkKChI+zs0NFRGjRol1apVM+jWTIYYIFl4mR/2o0ePpH///jJgwACt0TYqKkoLkQyff/65eHp6ysqVK0XkcS+tFi1ayL59+16u8C/IxcVFdDqdtGnT5oUaNZOSkmTixIliaWn53MDJSn47Ytu1a5fY2toqn6p62s2bN6VDhw5Svnx5mTVrlqxevVoqVaok7733nnZN0Z49e0Sn0xm0g2R0s83NXkm3b9/OtFN/nqzaOUREPv30U+1C0KcdPHhQzMzMZPz48XL69Gm5c+eOhIeHS7Vq1SQ4ODhHu68nJiZKly5dtJpVRs+/uLg4GTZsmHh6eoqzs7O0adNGnJyctNpJxnY5e/Zs0el00qdPH3nrrbfEyclJu56Jno0B8oKedSuHrIb98ssvcvr0aRF53FBrY2MjderUkYoVK8rcuXNF5HEf+k6dOomPj492kd2rOCLN6nYdBw4ckICAAHFwcJAvv/xSO0/8rOVnDNfr9RIZGflSR44LFy6UUaNGyZw5c7IdQjklKSlJRo0aJc2bN8/2qar09PQswzA6OlqGDBmihYWISLNmzcTGxkbmzJmjXWjasWNHqVKlioSFhUmTJk2kTp06eRquL7LsJ6d5uk2hSZMm0rx5c7l27ZosX75cvvjiC+nevbuEh4eLyOPvu06dOmJvby/16tWTYsWKGfR4ygk///yzWFhYiK+vr8F1L09bunSp+Pv7i06nk4EDB2a6S/Lnn38u3bt3l4EDBxqE25vULTe7GCDZ9ODBg0w75KyOzPR6vQQGBoq7u7ts27ZNbt++Lb6+vlKvXj3tFMb8+fNl9OjRcu/evVcWHhnOnDkje/fuNfhhjBgxQmrVqqWdWsuO7P6oLly4IO7u7lKuXDkJDg6WWrVqSbNmzbQ2gVd9OufSpUvy3XffyYIFC6RSpUpSvXr1F779yMKFC7XbsTy53k+e/rl27ZoWHl9++aXY2tpKp06d5O2335YaNWpo59xv374tgYGBUrduXQkMDHzpU0ivwrNCZeLEifL222/L6NGj5ccffxSRx7WqMmXKSJEiRcTf3186deokTZo0kWrVqsmyZctE5HG7w759++SHH354Jdf+REZGSrVq1bQbX2bYuHGjBAYGGtzjbtmyZeLi4iINGzYUR0dH6dmzp8G9qZ4sX36rNedHDJAXlJaWJl26dNF60hw7dkymT5/+zOlPnjwpZcqUMbgAzdfXVwoXLiwDBw4UkVd32uLJ+d67d086duwoxYoVk0qVKomHh4d2x9W7d+9KlSpVZOjQoS91fcvTsvrhTZo0Sbp166aNi4qKEjMzM2nXrl2OLfffbNq0STw9PaVhw4bZOgJ+8OCBjBo1SooWLao1sH777bfi4eEh7du3z7TTWrdunbi5uWm3/T9//rwYGRnJ+PHjtc/44cOHmS6uzGt6vV67A/XTp1GvXLki7u7u4ubmJhMmTBBfX18pUqSI1v31jz/+kBMnTkhMTIzWC6tixYq51jVdr9fL4MGD5a233pI7d+5ITEyMNGvWTCwtLWXGjBkGof/BBx9od9jes2eP9O7dW8qVK5epoTw/XeiYnzFAsiE8PFzMzc2lRYsWotPpJCQk5JlHKVFRUVK5cmXtR7Zr1y7p0qWLTJo0SbvyPKePup+8PiPjKuigoCDx9fWVM2fOyKFDh2T06NFiZWWlXUX/1VdfSeXKlWXt2rUi8rjBPOPHlN0f0dOfRcbO5NGjR9KiRQvtdiYjRowQS0tL6dWrl0HPnFftzJkz2ao5ZXw/Z8+elbp160rPnj3l7NmzUrlyZZkyZYp06NBBSpcurZ2WfPDggfTp00fatm2rXWC2YMECsbS0lFKlSmVquM0Pnv6OixcvLr169TK49mflypXi7u6uNSZndHcvVaqUwWnIjM92/fr1UqtWrVy9z9uFCxfE19dXatSoIZaWltK3b1+Di3MzyjZs2DDp2bNnrpWroGOA/Iund/Dz588XnU4nZcqU0do4nuXixYvSqVMnsbOzk9atW4uZmZnMnDnzlVWLT58+bfDAI71eLzdv3hRbW1vtVILI41rHgAEDxNnZWRvWrFkzqVu3rvTv3190Ot1L39xwyZIl4ubmJtOmTRORxw2c7u7uMmDAAClbtqzUr1/fYOdy7ty5fH264P79+7J06VKxs7OT5s2bawcAt2/flpCQEClatKj2CNP27duLn5+f7Nu3T86fPy9dunSRLVu2ZLvR+lV7MjgePHggv/76qyQlJcnvv/+uPTUvY/vv1auX+Pj4iIjhQYKDg4N20W10dLT85z//kZYtW4q5uXmeXGg3bdo0KVmypEHN5+nfsK+vb5bdl9nOoYYBkoWMo/enHThwQEJCQkSn073Q8z4uXLggs2bNkg8++ECio6NfSTkzJCcny9SpU6Vo0aJar6pr166Jm5ubwZPx9Hq9/Pbbb1KyZEmtN9CpU6dkypQp0qpVK+3ctoqYmBjx8/OTMmXKyOzZs+Xnn3/Wdqxjx44VnU5n8MCijGUPHz7c4NbXeenp7/3o0aPSoUMHWbRokQwcOFBMTU0NunWeP39eqlSpIu+++66IPA7yypUrS/ny5aVIkSLSs2fPXLnnl6rPP/9cXFxcpFWrVuLs7CxpaWnSvHlz8fX11Wqi06ZNk6pVq2qn4DLabUaNGiVeXl4i8ridIygoSHtWel64d++eBAQESO/evTN95itXrpQ+ffrI9OnTX4vntrwuGCBPefLI7PLly7J06VI5fPiwwQbZqVOnf72F9av24MEDmTx5stbTJcOFCxekZs2a2tXXN2/elIYNG0pwcLBBG8fZs2fFyclJtmzZ8sxlPK9GkNWdZb/77jtp3Lhxlu0psbGxYmlpKSNGjJATJ05IcnKy/P7779K4cWNp165dlhdr5aWM029Hjx6VqlWrytatW+Xnn38WMzMz7VqRjAONZcuWiZGRkRw7dkxEHm83O3bskLNnz+ZZ+Z/n4sWL0qRJE6lYsaKsX79erly5otWqL168KDqdTubNmycij59x7+3trV29nSHjDtYZ20B+eKzt999/L/Xr15fvvvtORB53Ja5fv76Ym5tnOpCil8cAyULGg4NsbGzEzc1NSpcuLW3bttWu67h48aIUKVIkUwNqbkhNTZXBgwdrN3ccMWKE/Prrr9q47777TnQ6ndbrZ+rUqVK7dm3tOcwiIr/++qtUrFgxy3s8PS84/m382LFjtdveb9q0SRYtWiTDhw+XRYsWicjjXjG1a9cWS0tLad68uRQpUkQGDRqUr47QExMTpV27djJy5EgtRLy9vbWOD++//744OTkZfA6xsbHSuHFjqVixYp6UWcVnn30mPj4+mR5ulPFdDBkyRMqWLSuXLl2S5ORk+eijj6R06dKybNkyuXTpkkRFRUmVKlW07za/ePTokfTo0UOaN28ubdu2FSMjI4P7mokwPHISA+QpiYmJMmbMGPHx8dFut3Dt2jXR6XQya9YsrXH0448/FkdHRzl16pQ8evRIvv766+e2i+SUiIgIadq0qXh6ekrLli3Fzs5OlixZInFxcZKamioBAQHaQ3DS09Pl3XfflXLlykn79u1l3LhxYmdnJ/369dNOL6n473//K127dpUxY8bItm3bROTxo2DLli2rXffyzjvvSJMmTcTOzk47L339+nWJiIiQb7/91uD58vnFjRs3xMHBQSwsLGTo0KEi8rjzhJOTk9y/f1+OHTsmFSpU0J7j/uS1Pxm3+8/vYmNjxcrKKstehE8+hMra2lrrdRgTEyMff/yxWFlZiYuLi1hYWGR6tG9+kXGKtnnz5gbbGNs5ch4D5ClJSUmyZMkSre94ZGSkNGjQQExMTKRkyZIG942qVKmS1KpVS2xtbcXV1TVXL4wbOXKktGjRQjZs2CDz588XV1dXqVWrlhw9elQiIyPF2tpa698eFxcna9askffee0+aNWumVe//zf3796VFixayffv2TMM7d+4sxYsXl+HDh0udOnWkRIkSWoP5+fPnZefOnXL58mXtoi4fHx/p27dvDn8COWft2rXaZ5VxncaYMWOkWLFi8s0338iaNWukVatWsnHjRtHr9TJ9+nSxtbXNlwH4Ik6ePCnm5uZaw/7TPbEy2jjmzZsnRYsWNbjg7vLlyxIZGZnlczDyi4wuyRnyy73ZCiIGSBYyfhyTJk0SJycnGTt2rCQmJkrZsmVlwIAB2tXLly9fluXLl2tdYHPTkSNHxN/fX/r06SMiovV9r127tnTo0EG6desm5cqVM3jP06efnne6ytvbW7y9vQ2eGLhv3z6DC+Pi4+Nl1qxZYmxsbNA4mfGDPXnypHh7exv0BMtP0tLSZNKkSVrPIxGR4cOHyyeffCJbt26Vrl27SmBgoHh6emrP1Dh16pS4uLhk+7bn+cUff/whRkZG8tVXXz33qLxBgwbi7++fo9cJ5ab83LuvIGCAPMNff/0l9erV045M09LSxNfXV2xtbWXdunX54kKjGTNmSL169bSdc2JiokRGRoqzs7OULVtWdDqdfPbZZ5ne96LtHGfOnBETExODK3Xnzp2rPdY2Q2pqqvj4+EjHjh1F5HGwzp49W/r27StFixaVAQMG5Msrrp80dOhQ8fLyku+//16uXLkixYoVk+TkZNmxY4d0795ddDqddhv7R48e5bsHgGWXn5+feHp6auvx9BH66NGj5fPPP5f9+/eLo6NjvuvkQPlDIVCWDh8+jDNnzsDHxwcAcOXKFVSpUgU2NjY4fvx4HpfusW7dusHZ2Rnr1q3DjRs3YGFhgaZNm+KXX37B8OHDUbNmTbRo0SLT+4yMjLKcn4ggPT1dG1+tWjWMHj0aEyZMQExMDADA2toajo6OOHz4MAAgPT0dhQsXRp8+fRAdHY34+HiYmpri1q1bePjwIfbt24dvvvkGJiYmr+hTyBnTpk2Dn58fxo0bh4MHD6J169ZYtWoVmjVrho8++ggAEBERgZs3b8LY2BjlypXL4xK/nBEjRuDw4cNYunQp4uLioNPpoNfrAQCnT5/GlStXULVqVTRo0AA3btxAmTJl8rjElC/ldYLlV8nJyWJraytvvfWWjB8/XipWrCiffvppvuiq+KTw8HDx8vLS2iBywp9//il9+/aVyZMny40bN6R06dIyZswYEXl8LYyPj498/PHHBu8ZNWqUNGjQQJKTk0Wv12d61OfrIC4uTnt6X6NGjWTSpEkGd1QuaLf1HjlypBQuXFjeeecd2bp1q+zYsUPGjx8vjo6OEhgYmO9ut0L5DwPkX/zyyy/Ss2dPcXd3z3QBXH6RnJwsgYGBUqNGDTl69Gim8dnteTJp0iQxMzOTd999V1auXCl37tyRhQsXipmZmZw6dUpERMaNGydubm4yZcoUuXnzppw/f14aNWqkhczrbsCAAaLT6cTDwyNfnKp8lcLCwsTV1VXs7OzEzc1N6tSpo/WqI3oenYhIXteC8rO0tDTodLpnnvbJD3bs2IF9+/Zh+PDhsLa2Vp7P8ePH0adPH4SEhKBdu3bacBFBvXr14OTkhPXr1yM2Nhbh4eEYO3YsqlevjgsXLqB58+ZYvnw5rKyscmCN8oaIQKfT4datW5g6dSqqVauGAQMG5HWxXrnExESkp6fj+vXrcHV1zevi0GuEAUKaWbNm4auvvsK+fftQsmRJAIBer0ehQoWwc+dONGvWDFu2bEHLli0BAGfPnsW1a9fg4OCA2rVr52HJc05GiLxJ3sR1ppzBAClAMnb2qsaOHYtt27bhyJEj0Ol0mXYqffr0waFDh/Dbb7+9VE2HiAoG9sIqQF4mPACgU6dOOHnyJHbv3q2Fh4jg1q1bWLduHT755BNcuXIFf/zxR04Ul4hec6yBkCY1NRV9+/bF/v37sW7dOlSuXBkAMH36dJw5cwZz586Fubk5LCws8rikRJQfMEDIQEpKCho3boxr166hYsWK+Pvvv1GoUCGsWLEC3t7eeV08IspHGCCUSVxcHE6ePIljx47BwcEB7777bl4XiYjyIQYIEREpYSM6EREpYYAQEZESBggRESlhgBARkRIGCBERKWGAEBGREgYIEREpYYAQEZGS/wPeC4hnhdNZzwAAAABJRU5ErkJggg==;clipPath=inset(0% 8% 0% 11%);" vertex="1" parent="mIjLraYWU1ijbTPT-EfQ-20">
          <mxGeometry width="324" height="600" as="geometry" />
        </mxCell>
        <mxCell id="mIjLraYWU1ijbTPT-EfQ-17" value="" style="shape=image;verticalLabelPosition=bottom;labelBackgroundColor=default;verticalAlign=top;aspect=fixed;imageAspect=0;image=data:image/png,iVBORw0KGgoAAAANSUhEUgAAAZAAAAJYCAYAAABM7LCIAAAAOXRFWHRTb2Z0d2FyZQBNYXRwbG90bGliIHZlcnNpb24zLjcuMCwgaHR0cHM6Ly9tYXRwbG90bGliLm9yZy88F64QAAAACXBIWXMAAA9hAAAPYQGoP6dpAAByt0lEQVR4nO3dd1gU1/s28HtFioCgiAgWLKBi7wKCBixgNLFrNBbsJWIBS9REiRp7bDHGEhVL9GusiSWKFTX2hi0WrBgLoChSpO7z/sGPeV3BRFYWWLw/17WX7szsnDPL7t4z55yZUYmIgIiIKIsK5HYFiIhIPzFAiIhIKwwQIiLSCgOEiIi0wgAhIiKtMECIiEgrDBAiItIKA4SIiLTCACEiIq0wQIiISCsMECIi0goDhIiItMIAISIirTBAiIhIKwwQIiLSCgOEiIi0wgAhIiKtMECIiEgrDBAiItIKA4SIiLTCACEiIq0wQIiISCsMECIi0goDhIiItMIAISIirTBAiIhIKwwQIiLSCgOEiIi0wgAhIiKtMECIiEgrDBAiItIKA4SIiLTCACEiIq0wQIiISCsMECIi0goDhIiItMIAISIirTBAiIhIKwwQIiLSCgOEiIi0wgAhIiKtMECIiEgrDBAiItIKA4SIiLTCACEiIq0wQIiISCsMECIi0goDhIiItMIAISIirTBAiDIRHBwMlUqF4ODg3K6KXlGpVPjuu+9yuxqUQxggem716tVQqVQaDxsbG3h6emLPnj06Kzc+Ph7ffffde//Apv8gpz8MDAxgY2ODTp064fr161rXY/r06fj999+1fn12uXfvHnx9fVGpUiWYmprC1NQUVatWxdChQ3H58uXcrl62+vPPPxkSBAAomNsVoOwxZcoUlC9fHiKC8PBwrF69Gq1atcLOnTvx2WefZXt58fHxmDx5MgDAw8PjvV83fPhwNGjQAMnJybh8+TKWLl2K4OBgXL16Fba2tlmux/Tp09GpUye0a9cuy6/NLrt27cIXX3yBggULonv37qhVqxYKFCiAGzduYNu2bViyZAnu3buHsmXL5lods9Off/6JxYsXZxoir1+/RsGC/Fn5WPAvnU98+umnqF+/vvK8X79+KFGiBP73v//pJEC01bhxY3Tq1El5XrlyZQwZMgRr167F2LFjc7Fm2rlz5w66du2KsmXL4uDBg7Czs9OYP2vWLPz8888oUCDvHuzHxcXBzMwsW9ZlYmKSLesh/ZB3P9X0QYoUKYJChQpl2BtUq9VYsGABqlWrBhMTE5QoUQKDBg3CixcvNJY7d+4cvL29YW1tjUKFCqF8+fLo27cvAOD+/fsoXrw4AGDy5MlKs5Q2zRqNGzcGkPZD/KYffvgBjRo1QrFixVCoUCHUq1cPW7Zs0VhGpVIhLi4Oa9asUerQu3dvZf6jR4/Qt29flChRAsbGxqhWrRpWrVqVoQ7//PMP2rVrBzMzM9jY2MDPzw+JiYnvVf/Zs2cjLi4OgYGBGcIDAAoWLIjhw4ejTJkyGtNv3LiBTp06wcrKCiYmJqhfvz527NihsUx68+Tx48fh7++P4sWLw8zMDO3bt0dkZGSGsvbs2YPGjRvDzMwMhQsXRuvWrXHt2jWNZXr37g1zc3PcuXMHrVq1QuHChdG9e3cAwLFjx9C5c2fY29vD2NgYZcqUgZ+fH16/fq3x+sWLFwOARpNkusw+BxcvXsSnn34KCwsLmJubo1mzZjh16tQHbSvlDTwCySeio6Px7NkziAgiIiKwaNEixMbGokePHhrLDRo0CKtXr0afPn0wfPhw3Lt3Dz/99BMuXryI48ePw9DQEBEREfDy8kLx4sUxbtw4FClSBPfv38e2bdsAAMWLF8eSJUswZMgQtG/fHh06dAAA1KxZM8v1vn//PgCgaNGiGtMXLlyINm3aoHv37khKSsLGjRvRuXNn7Nq1C61btwYArFu3Dv3790fDhg0xcOBAAICDgwMAIDw8HC4uLlCpVPD19UXx4sWxZ88e9OvXD69evcLIkSMBpDW5NGvWDGFhYRg+fDhKliyJdevW4dChQ+9V/127dsHR0RHOzs7vvc3Xrl2Dm5sbSpUqhXHjxsHMzAybNm1Cu3btsHXrVrRv315j+WHDhqFo0aIICAjA/fv3sWDBAvj6+uK3335Tllm3bh18fHzg7e2NWbNmIT4+HkuWLIG7uzsuXryIcuXKKcumpKTA29sb7u7u+OGHH2BqagoA2Lx5M+Lj4zFkyBAUK1YMZ86cwaJFi/DPP/9g8+bNANI+P48fP8b+/fuxbt2699rWxo0bw8LCAmPHjoWhoSGWLVsGDw8PHDlyJMP79j7bSnmIkF4LDAwUABkexsbGsnr1ao1ljx07JgBk/fr1GtP37t2rMX379u0CQM6ePfvOciMjIwWABAQEvFc9Dx8+LABk1apVEhkZKY8fP5a9e/eKo6OjqFQqOXPmjMby8fHxGs+TkpKkevXq0rRpU43pZmZm4uPjk6G8fv36iZ2dnTx79kxjeteuXcXS0lJZ/4IFCwSAbNq0SVkmLi5OHB0dBYAcPnz4ndsUHR0tAKRdu3YZ5r148UIiIyOVx5vb06xZM6lRo4YkJCQo09RqtTRq1EgqVqyoTEv/2zZv3lzUarUy3c/PTwwMDOTly5ciIhITEyNFihSRAQMGaNTh6dOnYmlpqTHdx8dHAMi4ceMy1Pnt91xEZMaMGaJSqeTBgwfKtKFDh8q7fjre/ky0a9dOjIyM5M6dO8q0x48fS+HChaVJkyZZ3lbKW9iElU8sXrwY+/fvx/79+/Hrr7/C09MT/fv3V44agLQ9TEtLS7Ro0QLPnj1THvXq1YO5uTkOHz4MIK35C0jbu05OTs7Wevbt2xfFixdHyZIl0bJlS0RHR2PdunVo0KCBxnKFChVS/v/ixQtER0ejcePGuHDhwn+WISLYunUrPv/8c4iIxrZ6e3sjOjpaWc+ff/4JOzs7jX4ZU1NT5Yjm37x69QoAYG5unmGeh4cHihcvrjzSm32ioqJw6NAhdOnSBTExMUq9nj9/Dm9vb4SGhuLRo0ca6xo4cKBGM1Hjxo2RmpqKBw8eAAD279+Ply9folu3bhrbamBgAGdnZ+Xv+qYhQ4ZkmPbmex4XF4dnz56hUaNGEBFcvHjxP9+Pt6WmpmLfvn1o164dKlSooEy3s7PDl19+ib/++kt5D993WylvYRNWPtGwYUONTvRu3bqhTp068PX1xWeffQYjIyOEhoYiOjoaNjY2ma4jIiICAPDJJ5+gY8eOmDx5MubPnw8PDw+0a9cOX375JYyNjT+onpMmTULjxo0RGxuL7du3Y+PGjZl2MO/atQvff/89QkJCNPoj3vxxeZfIyEi8fPkSy5cvx/LlyzNdJn1bHzx4AEdHxwzrrVy58n+WU7hwYQBAbGxshnnLli1DTEwMwsPDNZoRb9++DRHBxIkTMXHixHfWrVSpUspze3t7jfnpzX3p/VahoaEAgKZNm2a6PgsLC43nBQsWROnSpTMsFxYWhkmTJmHHjh0Z+sSio6MzXfe/iYyMRHx8fKbvZZUqVaBWq/Hw4UNUq1ZNmf5f20p5CwMknypQoAA8PT2xcOFChIaGolq1alCr1bCxscH69eszfU16x7hKpcKWLVtw6tQp7Ny5E0FBQejbty/mzp2LU6dOZbrH/b5q1KiB5s2bAwDatWuH+Ph4DBgwAO7u7kpH87Fjx9CmTRs0adIEP//8M+zs7GBoaIjAwEBs2LDhP8tQq9UAgB49esDHxyfTZbTpr3mbpaUl7OzscPXq1Qzz0tv20/t43q7b6NGj4e3tnel6HR0dNZ4bGBhkupyIaKxz3bp1mQ6FfnsghbGxcYbQTk1NRYsWLRAVFYWvv/4aTk5OMDMzw6NHj9C7d2+lDF37r22lvIUBko+lpKQA+P97yA4ODjhw4ADc3Nw0mivexcXFBS4uLpg2bRo2bNiA7t27Y+PGjejfv/97HQm8j5kzZ2L79u2YNm0ali5dCgDYunUrTExMEBQUpHHEExgYmOH1mdWjePHiKFy4MFJTU5WwepeyZcvi6tWrEBGNdd28efO96t+6dWusWLECZ86cQcOGDf9z+fSmHENDw/+s2/tKHzhgY2Oj9TqvXLmCW7duYc2aNejVq5cyff/+/RmWfd+/ffHixWFqaprpe3njxg0UKFAgw+g00i/sA8mnkpOTsW/fPhgZGaFKlSoAgC5duiA1NRVTp07NsHxKSgpevnwJIK254O09vtq1awOA0pyUPnIn/TXacnBwQMeOHbF69Wo8ffoUQNpeqEqlQmpqqrLc/fv3Mz3j3MzMLEMdDAwM0LFjR2zdujXTo4M3h4W2atUKjx8/1hgiHB8f/86mr7eNHTsWpqam6Nu3L8LDwzPMf/t9tLGxgYeHB5YtW4YnT578a93el7e3NywsLDB9+vRM+6zeZ53pe/5v1ldEsHDhwgzLpp8z8l9/ewMDA3h5eeGPP/7QOBILDw/Hhg0b4O7unqF5jfQLj0DyiT179uDGjRsA0trQN2zYgNDQUIwbN075kn7yyScYNGgQZsyYgZCQEHh5ecHQ0BChoaHYvHkzFi5ciE6dOmHNmjX4+eef0b59ezg4OCAmJga//PILLCws0KpVKwBpHa5Vq1bFb7/9hkqVKsHKygrVq1dH9erVs1z3MWPGYNOmTViwYAFmzpyJ1q1bY968eWjZsiW+/PJLREREYPHixXB0dMxwWZB69erhwIEDmDdvHkqWLIny5cvD2dkZM2fOxOHDh+Hs7IwBAwagatWqiIqKwoULF3DgwAFERUUBAAYMGICffvoJvXr1wvnz52FnZ4d169YpAflfKlasiA0bNqBbt26oXLmycia6iODevXvYsGEDChQooNHnsHjxYri7u6NGjRoYMGAAKlSogPDwcJw8eRL//PMPLl26lKX3z8LCAkuWLEHPnj1Rt25ddO3aFcWLF0dYWBh2794NNzc3/PTTT/+6DicnJzg4OGD06NF49OgRLCwssHXr1kz7HurVqwcg7aoC3t7eMDAwQNeuXTNd7/fff4/9+/fD3d0dX331FQoWLIhly5YhMTERs2fPztJ2Uh6UO4O/KLtkNozXxMREateuLUuWLNEYEplu+fLlUq9ePSlUqJAULlxYatSoIWPHjpXHjx+LiMiFCxekW7duYm9vL8bGxmJjYyOfffaZnDt3TmM9J06ckHr16omRkdF/DulNH8a7efPmTOd7eHiIhYWFMlxz5cqVUrFiRTE2NhYnJycJDAyUgICADMNHb9y4IU2aNJFChQoJAI0hveHh4TJ06FApU6aMGBoaiq2trTRr1kyWL1+usY4HDx5ImzZtxNTUVKytrWXEiBHK0OZ/G8b7ptu3b8uQIUPE0dFRTExMpFChQuLk5CSDBw+WkJCQDMvfuXNHevXqJba2tmJoaCilSpWSzz77TLZs2aIsk/63fXs4dfp7+XbdDh8+LN7e3mJpaSkmJibi4OAgvXv31vi7+fj4iJmZWabb8Pfff0vz5s3F3NxcrK2tZcCAAXLp0iUBIIGBgcpyKSkpMmzYMClevLioVCqNv0lmn4MLFy6It7e3mJubi6mpqXh6esqJEyc0lsnqtlLeoBJh7xQREWUd+0CIiEgrDBAiItIKA4SIiLSSpQD57rvvMty8yMnJSZmfkJCAoUOHolixYjA3N0fHjh01hjZGRUXh888/h7m5OerUqZPh8ghDhw7F3LlzP3CTiIgoJ2T5CKRatWp48uSJ8vjrr7+UeX5+fti5cyc2b96MI0eO4PHjx8qVWgFg2rRpiImJwYULF+Dh4YEBAwYo806dOoXTp08rV0klIqK8LcvngRQsWDDTyyVER0dj5cqV2LBhg3JNnsDAQFSpUgWnTp2Ci4sLrl+/jq5du6JSpUoYOHCgcrJWcnIyBg8ejBUrVrzzUgZERJS3ZDlAQkNDUbJkSZiYmMDV1RUzZsyAvb09zp8/j+TkZI1LKTg5OcHe3h4nT56Ei4sLatWqhUOHDqF///4ICgpSrkc0e/ZseHh4aFwM8N8kJiZqXGBPrVYjKioKxYoVy7ZLbBAR5SYRQUxMDEqWLJl372iZlZNG/vzzT9m0aZNcunRJ9u7dK66urmJvby+vXr2S9evXi5GRUYbXNGjQQMaOHSsiIi9fvlROUGvSpIlcu3ZNbt26JRUrVpRnz57JoEGDpHz58tK5c+d/vf5/+gllfPDBBx/5/fHw4cOs/EznqA86kfDly5coW7Ys5s2bh0KFCqFPnz4ZbgXasGFDeHp6YtasWZmuo2nTphgxYgQePHiAXbt2Yffu3RgwYACKFSv2zg71t49AoqOjYW9vj4cPH/LaOkSUL7x69QplypTBy5cvYWlpmdvVydQHXQurSJEiqFSpEm7fvo0WLVogKSkJL1++VG5IBKRdOC2zPhMgrY+kSJEiaNu2LTp06IB27drB0NAQnTt3xqRJk95ZrrGxcab3pbCwsGCAEFG+kpeb5T+oYS02NhZ37tyBnZ0d6tWrB0NDQxw8eFCZf/PmTYSFhcHV1TXDayMjIzFlyhQsWrQIQNr9CNKvJJqcnKxxJVYiIsp7snQEMnr0aHz++ecoW7YsHj9+jICAABgYGKBbt26wtLREv3794O/vDysrK1hYWGDYsGFwdXWFi4tLhnWNHDkSo0aNUu685ubmhnXr1sHLywvLly+Hm5tb9mwhERHpRJYC5J9//kG3bt3w/PlzFC9eHO7u7jh16pRyJ7v58+ejQIEC6NixIxITE+Ht7Y2ff/45w3qCgoJw+/ZtrFu3Tpnm6+uLc+fOwdnZGQ0bNkRAQMAHbhoREelSvrga76tXr2BpaYno6Oh/7QN5s5mMdMfIyCjvDjsk0hPv+7uWmz6KG0qJCJ4+ffrBd8+j91OgQAGUL18eRkZGuV0VItKhjyJA0sPDxsYGpqameXpUg75Tq9V4/Pgxnjx5Ant7e77XRPlYvg+Q1NRUJTyKFSuW29X5KBQvXhyPHz9GSkoKDA0Nc7s6RKQj+b6hOr3P433vcU0fLr3pikOxifK3fB8g6diUknP4XhN9HD6aACEiouzFACEiIq3k+070f1Nu3O4cK+v+zNZZWr53795Ys2ZNhune3t7Yu3dvdlXrvUybNg27d+9GSEgIjIyMOByaiAB85AGS17Vs2RKBgYEa0zK7iKSuJSUloXPnznB1dcXKlStzvHwiypvYhJWHGRsbw9bWVuNRtGhRAEBwcDCMjIxw7NgxZfnZs2fDxsZGuQ+9h4cHfH194evrC0tLS1hbW2PixInI6sUHJk+eDD8/P9SoUSP7No6I9B4DRE95eHhg5MiR6NmzJ6Kjo3Hx4kVMnDgRK1asQIkSJZTl1qxZg4IFC+LMmTNYuHAh5s2bhxUrVuRizYkov2CA5GG7du2Cubm5xmP69OnK/O+//x5FixbFwIED0aNHD/j4+KBNmzYa6yhTpgzmz5+PypUro3v37hg2bBjmz5+f05tCRPkQ+0DyME9PTyxZskRjmpWVlfJ/IyMjrF+/HjVr1kTZsmUzDQYXFxeN8zJcXV0xd+5cpKamwsDAQHeVJ6J8jwGSh5mZmcHR0fFflzlx4gQAICoqClFRUTAzM8uJqhERsQlLn925cwd+fn745Zdf4OzsDB8fH6jVao1lTp8+rfH81KlTqFixIo8+iOiDMUDysMTERDx9+lTj8ezZMwBp15nq0aMHvL290adPHwQGBuLy5cuYO3euxjrCwsLg7++Pmzdv4n//+x8WLVqEESNGKPPHjx+PXr16/Ws9wsLCEBISgrCwMKSmpiIkJAQhISGIjY3N/o0mIr3BJqw8bO/evbCzs9OYVrlyZdy4cQPTpk3DgwcPsGvXLgCAnZ0dli9fjm7dusHLywu1atUCAPTq1QuvX79Gw4YNYWBggBEjRmDgwIHK+p48eYKwsLB/rcekSZM0TmqsU6cOAODw4cPw8PDIjk0lIj2U7+9ImJCQgHv37qF8+fIwMTHJpRrmDg8PD9SuXRsLFizI0XI/5vecKLvowx0J2YRFRERaYYAQEZFW2AeSjwUHB+d2FYgoH+MRCBERaYUBQkREWmGAEBGRVhggRESkFQYIERFphQFCRERaYYDkUb1794ZKpcrwaNmyZY7W4/79++jXrx/Kly+PQoUKwcHBAQEBAUhKSsrRehBR3vNxnwfynWUOlhWd5ZfkhXui37hxA2q1GsuWLYOjoyOuXr2KAQMGIC4uDj/88EOO1oWI8hYegeRheeGe6Okh5uXlhQoVKqBNmzYYPXo0tm3blr0bS0R6hwGip3LznujR0dEad0Ykoo8TAyQPy4v3RL99+zYWLVqEQYMGab0OIsofPu4+kDwur90T/dGjR2jZsiU6d+6MAQMGZHFriCi/YYDkYXnpnuiPHz+Gp6cnGjVqhOXLl+ukDCLSL2zC0mM5dU/0R48ewcPDA/Xq1UNgYCAKFODHhogYIHlaXrgnenp42Nvb44cffkBkZKRSFyL6uLEJKw/LC/dE379/P27fvo3bt2+jdOnSGvPywd2QiegD8J7o+RjviU6kv3hPdCIiyrcYIEREpBX2geRjvCc6EekSj0CIiEgrDBAiItIKA4SIiLTCACEiIq0wQIiISCsMECIi0goDhIiItMIAyaN69+4NlUqV4dGyZcscr0ubNm1gb28PExMT2NnZoWfPnnj8+HGO14OI8paP+kTCGmtq5FhZV3yuZPk16fcjf5OxsXF2Vem9eXp6YsKECbCzs8OjR48wevRodOrUSbkXCRF9nHgEkocZGxvD1tZW41G0aFEAaWeZGxkZ4dixY8rys2fPho2NDcLDwwGkXUzR19cXvr6+sLS0hLW1NSZOnJjlq+j6+fnBxcUFZcuWRaNGjTBu3DicOnUKycnJ2bexRKR3PuojEH3m4eGBkSNHomfPnrh06RLu3r2LiRMnYvPmzShRooSy3Jo1a9CvXz+cOXMG586dw8CBA2Fvb6/1LWmjoqKwfv16NGrUCIaGhtm1OZRDFg8+lGtlD13aNNfKJt3gEUgetmvXLpibm2s8pk+frsz//vvvUbRoUQwcOBA9evSAj48P2rRpo7GOMmXKYP78+ahcuTK6d++OYcOGZXrv9P/y9ddfw8zMDMWKFUNYWBj++OOPD94+ItJvDJA8zNPTEyEhIRqPwYMHK/ONjIywfv16bN26FQkJCZkGg4uLC1QqlfLc1dUVoaGhSE1NzVJdxowZg4sXL2Lfvn0wMDBAr169eEMpoo8cm7DyMDMzMzg6Ov7rMukd2VFRUYiKioKZmZlO6mJtbQ1ra2tUqlQJVapUQZkyZXDq1Cm4urrqpDwiyvt4BKLH7ty5Az8/P/zyyy9wdnaGj48P1Gq1xjKnT5/WeH7q1ClUrFgRBgYGWpebXkZiYqLW6yAi/ccAycMSExPx9OlTjcezZ88AAKmpqejRowe8vb3Rp08fBAYG4vLly5g7d67GOsLCwuDv74+bN2/if//7HxYtWoQRI0Yo88ePH49evXq9sw6nT5/GTz/9hJCQEDx48ACHDh1Ct27d4ODgwKMPoo8cm7DysL1798LOzk5jWuXKlXHjxg1MmzYNDx48wK5duwAAdnZ2WL58Obp16wYvLy/UqlULANCrVy+8fv0aDRs2hIGBAUaMGIGBAwcq63vy5AnCwsLeWQdTU1Ns27YNAQEBiIuLg52dHVq2bIlvv/02V85JIaK8QyX5oCf0324+n5CQgHv37qF8+fIwMTHJpRrmDg8PD9SuXRsLFizI0XI/5vc8r+MwXv3xb79reQWbsIiISCsMECIi0gr7QPKx4ODg3K4CEeVjPAIhIiKtMECIiEgrDBAiItIKA4SIiLTCACEiIq0wQIiISCsMECIi0goDJI/q3bs3VCpVhkfLli1zrU6JiYmoXbs2VCoVQkJCcq0eRJQ3fNQnEl53qpJjZVW5cT3Lr2nZsiUCAwM1puXmBQzHjh2LkiVL4tKlS7lWByLKO3gEkocZGxvD1tZW41G0aFEAaWeZGxkZ4dixY8rys2fPho2NDcLDwwGkXUzR19cXvr6+sLS0hLW1NSZOnKjVnQT37NmDffv24YcffsiejSMivccA0VMeHh4YOXIkevbsiejoaFy8eBETJ07EihUrUKJECWW5NWvWoGDBgjhz5gwWLlyIefPmYcWKFVkqKzw8HAMGDMC6detgamqa3ZtCRHqKAZKH7dq1C+bm5hqP6dOnK/O///57FC1aFAMHDkSPHj3g4+ODNm3aaKyjTJkymD9/PipXrozu3btj2LBhmd47/V1EBL1798bgwYNRv379bNs2ItJ/H3UfSF7n6emJJUuWaEyzsrJS/m9kZIT169ejZs2aKFu2bKbB4OLiApVKpTx3dXXF3LlzkZqa+l63tV20aBFiYmIwfvz4D9gSIsqPGCB5mJmZGRwdHf91mRMnTgAAoqKiEBUVBTMzs2ytw6FDh3Dy5MkMnff169dH9+7dsWbNmmwtj4j0B5uw9NidO3fg5+eHX375Bc7OzvDx8YFardZY5vTp0xrPT506hYoVK77X0QcA/Pjjj7h06RJCQkIQEhKCP//8EwDw22+/Ydq0admzIUSkl3gEkoclJibi6dOnGtMKFiwIa2trpKamokePHvD29kafPn3QsmVL1KhRA3PnzsWYMWOU5cPCwuDv749BgwbhwoULWLRoEebOnavMHz9+PB49eoS1a9dmWgd7e3uN5+bm5gAABwcHlC5dOrs2lYj0EAMkD9u7dy/s7Ow0plWuXBk3btzAtGnT8ODBA+zatQsAYGdnh+XLl6Nbt27w8vJCrVq1AAC9evXC69ev0bBhQxgYGGDEiBEYOHCgsr4nT54gLCws5zaKiPINlWhzUkAe8283n09ISMC9e/dQvnx5mJiY5FINc4eHhwdq166NBQsW5Gi5H/N7ntctHnwo18oeurRprpWtj/7tdy2vYB8IERFpResAmTlzJlQqFUaOHKlMS0hIwNChQ1GsWDGYm5ujY8eOylnRQNpIoc8//xzm5uaoU6cOLl68qLHOoUOHarTPExFR3qVVgJw9exbLli1DzZo1Nab7+flh586d2Lx5M44cOYLHjx+jQ4cOyvxp06YhJiYGFy5cgIeHBwYMGKDMO3XqFE6fPq0RSPRhgoODc7z5iog+HlkOkNjYWHTv3h2//PKLcl0mAIiOjsbKlSsxb948NG3aFPXq1UNgYCBOnDiBU6dOAQCuX7+Orl27olKlShg4cCCuX0+7wGBycjIGDx6MpUuXvvfwUiIiyl1ZDpChQ4eidevWaN68ucb08+fPIzk5WWO6k5MT7O3tcfLkSQBArVq1cOjQIaSkpCAoKEg5gpk9ezY8PDze+1IZiYmJePXqlcaDiIhyVpYCZOPGjbhw4QJmzJiRYd7Tp09hZGSEIkWKaEwvUaKEci7DuHHjULBgQTg4OGD79u1YuXIlQkNDsWbNGkycOBGDBw9GhQoV0KVLF0RHR7+zHjNmzIClpaXyKFOmTFY2g4iIssF7B8jDhw8xYsQIrF+/XuuhmZaWltiwYQMePHiAI0eOoGrVqhg0aBDmzJmD9evX4+7du7h58yZMTU0xZcqUd65n/PjxiI6OVh4PHz7Uqj5ERKS99w6Q8+fPIyIiAnXr1kXBggVRsGBBHDlyBD/++CMKFiyIEiVKICkpCS9fvtR4XXh4OGxtbTNdZ2BgIIoUKYK2bdsiODgY7dq1g6GhITp37ozg4OB31sXY2BgWFhYaDyIiylnvfSZ6s2bNcOXKFY1pffr0gZOTE77++muUKVMGhoaGOHjwIDp27AgAuHnzJsLCwuDq6pphfZGRkZgyZQr++usvAEBqaiqSk5MBpHWqp6amar1RRESke+8dIIULF0b16tU1ppmZmaFYsWLK9H79+sHf3x9WVlawsLDAsGHD4OrqChcXlwzrGzlyJEaNGoVSpUoBANzc3LBu3Tp4eXlh+fLlcHNz+5DtIiIiHcvWM9Hnz5+Pzz77DB07dkSTJk1ga2uLbdu2ZVguKCgIt2/fxldffaVM8/X1RYUKFeDs7IykpCQEBARkZ9X0Tu/evaFSqTI8WrZsmeN1KVeuXIZ6zJw5M8frQUR5ywddTPHtfgoTExMsXrwYixcv/tfXeXt7w9vbW2OaqakpNm3a9CHVybKcvC6QNtcBatmyJQIDAzWmvX1fjpwyZcoUjRM/CxcunCv1IKK8g9fCysOMjY1ha2ur8Ug/eTM4OBhGRkY4duyYsvzs2bNhY2OjXD7Gw8MDvr6+8PX1haWlJaytrTFx4kRoc/3MwoULa9Qju29cRUT6hwGipzw8PDBy5Ej07NkT0dHRuHjxIiZOnIgVK1agRIkSynJr1qxBwYIFcebMGSxcuBDz5s3DihUrslzezJkzUaxYMdSpUwdz5sxBSkpKdm4OEekh3g8kD9u1a5dyA6d0EyZMwIQJEwAA33//Pfbv34+BAwfi6tWr8PHxQZs2bTSWL1OmDObPnw+VSoXKlSvjypUrmD9/vkZz1H8ZPnw46tatCysrK5w4cQLjx4/HkydPMG/evA/fSCLSWwyQPMzT0xNLlizRmGZlZaX838jICOvXr0fNmjVRtmxZzJ8/P8M6XFxcoFKplOeurq6YO3cuUlNT3/u6Y/7+/sr/a9asCSMjIwwaNAgzZszItT4ZIsp9DJA8zMzMDI6Ojv+6zIkTJwCkXSo/KioqR/omnJ2dkZKSgvv376Ny5co6L4+I8ib2geixO3fuwM/PD7/88gucnZ3h4+MDtVqtsczp06c1np86dQoVK1b8oKseh4SEoECBArCxsdF6HUSk/3gEkoclJiYqF6JMV7BgQVhbWyM1NRU9evSAt7c3+vTpg5YtW6JGjRqYO3cuxowZoywfFhYGf39/DBo0CBcuXMCiRYs0bto1fvx4PHr0CGvXrs20DidPnsTp06fh6emJwoUL4+TJk/Dz80OPHj00LudPRB8fBkgetnfvXtjZ2WlMq1y5Mm7cuIFp06bhwYMH2LVrFwDAzs4Oy5cvR7du3eDl5YVatWoBAHr16oXXr1+jYcOGMDAwwIgRIzBw4EBlfU+ePEFYWNg762BsbIyNGzfiu+++Q2JiIsqXLw8/Pz+NfhEi+jipRJuTAvKYf7v5fEJCAu7du4fy5ctrfRVhfeXh4YHatWvn+F0JP+b3PK/LyZNn36bNybQfs3/7Xcsr2AdCRERaYRMW0UekafDQXCz9ei6WTbrAAMnH/u2eKkREH4pNWEREpBUGCBERaeWjCZB8MNhMb/C9Jvo45PsAMTQ0BADEx8fnck0+HklJSQDwQWe7E1Hel+870Q0MDFCkSBFEREQASLtx1ZsXF6TspVarERkZCVNTUxQsmO8/XkQftY/iG25rawsASoiQbhUoUAD29vYMaqJ87qMIEJVKBTs7O9jY2CA5OTm3q5PvGRkZoUCBfN86SvTR+ygCJJ2BgQHb5YmIsgl3E4mISCsMECIi0goDhIiItMIAISIirTBAiIhIKwwQIiLSCgOEiIi0wgAhIiKtMECIiEgrDBAiItIKA4SIiLTCACEiIq0wQIiISCsMECIi0goDhIiItMIAISIirTBAiIhIKwwQIiLSCgOEiIi0wgAhIiKtMECIiEgrDBAiIj31+vVrxMfHK88fPHiABQsWYN++fTlSPgOEiEhPtW3bFmvXrgUAvHz5Es7Ozpg7dy7atm2LJUuW6Lx8BggRkZ66cOECGjduDADYsmULSpQogQcPHmDt2rX48ccfdV4+A4SISE/Fx8ejcOHCAIB9+/ahQ4cOKFCgAFxcXPDgwQOdl88AISLSU46Ojvj999/x8OFDBAUFwcvLCwAQEREBCwsLnZfPACEi0lOTJk3C6NGjUa5cOTg7O8PV1RVA2tFInTp1dF5+QZ2XQEREOtGpUye4u7vjyZMnqFWrljK9WbNmaN++vc7LZ4AQEekxW1tb2Nraakxr2LBhjpTNACEi0lNxcXGYOXMmDh48iIiICKjVao35d+/e1Wn5DBAiIj3Vv39/HDlyBD179oSdnR1UKlWOls8AISLSU3v27MHu3bvh5uaWK+VzFBYRkZ4qWrQorKyscq18BggRkZ6aOnUqJk2apHE9rJzEJiwiIj01d+5c3LlzByVKlEC5cuVgaGioMf/ChQs6LZ8BQkSkp9q1a5er5TNAiIj0VEBAQK6WzwAhItJz58+fx/Xr1wEA1apVy5HLmAAMECIivRUREYGuXbsiODgYRYoUAZB2XxBPT09s3LgRxYsX12n5HIVFRKSnhg0bhpiYGFy7dg1RUVGIiorC1atX8erVKwwfPlzn5fMIhIhIT+3duxcHDhxAlSpVlGlVq1bF4sWLlUu76xKPQIiI9JRarc4wdBcADA0NM1wXSxcYIEREeqpp06YYMWIEHj9+rEx79OgR/Pz80KxZM52XzwAhItJTP/30E169eoVy5crBwcEBDg4OKF++PF69eoVFixbpvHz2gRAR6akyZcrgwoULOHDgAG7cuAEAqFKlCpo3b54j5TNAiIj0mEqlQosWLdCiRYscL5sBQkSkR3788UcMHDgQJiYm+PHHH/91WV0P5VWJiOi0hBzw6tUrWFpaIjo6GhYWFrldHaI867pTlf9eSEeq3Liea2Xro3f9rpUvXx7nzp1DsWLFUL58+Xe+XqVS8Y6ERET0/927dy/T/+cGjsIiItJTU6ZMyfReIK9fv8aUKVN0Xj4DhIhIT02ePBmxsbEZpsfHx2Py5Mk6L58BQkSkp0QEKpUqw/RLly7lyK1u2QdCRKRnihYtCpVKBZVKhUqVKmmESGpqKmJjYzF48GCd14MBQkSkZxYsWAARQd++fTF58mRYWloq84yMjFCuXDm4urrqvB4MECIiPePj4wMgbUhvo0aNMr2gYk5ggBAR6alPPvlE+X9CQgKSkpI05uv6vDh2ohMR6an4+Hj4+vrCxsYGZmZmKFq0qMZD1xggRER6asyYMTh06BCWLFkCY2NjrFixApMnT0bJkiWxdu1anZfPJiwiIj21c+dOrF27Fh4eHujTpw8aN24MR0dHlC1bFuvXr0f37t11Wj6PQIiI9FRUVBQqVKgAIK2/IyoqCgDg7u6Oo0eP6rx8BggRkZ6qUKGCcj0sJycnbNq0CUDakUmRIkV0Xn6WAmTJkiWoWbMmLCwsYGFhAVdXV+zZs0eZn5CQgKFDh6JYsWIwNzdHx44dER4ersyPiorC559/DnNzc9SpUwcXL17UWP/QoUMxd+7cD9wkIqKPQ58+fXDp0iUAwLhx47B48WKYmJjAz88PY8aM0Xn5Wbqc+86dO2FgYICKFStCRLBmzRrMmTMHFy9eRLVq1TBkyBDs3r0bq1evhqWlJXx9fVGgQAEcP34cADBq1CicP38ey5cvx5IlS3Ds2DGcO3cOAHDq1Cn4+vri9OnTMDAwyNJG8HLuRO+nxpoauVb2FZ8ruVa2PtLmd+3Bgwc4f/48HB0dUbNmTR3XMBvuB2JlZYU5c+agU6dOKF68ODZs2IBOnToBAG7cuIEqVarg5MmTcHFxQatWrdCmTRsMHjwY169fR/369REXF4fk5GQ0aNAAK1asQP369bNcBwYI0fthgOiP//pdS05ORsuWLbF06VJUrFgxF2r4AX0gqamp2LhxI+Li4uDq6orz588jOTlZ4168Tk5OsLe3x8mTJwEAtWrVwqFDh5CSkoKgoCAlIWfPng0PDw+twoOI6GNkaGiIy5cv52odshwgV65cgbm5OYyNjTF48GBs374dVatWxdOnT2FkZJSh46ZEiRJ4+vQpgLQ2uoIFC8LBwQHbt2/HypUrERoaijVr1mDixIkYPHgwKlSogC5duiA6OvqddUhMTMSrV680HkREH5sePXpg5cqVuVZ+ls8DqVy5MkJCQhAdHY0tW7bAx8cHR44cea/XWlpaYsOGDRrTmjZtijlz5mD9+vW4e/cubt68iQEDBmDKlCnv7FCfMWNGjlzrnogoL0tJScGqVatw4MAB1KtXD2ZmZhrz582bp9PysxwgRkZGcHR0BADUq1cPZ8+excKFC/HFF18gKSkJL1++1DgKCQ8Ph62tbabrCgwMRJEiRdC2bVt06NAB7dq1g6GhITp37oxJkya9sw7jx4+Hv7+/8vzVq1coU6ZMVjeFiEivXb16FXXr1gUA3Lp1S2NeZvcJyW4ffCa6Wq1GYmIi6tWrB0NDQxw8eBAdO3YEANy8eRNhYWGZXlY4MjISU6ZMwV9//QUgrU8lOTkZQFrnUGpq6jvLNDY2hrGx8YdWnYhIrx0+fDhXy89SgIwfPx6ffvop7O3tERMTgw0bNiA4OBhBQUGwtLREv3794O/vDysrK1hYWGDYsGFwdXWFi4tLhnWNHDkSo0aNQqlSpQAAbm5uWLduHby8vLB8+XK4ubllzxYSEeVzt2/fxp07d9CkSRMUKlTonXcqzG5ZCpCIiAj06tULT548gaWlJWrWrImgoCC0aNECADB//nwUKFAAHTt2RGJiIry9vfHzzz9nWE9QUBBu376NdevWKdN8fX1x7tw5ODs7o2HDhggICPjATSMiyt+eP3+OLl264PDhw1CpVAgNDUWFChXQr18/FC1aVOcnZn/weSB5Ac8DIXo/PA9Ef7zP71qvXr0QERGBFStWoEqVKrh06RIqVKiAoKAg+Pv749q1azqtI6/GS0Skp/bt24egoCCULl1aY3rFihXx4MEDnZfPiykSEempuLg4mJqaZpgeFRWVIwONGCBERHqqcePGGjeOUqlUUKvVmD17Njw9PXVePpuwiIj01OzZs9GsWTOcO3cOSUlJGDt2LK5du4aoqCjlIra6xCMQIiI9Vb16ddy6dQvu7u5o27Yt4uLi0KFDB1y8eBEODg46L59HIEREeszS0hLffPNNrpTNACEi0mMvX77EmTNnEBERAbVarTGvV69eOi2bAUJEpKd27tyJ7t27IzY2FhYWFhpnn6tUKp0HCPtAiIj01KhRo9C3b1/Exsbi5cuXePHihfKIiorSefkMECIiPfXo0SMMHz4803NBcgIDhIhIT3l7e+PcuXO5Vj77QIiI9FTr1q0xZswY/P3336hRowYMDQ015rdp00an5TNAiIj01IABAwAAU6ZMyTBPpVL9632VsgMDhIhIT709bDensQ+EiCgfSEhIyPEyGSBERHoqNTUVU6dORalSpWBubo67d+8CACZOnIiVK1fqvHw2YRFRvrd48KFcK3vo0qY6W/e0adOwZs0azJ49W+kPAdKukbVgwQL069dPZ2UDPAIhItJba9euxfLly9G9e3cYGBgo02vVqoUbN27ovHwGCBGRnnr06BEcHR0zTFer1UhOTtZ5+QwQIiI9VbVqVRw7dizD9C1btqBOnTo6L599IEREemrSpEnw8fHBo0ePoFarsW3bNty8eRNr167Frl27dF4+j0CIiPRU27ZtsXPnThw4cABmZmaYNGkSrl+/jp07d6JFixY6L59HIEREeqxx48bYv39/rpTNACEi0nMxMTEQEeV5gQIFYG5urvNy2YRFRKRnQkJC0KpVK+V5yZIlUbRoUeVRpEgRnD17Vuf14BEIEZGeWbRoEdzd3TWmrVu3DqVKlYKIYNWqVfjxxx+xbt06ndaDAUJEpGdOnDgBX19fjWkuLi6oUKECAKBQoULo0qWLzuvBJiwiIj3z4MEDFC9eXHk+ZcoUWFtbK8/t7OwQHh6u83owQIiI9IyJiQkePHigPPfz84OFhYXy/OHDhzlym1sGCBGRnqlTpw5+//33d87ftm0bz0QnIqKMvvrqK3Tt2hXlypXDkCFDUKBA2rFAamoqfv75ZyxatAgbNmzQeT0YIEREeqZjx47w9/fHsGHDMGHCBKXz/O7du4iNjYW/vz86deqk83owQIiI9NCsWbPQvn17/O9//0NoaCgAoEmTJujWrRtcXFxypA4MECIiPeXi4pJjYZEZdqITEZFWGCBERKQVBggREWmFAUJEpEd27NiRI7erfR8MECIiPdK+fXu8fPkSAGBgYICIiIhcqwsDhIhIjxQvXhynTp0CAIgIVCpVrtWFw3iJiPTI4MGD0bZtW6hUKqhUKtja2r5z2dTUVJ3WhQFCRKRHvvvuO3Tt2hW3b99GmzZtEBgYiCJFiuRKXRggRER6xsnJCU5OTggICEDnzp1z5Mq7mWGAEBHpqYCAAABAZGQkbt68CQCoXLmyxr1CdImd6EREeio+Ph59+/ZFyZIl0aRJEzRp0gQlS5ZEv379EB8fr/PyGSBERHrKz88PR44cwY4dO/Dy5Uu8fPkSf/zxB44cOYJRo0bpvHw2YRER6amtW7diy5Yt8PDwUKa1atVKuSf6kiVLdFo+j0CIiPRUfHw8SpQokWG6jY0Nm7CIiOjdXF1dERAQgISEBGXa69evMXnyZLi6uuq8fDZhERHpqYULF8Lb2xulS5dGrVq1AACXLl2CiYkJgoKCdF4+A4SISE9Vr14doaGhWL9+PW7cuAEA6NatG7p3745ChQrpvHwGCBGRHjM1NcWAAQNypWz2gRARkVYYIEREpBUGCBERaYUBQkREWmGAEBHpsZcvX2LFihUYP348oqKiAAAXLlzAo0ePdF42R2EREempy5cvo3nz5rC0tMT9+/cxYMAAWFlZYdu2bQgLC8PatWt1Wj6PQIiI9JS/vz969+6N0NBQmJiYKNNbtWqFo0eP6rx8BggRkZ46e/YsBg0alGF6qVKl8PTpU52XzwAhItJTxsbGePXqVYbpt27dypGbSjFAiIj0VJs2bTBlyhQkJycDAFQqFcLCwvD111+jY8eOOi+fAUJEpKfmzp2L2NhY2NjY4PXr1/jkk0/g6OiIwoULY9q0aTovn6OwiIj0lKWlJfbv34+//voLly9fRmxsLOrWrYvmzZvnSPkMECIiPefu7g53d/ccL5cBQkSkp3788cdMp6tUKpiYmMDR0RFNmjSBgYGBTspngBAR6an58+cjMjIS8fHxKFq0KADgxYsXMDU1hbm5OSIiIlChQgUcPnwYZcqUyfby2YlORKSnpk+fjgYNGiA0NBTPnz/H8+fPcevWLTg7O2PhwoUICwuDra0t/Pz8dFI+j0CIiPTUt99+i61bt8LBwUGZ5ujoiB9++AEdO3bE3bt3MXv2bJ0N6WWA0Edp8eBDuVb20KVNc61syl+ePHmClJSUDNNTUlKUM9FLliyJmJgYnZTPJiwiIj3l6emJQYMG4eLFi8q0ixcvYsiQIWjaNG1H5cqVKyhfvrxOyucRCBHle02Dh+Zi6dd1tuaVK1eiZ8+eqFevHgwNDQGkHX00a9YMK1euBACYm5tj7ty5OimfAUJEpKdsbW2xf/9+3LhxA7du3QIAVK5cGZUrV1aW8fT01Fn5DBAiIj3n5OQEJyenHC+XAUJEpMf++ecf7NixA2FhYUhKStKYN2/ePJ2WzQAhItJTBw8eRJs2bVChQgXcuHED1atXx/379yEiqFu3rs7L5ygsIiI9NX78eIwePRpXrlyBiYkJtm7diocPH+KTTz5B586ddV4+A4SISE9dv34dvXr1AgAULFgQr1+/hrm5OaZMmYJZs2bpvHwGCBGRnjIzM1P6Pezs7HDnzh1l3rNnz3RePvtAiIj0lIuLC/766y9UqVIFrVq1wqhRo3DlyhVs27YNLi4uOi+fAUJEpKfmzZuH2NhYAMDkyZMRGxuL3377DRUrVtT5CCyAAUJEpLcqVKig/N/MzAxLly7N0fKz1AcyY8YMNGjQAIULF4aNjQ3atWuHmzdvaiyTkJCAoUOHolixYjA3N0fHjh0RHh6uzI+KisLnn38Oc3Nz1KlTR+MaLgAwdOhQnZ12T0SUn1SoUAHPnz/PMP3ly5ca4aIrWQqQI0eOYOjQoTh16hT279+P5ORkeHl5IS4uTlnGz88PO3fuxObNm3HkyBE8fvwYHTp0UOZPmzYNMTExuHDhAjw8PDBgwABl3qlTp3D69GmMHDnyw7eMiCifu3//PlJTUzNMT0xMxKNHj3RefpaasPbu3avxfPXq1bCxscH58+fRpEkTREdHY+XKldiwYYNyJcjAwEBUqVIFp06dgouLC65fv46uXbuiUqVKGDhwIJYvXw4ASE5OxuDBg7FixQqd3X6RiCg/2LFjh/L/oKAgWFpaKs9TU1Nx8OBBlCtXTuf1+KA+kOjoaACAlZUVAOD8+fNITk5G8+bNlWWcnJxgb2+PkydPwsXFBbVq1cKhQ4fQv39/BAUFoWbNmgCA2bNnw8PDA/Xr1//PchMTE5GYmKg8f/Xq1YdsBhGRXmnXrh2AtHuf+/j4aMwzNDREuXLlcqQrQOvzQNRqNUaOHAk3NzdUr14dAPD06VMYGRmhSJEiGsuWKFFCubnJuHHjULBgQTg4OGD79u1YuXIlQkNDsWbNGkycOBGDBw9GhQoV0KVLFyWg3jZjxgxYWloqD13c65eIKK9Sq9VQq9Wwt7dHRESE8lytViMxMRE3b97EZ599pvN6aB0gQ4cOxdWrV7Fx48Ysvc7S0hIbNmzAgwcPcOTIEVStWhWDBg3CnDlzsH79ety9exc3b96EqakppkyZkuk6xo8fj+joaOXx8OFDbTeDiEhv3bt3D9bW1rlWvlZNWL6+vti1axeOHj2K0qVLK9NtbW2RlJSEly9fahyFhIeHw9bWNtN1BQYGokiRImjbti06dOiAdu3awdDQEJ07d8akSZMyfY2xsTGMjY21qToRUb5y8OBBHDx4UDkSedOqVat0WnaWjkBEBL6+vti+fTsOHTqU4TaJ6XfFOnjwoDLt5s2bCAsLg6ura4b1RUZGYsqUKVi0aBGAtM6f5ORkAGmd6pmNLiAiojSTJ0+Gl5cXDh48iGfPnuHFixcaD13L0hHI0KFDsWHDBvzxxx8oXLiw0q9haWmJQoUKwdLSEv369YO/vz+srKxgYWGBYcOGwdXVNdPT6keOHIlRo0ahVKlSAAA3NzesW7cOXl5eWL58Odzc3LJhE4mI8qelS5di9erV6NmzZ66Un6UjkCVLliA6OhoeHh6ws7NTHr/99puyzPz58/HZZ5+hY8eOaNKkCWxtbbFt27YM6woKCsLt27fx1VdfKdN8fX1RoUIFODs7IykpCQEBAR+waURE+VtSUhIaNWqUa+WrRERyrfRs8urVK1haWiI6OhoWFha5XR3SA4sHH8q1socubZprZddYUyPXyr7icyXXyr7uVCXXyq5y47pWr3uf37Wvv/4a5ubmmDhx4odUUWu8FhYRkZ5KSEjA8uXLceDAAdSsWROGhoYa83lLWyIdaBo8NBdL126PlOhtly9fRu3atQEAV69e1ZinUql0Xj4DhIhITx0+fDhXy+cdCYmI9Nzt27cRFBSE169fA0g75SInMECIiPTU8+fP0axZM1SqVAmtWrXCkydPAAD9+vXDqFGjdF4+A4SISE/5+fnB0NAQYWFhMDU1VaZ/8cUXGa6ergvsAyEi0lP79u1DUFCQxiWlAKBixYp48OCBzstngBB9RK7cC8vtKlA2iouL0zjySBcVFZUj1wtkExYRkZ5q3Lgx1q5dqzxXqVRQq9WYPXs2PD09dV4+j0CIiPTU7Nmz0axZM5w7dw5JSUkYO3Ysrl27hqioKBw/flzn5fMIhIhIT1WvXh23bt2Cu7s72rZti7i4OHTo0AEXL16Eg4ODzsvnEQgRkR6ztLTEN998kytl8wiEiEhPBQYGYvPmzRmmb968GWvWrNF5+QwQIiI9NWPGjExvaWtjY4Pp06frvHwGCBGRngoLC8twZ1gAKFu2LMLCdD9kmwFCRKSnbGxscPny5QzTL126hGLFium8fAYIEZGe6tatG4YPH47Dhw8jNTUVqampOHToEEaMGIGuXbvqvHyOwiIi0lNTp07F/fv30axZMxQsmPZzrlar0atXrxzpA2GAEBHpIRHB06dPsXr1anz//fcICQlBoUKFUKNGDZQtWzZH6sAAISLSQyICR0dHXLt2DRUrVkTFihVzvA7sAyEi0kMFChRAxYoV8fz589yrQ66VTEREH2TmzJkYM2ZMhvuh5xQ2YRER6alevXohPj4etWrVgpGREQoVKqQxPyoqSqflM0CIiPTUggULcrV8BggRkZ7y8fHJ1fIZIESU73UZn3s/dVd0vP47d+4gMDAQd+7cwcKFC2FjY4M9e/bA3t4e1apV02nZ7EQnItJTR44cQY0aNXD69Gls27YNsbGxANIuZRIQEKDz8hkgRER6aty4cfj++++xf/9+GBkZKdObNm2KU6dO6bx8BggRkZ66cuUK2rdvn2G6jY0Nnj17pvPyGSBERHqqSJEiePLkSYbpFy9eRKlSpXRePjvR6aOUnztV6ePRtWtXfP3119i8eTNUKhXUajWOHz+O0aNHo1evXjovn0cgRER6avr06XByckKZMmUQGxuLqlWrokmTJmjUqBG+/fZbnZfPIxAiIj1lZGSEX375BZMmTcKVK1cQGxuLOnXq5NiFFRkgRER6Rq1WY86cOdixYweSkpLQrFkzBAQEZLiUia6xCYuISM9MmzYNEyZMgLm5OUqVKoWFCxdi6NChOV4PBggRkZ5Zu3Ytfv75ZwQFBeH333/Hzp07sX79eqjV6hytBwOEiEjPhIWFoVWrVsrz5s2bQ6VS4fHjxzlaDwYIEZGeSUlJgYmJicY0Q0NDJCcn52g92IlORKRnRAS9e/eGsbGxMi0hIQGDBw+GmZmZMm3btm06rQcDhIhIz2R2GfcePXrkeD0YIEREeiYwMDC3qwCAfSBERKQlBggREWmFAUJERFphgBARkVYYIEREpBUGCBERaYUBQkREWmGAEBGRVhggRESkFQYIERFphQFCRERaYYAQEZFWGCBERKQVBggREWmFAUJERFphgBARkVYYIEREpBUGCBERaYUBQkREWmGAEBGRVhggRESkFQYIERFphQFCRERaYYAQEZFWGCBERKQVBggREWmFAUJERFphgBARkVYYIEREpBUGCBERaYUBQkREWmGAEBGRVhggRESkFQYIERFphQFCRERaYYAQEZFWGCBERKQVBggREWmFAUJERFphgBARkVayFCBHjx7F559/jpIlS0KlUuH333/XmC8imDRpEuzs7FCoUCE0b94coaGhyvzExET07NkTFhYWqFSpEg4cOKDx+jlz5mDYsGHabw0REeWYLAVIXFwcatWqhcWLF2c6f/bs2fjxxx+xdOlSnD59GmZmZvD29kZCQgIAYPny5Th//jxOnjyJgQMH4ssvv4SIAADu3buHX375BdOmTfvATSIiopxQMCsLf/rpp/j0008znSciWLBgAb799lu0bdsWALB27VqUKFECv//+O7p27Yrr16+jTZs2qFatGipUqIAxY8bg2bNnKF68OIYMGYJZs2bBwsLiw7eKiIh0LksB8m/u3buHp0+fonnz5so0S0tLODs74+TJk+jatStq1aqFdevW4fXr1wgKCoKdnR2sra2xfv16mJiYoH379tlVHaJ/deVeWG5XgUjvZVuAPH36FABQokQJjeklSpRQ5vXt2xeXL19G1apVYW1tjU2bNuHFixeYNGkSgoOD8e2332Ljxo1wcHDAqlWrUKpUqUzLSkxMRGJiovL81atX2bUZRET0nnJ0FJahoSEWL16Me/fu4ezZs3B3d8eoUaMwfPhwXLx4Eb///jsuXboEFxcXDB8+/J3rmTFjBiwtLZVHmTJlcnAriIgIyMYAsbW1BQCEh4drTA8PD1fmve3w4cO4du0afH19ERwcjFatWsHMzAxdunRBcHDwO8saP348oqOjlcfDhw+zazOIiOg9ZVuAlC9fHra2tjh48KAy7dWrVzh9+jRcXV0zLJ+QkIChQ4di2bJlMDAwQGpqKpKTkwEAycnJSE1NfWdZxsbGsLCw0HgQEVHOylKAxMbGIiQkBCEhIQDSOs5DQkIQFhYGlUqFkSNH4vvvv8eOHTtw5coV9OrVCyVLlkS7du0yrGvq1Klo1aoV6tSpAwBwc3PDtm3bcPnyZfz0009wc3P74I0jIiLdyVIn+rlz5+Dp6ak89/f3BwD4+Phg9erVGDt2LOLi4jBw4EC8fPkS7u7u2Lt3L0xMTDTWc/XqVWzatEkJIgDo1KkTgoOD0bhxY1SuXBkbNmz4gM0iIiJdU0n6mXx67NWrV7C0tER0dDSbs+j9fGeZi2VH52LZ3O6cL1u77daH3zVeC4uIiLTCACEiIq0wQIiISCsMECIi0goDhIiItMIAISIirTBAiIhIKwwQIiLSCgOEiIi0wgAhIiKtMECIiEgrDBAiItIKA4SIiLTCACEiIq0wQIiISCsMECIi0goDhIiItMIAISIirTBAiIhIKwwQIiLSCgOEiIi0wgAhIiKtMECIiEgrDBAiItIKA4SIiLTCACEiIq0wQIiISCsMECIi0goDhIiItMIAISIirTBAiIhIKwwQIiLSCgOEiIi0wgAhIiKtMECIiEgrDBAiItJKwdyuABHlnHIJG3Kt7Pu5VjLpCo9AiIhIKwwQIiLSCgOEiIi0wgAhIiKtMECIiEgrDBAiItIKA4SIiLTCACEiIq0wQIiISCsMECIi0goDhIiItMIAISIirTBAiIhIK7wa70du8eBDuVb20KVNc61sIvpwPAIhIiKtMECIiEgrDBAiItIKA4SIiLTCTvSPXNPgoblY+vVcLJuIPhSPQIiISCsMECIi0gqbsOijVC5hQ66VfT/XSv548e+tGwyQ/8MT6oiIsoYB8pHrMj73PgJXcq1kIsoO7AMhIiKtMECIiEgrDBAiItIK+0D+D0+oIyLKGh6BEBGRVhggRESkFQYIERFphQFCRERaYSf6//lYT6i7ci8sF0snIn3GIxAiItIKA4SIiLTCACEiIq0wQIiISCsMECIi0goDhIiItMJhvP+Hw1mJiLKGRyBERKQVBggREWmFAUJERFphH8hHrlzChlwr+36ulUxE2YFHIEREpBWdHIEsXrwYc+bMwdOnT1GrVi0sWrQIDRs2BAD4+/tj9erVMDMzw8yZM9G9e3fldZs3b8batWuxc+dOXVTrX3FPnIgoa7I9QH777Tf4+/tj6dKlcHZ2xoIFC+Dt7Y2bN2/i9OnT2LBhA/bt24fQ0FD07dsX3t7esLa2RnR0NL755hscOHAgu6tEREQ6kO1NWPPmzcOAAQPQp08fVK1aFUuXLoWpqSlWrVqF69evw8PDA/Xr10e3bt1gYWGBe/fuAQDGjh2LIUOGwN7ePrurREREOpCtRyBJSUk4f/48xo8fr0wrUKAAmjdvjpMnT+Krr77C8uXL8eLFC9y9exevX7+Go6Mj/vrrL1y4cAE///zze5WTmJiIxMRE5Xl0dDQA4NWrV1rXXZ0Yr/VrP9SH1PtDcbtzHrc75+njdqe/TkSyszrZS7LRo0ePBICcOHFCY/qYMWOkYcOGIiISEBAgDg4OUr16ddm2bZskJiZK9erV5dy5c7Jo0SKpVKmSNGrUSK5evfrOcgICAgQAH3zwwUe+fzx8+DA7f6azlUok++Lt8ePHKFWqFE6cOAFXV1dl+tixY3HkyBGcPn06w2smT56Mly9fok+fPvDy8sKVK1ewa9cu/PTTTzh//nym5bx9BKJWqxEVFYVixYpBpVJl1+a8l1evXqFMmTJ4+PAhLCwscrTs3MTt5nZ/DHJzu0UEMTExKFmyJAoUyJsDZrO1Ccva2hoGBgYIDw/XmB4eHg5bW9sMy9+4cQO//vorLl68iFWrVqFJkyYoXrw4unTpgr59+yImJgaFCxfO8DpjY2MYGxtrTCtSpEh2bkqWWVhYfFRfrHTc7o8LtztnWVpa5niZWZGtsWZkZIR69erh4MGDyjS1Wo2DBw9qHJEAaek6aNAgzJs3D+bm5khNTUVycjIAKP+mpqZmZ/WIiCgbZfswXn9/f/j4+KB+/fpo2LAhFixYgLi4OPTp00djuRUrVqB48eL4/PPPAQBubm747rvvcOrUKezZswdVq1bN9aMKIiJ6t2wPkC+++AKRkZGYNGkSnj59itq1a2Pv3r0oUaKEskx4eDimTZuGEydOKNMaNmyIUaNGoXXr1rCxscGaNWuyu2o6YWxsjICAgAxNavkdt5vb/TH4WLf7fWVrJzoREX088mbXPhER5XkMECIi0goDhIiItMIAISIirTBAiIhIKwwQomzEQY30MWGAUK5Qq9W5XYVspVarkZqamuFabPk1UPLb3y8n7N+/H8+fP8/tamQrBkg24pfq/eXVi8NpQ0RQoEABGBgY4Pbt21i0aBEOHjyIuLi4HL+4Z05J//u9eVFTSpPZTsODBw/g7e2Nhw8fAsg/vxX551uci/755x8Amj+K+XXPM7uICCZOnIgdO3Yoz/WVSqWCWq2Gv78/6tSpg+3bt6Nv377o0KEDjh8/ntvV05nZs2dj+PDhAD7u69ZFRUVh3bp1iI2NBYAMOw1qtRqmpqZo2LAhzp49CyD/7EDlj63IRf3798fw4cORmJiI48ePY8CAAQAyfog+Zpn9uDx+/Bj79u3DrVu3AOj/+/XHH3/g0KFDOHLkCA4dOoTbt2/j9OnTmD9/PiIiInK7eh/k7b3l9LBPSUnB0aNHAQAGBgY5Xq+8Yt++ffDx8cGZM2eUaVu2bMHJkycBpIWFqakpkpOTlfeSRyAfufQvUffu3XH27Fk0atQITZs2hampab75cHyo9Pchsx+XUqVKAfj/d13Thz1YEclQz9TUVIgItm/fjk6dOqFu3brYvXs33N3dUbRoUfTu3Rs2Nja5VOMPIyJK8xyQtqcN/P+wt7Kygo2NDcLCwnKtjrnhzaNlEUHXrl3h4uKCuXPn4tWrV/j7778xffp0dO3aFZcuXUJSUhLMzMxQoUIF7N69GwCPQD5a6T+K6R+i6OhoREREICwsDDt37sTChQvzzYfjQ7z5w/Py5Ut07NgRy5cvx7Nnz5RlvL29sW/fPgD6sQerUqlgYGCAyMhIXLhwAWq1GgYGBlCpVHj+/Dnu3buH3r17o0ePHvD29salS5fw2WefISEhAfHxuXdLVW2ICFQqFVQqFcLDwzFx4kR069YNwcHByjJVq1bFhQsXYGpqmnsVzQUqlQqvX79W/g8AS5YswZ49e/DHH3+gatWqOHToENzd3dGzZ08sXrwYAODq6orU1NR81ZHOX7r3pFaroVarlR/F9A+Oo6MjVq9ejUKFCuHSpUtKO6g+t+l/iPTtTn9/+vbti9mzZ6N48eJYuXIlhgwZoixbrFgxmJub5+kmnvQjjvTt+u6771C+fHl06tQJX3zxBUJDQwEArVq1wrp16xAZGYlbt25hypQpsLCwwJMnTzBz5kzcvXs317ZBG+l/v2+//RadO3eGsbExKlSogI4dO2Lnzp1ISkpCw4YNUbJkSezduzeXa5tz1Go1Fi1ahC+//BIAEBMTg02bNqFWrVro2bMnpk+fjjt37qBIkSL49ddf0a1bN8yZMwcLFy7E69evERERkelN8vRWDt06V6+p1Wrl/5cuXZIhQ4bIhAkT5NixYxITEyMiIsOHD5fatWtLcHBwblUzTzl//rzs3r1bGjZsKCdPnhQRkX379omjo6O0bdtWrl+/LiEhIWJmZiZxcXG5XNvMpaamajx/+PChtG3bVo4ePSq7d++WcuXKyaBBg+TZs2cSEhIizs7O0rlzZxERSU5Olri4OPnmm2+kYcOGcubMmdzYBK0dPXpUVq9eLZ9//rkcO3ZMkpOTRURk4MCB4urqKmPGjJFXr16Jm5ubrFixIpdrm7OWLFkilStXlu7du4tKpZK+ffuKiMirV6/E2NhYpkyZovGZ3rp1q9SpU0eaNm0qKpVK/v7779yqerZjgLxDfHy87N27V0REkpKSRK1Wy6RJk8TExES+/PJLqVu3rlSuXFn69esnIiLR0dFSqVIlGT58uERERGis680Aym/UanWG7du7d6+oVCqpUaOG7NmzR2NeaGiotG3bVqpWrSrr1q2TatWqyR9//JGTVf5PKSkpyv+PHTsmrVq1kn79+sn48ePlu+++U+atXLlS6tSpI7/88ouIiGzfvl0sLS2lWrVq0q1bNylfvrw4OTnJiRMncnwb3pdarVaCMv3v+OLFC7GwsJAiRYrIpEmTREQkISFBRERiY2Nl165dYmJiInPmzBFbW1sZN26ciGQM3PwiNTVVY9t2794tKpVKzM3NZdeuXcoyIiIzZswQKysrOXfunMY6Dhw4IN26dROVSiU7d+7MucrrGAMkE6mpqfLDDz+ISqWSFy9eiIjIrVu3pG7durJx40YREYmJiZHVq1eLiYmJbN++XUREFi1aJJUqVZJly5ZJXFyc+Pr6yqVLl3JpK3Qvfa9URDMkIyMj5csvvxRLS0t58OCBMj39SxYRESGjRo0SU1NTMTExkW3btuVcpd9TbGysnD9/XipVqiT9+vUTFxcXUalUMnHiRGUZtVotHTp0kNatW8vVq1dFROTcuXPy888/y5gxY2TVqlW5Vf338mZQpgdE+t9x6dKlYmBgIFOmTFGWefNv/Pvvv0uXLl1EpVJJs2bN5PXr1zlU65z15nv0zz//yO3bt2X37t0yYsQIqVmzpixatEhERBITE5XlypQpI3369JHo6GiNdSUnJ4u1tbWyw5EfApcB8g537tyR2rVrS7du3UREJDg4WAoUKCB37txRlnn16pX069dPnJyclGmdOnWSmjVrSvHixaV06dJy48aNfH0EIiIybdo0GTVqlMyaNUvCw8NFROTIkSNiaGgoa9euFZHMvyxLly6VEiVKyNdff/3OZXLC23+fkJAQadCggTRq1Eh++uknERF5+vSpdO7cWTw8POTu3bvKsvv375cGDRrId999pzd/53nz5snt27eV5wEBAeLp6Sndu3eXefPmKdOdnZ2lffv2yva+vX0RERHSrl07qVu3riQkJOjN9mdVUlKSDBgwQIoXLy4zZsyQJ0+eSHx8vBIi//zzj4iIEqK///67mJiYaBx9pwdM+/btZeDAgTm/ETrCABGR+/fvy9KlSzXaJlNSUmT9+vWiUqnkwoULcv78ealatar8+eefGq/9/fffxcnJSS5evCgiIs+ePZOjR4/KgQMH/rPcZ8+eZet25JT0H4pz585JhQoVpEaNGvLtt99K5cqVpX379ko/UL9+/aRs2bIZXp8eFHFxcTJmzBjp0KGDxtFMTnm7aSLdrVu35MsvvxRzc3ONI8itW7eKm5ubfPvttxrL9+7dW+rUqaMXR5vh4eFiZGQkixYtkpSUFGnQoIFUq1ZNVq1aJZMmTZKSJUvKhAkTRERkx44dUqpUKVm5cmWGcEh/fvHiRTE1NZXHjx/n+LbkhCdPnkiTJk3kk08+kSNHjsjt27eVz+rBgwelUaNG4uvrKyKaO0B16tSR+vXraxyFJCYmSrVq1WTlypU5uxE69NEHSFRUlDg6OopKpZKyZcvKjh075Pnz5yKStofl7e0t7u7ukpqaKrVr15axY8dq/PAHBgaKjY3Ne3+BUlNT5dmzZ9KhQwcZNWqU3uy1ZfZDO2zYMKUPSERk06ZNYmxsLIMGDRIRkevXr4u1tbVMmzYtwzrSt3vw4MHSqVOnd5ahK2+WdfPmTdmyZYuEhoYq0/744w+xtbXV6PNISUmRYcOGSZMmTeT06dPK9Lt372o8z8seP34sLi4uMn36dFm/fr14e3sre8c3btwQGxsbqVu3rvIZb9eunbRo0UIuX76c6fr++usvqV27tty4cSPHtkEX3vU9/P3336VSpUpKE+WbEhMTZdq0aVKlShU5cuSIiIjs2rVL/vnnH3n8+LFcuHBBWfb169cydOhQKVOmjNy7d08n25AbPvoAERGZPn26NGzYUJycnKRx48bi7u4uN2/eFJG0phgDAwMJCgqSTZs2iZOTk3zzzTfy/PlziYyMlF69eskXX3zxXm3AkZGRyv979eolTZs2lYMHD+psu7JbXFycbN++XWJiYuTFixfi6ekpx48fl5iYGOnZs6cULlxYRo4cKU+fPhWRtC/lnDlzxMjISJ48eZJhfZGRkVK3bl0ZPHhwjtQ/JSVFkpKSlOcJCQnSp08fMTMzEycnJ7G1tZX+/ftLcnKyxMbGyqhRo6R69eoaX/iTJ0+Kh4eHMtoqL0sPybeD2d3dXYYNGyY//PCD+Pj4iIiIj4+PmJuby9ChQ+XRo0fKsteuXRM7OzuZMGGCxMfHa6wnISFBnJ2dpU6dOvLq1atM65DZIIu85t+OfkeOHCk1a9bUmPbm9vz999/Stm1bKV26tDg7O4uJiYnGzsSb731+PEpjgEjaqJP27dtL9+7dJSQkRD755BOpWLGiTJ48WcLCwmTChAliZ2cnIiILFiwQKysrqV69utja2kq1atXkypUr/1nGwYMHpV69erJ69WoRSfvgOTs7i6+vb4bOtrwgsy/9nDlzxMrKSkTSwsTa2lq+/PJLKV68uHh5eSnNeCJpPzyJiYkSEREhjo6OsmbNmgzrmz59uvTp0yfDD5MuLF26VPr37y979uxRvtTz58+XqlWryo0bN+TBgweyc+dOMTIykqlTp0pqaqqcPHlS3N3dM7RZT5o0SebMmaPRwfpfMhvtpEu//fabdOzYUcLCwpRp6T+UkyZNkurVq8uwYcPExcVFLCwsxMvLS86ePasse/ToUWWH56uvvpIZM2ZkCKJ79+7JhAkT3vn5ffOHOTeaKP/L23+HxYsXy6+//iqnTp1Spv34449Srlw5pc/ozfcgvb/v6dOnMn36dPnhhx9yoNZ5CwPk/2zcuFHq1aunDMtbu3atlC5dWlxdXWX27NlStGhRmTNnjoiIXL16VXbs2JGl4ac3b96Uzz77TDp37ixRUVEiIvL9999Lw4YNZcOGDdm/QR/g7S9W+g/l2bNnpWTJksoQxbFjx4pKpZKtW7dqLH/06FEZNWqU8qVLP1cmXfqX8M2jAV3Zt2+flCtXTqpXry7+/v6yY8cOef36tbx+/VqaNGmSof16xowZUrZsWbl8+bKkpKTInDlzpGrVqrJ//35lne9bb7VaLSkpKfLTTz8pe/XpQ8J17eDBg1K9enWpUaNGhnOTpk2bJi1btpRly5ZJsWLF5KuvvtKY//jxY+nWrZsyAOJD6puYmCjjx4+XQYMGyU8//aQ0BeWlEUgbNmwQW1tbqVmzpjRo0EDMzMxky5YtIpI2/NbNzU38/Pw0XnP27FlZvHix0tz9prwYlrrCAPk/SUlJ0qVLF2ndurUyquLSpUsyfPhwsbOzE5VKJSqVKsM5HlmxYsUKcXZ2lrlz54pI2pFP8+bN5csvv5T79+9ny3Zkl0ePHsmiRYuUYcwiIqdPn5YGDRooAwlCQkLEwsJCvv76a7l8+bLExsbKnj17pG7dutKrVy+NvqLcaMoIDg6W6tWry4wZM+T169fKUNV09erVE39/fxHRHIZpbW0t8+fPF5G0TmJ3d3flZLGsun//vqhUKvnll19k1qxZUrBgQfnf//6n3QZlUXR0tDRq1EgqV64sy5YtU6b/9ddfUrBgQYmMjJSuXbtKgwYNZMGCBXLt2jX5888/pW7duuLh4aH0a6T/3bL6o3/gwAGxsbGRJk2ayMiRI8XLy0uqVq2q8ZnKaW8fNQYHB0vjxo2V4bgiIj169JCqVavK5cuXRa1Wy6xZs8TGxkbGjRsnu3btkg0bNkiFChWkT58+Ehsbq7G+vN5cl90YIG84ffq0uLq6ytSpUzWm7969W5o0aSKurq4SFRX13h+S9C9c+oc2OjpafHx8pFmzZsqIrzVr1kidOnVkwYIF2bglH27x4sVSsWJFadWqlbx8+VKZXrJkSVmyZInyfPPmzeLk5CTFixeXxo0bi6mpqXLyWW4bO3astGjR4p0/WFOnThVHR0dlpyD9yMLd3V2GDBmiLPc+TZSZSV9fu3btpFChQlKyZMkcP+fl7t27MmnSJDEwMJDp06dLZGSkRERESLly5WTHjh3y6NEjmTRpkpibm4uzs7PyQ5kVbzbPpUtOTpY+ffpIQECAMm3Dhg2iUqlk+vTp2bFpWnv+/Lmyw3b69GnlaOPN85eMjIykX79+kpKSIrGxsbJixQqpWLGiVKtWTcqUKaPsYHzsGCBvUKvVMmLECPH09FSGZKaHxZt7qP/l39rGd+zYIe7u7jJmzBhlWpcuXeTTTz/NcPaqrmU2NPPNvc3bt2+Lvb29dO7cWRmW3LdvX2nbtq3G6+7fvy+HDx+WDRs2aBzSZ6WPQBdatmwpX3zxhfJ8z549Mn/+fBk5cqQsXLhQli1bJp9//rl8+eWXyjJ3796VSpUqZRiu/b7e3ubo6GipWLGimJiYyKhRo5TpOb2n+t1330mVKlWkbdu2cufOHalQoYLSRCWS1mx1+fJljbB9n7/fm801L168UPqzYmJipFKlSnL69Gl59uyZtG7dWqysrCQgIOCdHe7Z4e339e3mxujoaKlXr55MnjxZRP7/Np45c0Zq1qwpbdq0kcePH8v69evFxMREgoKCNIadh4aGamxzbn/GcxsD5C1hYWHi7u4uPXv21Or1b36A165dK8OHD5e5c+dqnLjl7+8vjRo1Un6UDx8+LHXr1pWJEyfmSPtpSEiITJgwQfmxz+w6TelfmpMnT0qvXr3E1tZWrl27JqNGjZKePXv+65FYSkpKnjiUDwoKEpVKJR4eHlKuXDmpXLmytGjRQqpXry5VqlSRsmXLytatW8XS0lIaNmwogwcPltKlS4uXl5fSQfq+3v4hiY2N1djpWLt2rZiamsrRo0ezZduyKiUlRY4cOSLFihWTHj16iIGBgdL/k9myWf37jR49WipVqiS//fabpKSkyO3bt8XNzU06duwohQsXlq5du2oMk87unaW3j4L27duX6d8wPDxcLC0tlY7y9L/b2LFj5bPPPlMGDmzcuFFUKpV4eXnJw4cPM6znYw+OdAyQTPzwww+ycOFCrX8E//77b2nUqJHY2dnJV199JeXLl5c2bdrI4cOHRUTk1KlT4uXlJb169VI+9P7+/lKvXj3lsii69Mcff4iFhYXMmTNHucDbrVu33rl8bGystGnTRlq2bClubm5Srly5dwbdf71nOR0sO3bskLFjx8qMGTPk+PHjSpAHBwdLmTJl5I8//pCLFy9KQECAdO7c+YMvDLhixQqpUaOG0rf15t521apVpX379krfUG6E7IkTJ+SLL74QlUolnTp1ytKRdWbOnz8vFSpUEFdXV/nf//4nFy5cUD7Tbdq0ERMTE9m0aZPGa4KDg6Vv375KX+OHevPH/OLFi1KjRg2xt7eXCxcuyLNnz6R58+ayePFiefjwoTx+/FiqVaumnLeRrnr16jJ06FDl+ZQpU2T06NFSpUoVjWHNpIkBkokP+WInJSVJv379pH///kqnbXBwsBIi6WbOnCnOzs6ybt06EUkbpdWyZUs5fvz4h1X+PTk5OYlKpZLPP//8vTo14+Li5LvvvpPChQv/Z+BkJq/tsR0+fFisrKy0bqp6W0REhHTo0EHKly8vCxYskI0bN4qjo6P07NlTOafo6NGjolKpNPpB0ofZ5uSopOfPn2f4Uf8vmfVziIhMnjxZORH0badPnxYTExOZOHGiXLt2TaKiomT9+vVSpUoVGTlyZLYOX4+JiZEuXbooR1bpI/8iIyNl+PDh4uzsLOXKlZPPP/9c7O3tlaOT9M/lwoULRaVSSe/evaVZs2Zib2+vnM9E78YAeU/vupRDZtMOHDgg165dE5G0jtoiRYpI3bp1xcHBQRYvXiwiaWPoO3XqJO7u7spJdrrYI83sch2nTp0Sb29vsbGxkXnz5intxO8qP326Wq2WgwcPftCe47Jly2T06NGyaNGiLIdQdomLi5PRo0dLixYtstxUlZqammkYnj9/Xnx9fZWwEBFp3ry5FClSRBYtWqScaNqxY0epVKmSzJkzRzw9PaVu3bq5Gq7vU/aby7zdp+Dp6SktWrSQhw8fyurVq+WHH36Qbt26yfr160Uk7e9dt25dKV68uDRo0ECKFi2qMeIpO/z5559ibm4ujRs31jjv5W2rVq0SLy8vUalUMmDAgAxXSZ45c6Z069ZNBgwYoBFuH9Ow3KxigGRRfHx8hh/kzPbM1Gq1DBo0SOrUqSN79+6V58+fS+PGjaVBgwZKE8aSJUtkzJgx8vLlS52FR7q///5b/vrrL40vhr+/v9SqVUtpWsuKrH6pbt++LXXq1JGyZcvKyJEjpVatWtK8eXOlT0DXzTl3796VX3/9VZYuXSqOjo5SrVq19778yLJly5TLsby53W82/zx8+FAJj3nz5omVlZV06tRJWrVqJdWrV1fa3J8/fy6DBg2S+vXry6BBgz64CUkX3hUq3333nbRq1UrGjBkjv//+u4ikHVWVLl1aChUqJF5eXtKpUyfx9PSUKlWqSGBgoIik9TscP35ctm7dqpNzfw4ePChVqlRRLnyZ7o8//pBBgwZpXOMuMDBQnJycpFGjRmJrayvdu3fXuDbVm/XLa0fNeRED5D2lpKRIly5dlJE0ISEhMnv27Hcuf+XKFSldurTGCWiNGzeWggULyoABA0REd80Wb6735cuX0rFjRylatKg4OjpKvXr1lCuuvnjxQipVqiTDhg37oPNb3pbZF2/q1KnStWtXZV5wcLCYmJhIu3btsq3cf7Njxw5xdnaWRo0aZWkPOD4+XkaPHi2mpqZKB+vatWulXr160r59+ww/Wlu2bJGaNWsql/0PDQ0VAwMDmThxovIev379OsPJlblNrVYrV6B+uxn1/v37UqdOHalZs6ZMmjRJGjduLIUKFVKGv964cUMuX74sT58+VUZhOTg45NjQdLVaLV999ZU0a9ZMoqKi5OnTp9K8eXMpXLiwzJ07VyP0hwwZolxh++jRo+Lj4yNly5bN0FGel050zMsYIFmwfv16MTMzk5YtW4pKpZKAgIB37qUEBwdLxYoVlS/Z4cOHpUuXLjJ16lTlzPPs3ut+8/yM9LOghw4dKo0bN5a///5bzp49K2PGjBELCwvlLPoff/xRKlasKJs3bxaRtA7z9C9TVr9Eb78X6T8mSUlJ0rJlS+VyJv7+/lK4cGHp1auXxsgcXfv777+zdOSU/ve5fv261K9fX7p37y7Xr1+XihUryvTp06VDhw5SqlQppVkyPj5eevfuLW3btlVOMFu6dKkULlxYSpYsmaHjNi94+29crFgx6dWrl8a5P+vWrZM6deooncnpw91Lliyp0QyZ/t5u27ZNatWqlaPXebt9+7Y0btxYqlevLoULF5Y+ffponJybXrfhw4dL9+7dc6xe+R0D5F+8/QO/ZMkSUalUUrp0aaWP413u3LkjnTp1Emtra/nss8/ExMRE5s+fr7PD4mvXrmnc8EitVktERIRYWVkpTQkiaUcd/fv3l3LlyinTmjdvLvXr15d+/fqJSqX64Isbrly5UmrWrCmzZs0SkbQOzjp16kj//v2lTJky0rBhQ40fl5s3b+bp5oLY2FhZtWqVWFtbS4sWLZQdgOfPn0tAQICYmpoqtzBt3769eHh4yPHjxyU0NFS6dOkiu3fvznKnta69GRzx8fFy7NgxiYuLkzNnzih3zUv//Pfq1Uvc3d1FRHMnwcbGRjnp9vz58/L111/Lp59+KmZmZrlyot2sWbPEzs5O48jn7e9w48aNMx2+zH4O7TBAMpG+9/62U6dOSUBAgKhUqve638ft27dlwYIFMmTIEDl//rxO6pkuISFBZsyYIaampsqoqocPH0rNmjU17oynVqvlxIkTYmdnp4wGunr1qkyfPl1at26ttG1r4+nTp+Lh4SGlS5eWhQsXyp9//qn8sI4bN05UKpXGDYvSy/bz89O49HVuevvvfvHiRenQoYMsX75cBgwYIMbGxhrDOkNDQ6VSpUrSo0cPEUkL8ooVK0r58uWlUKFC0r179xy55pe2Zs6cKU5OTtK6dWspV66cpKSkSIsWLaRx48bKkeisWbOkcuXKShNcer/N6NGjxdXVVUTS+jmGDh2q3Cs9N7x8+VK8vb3Fx8cnw3u+bt066d27t8yePVsv7tuiLxggb3lzz+zevXuyatUqOXfunMYHslOnTv96CWtdi4+Pl2nTpikjXdLdvn1batSooZx9HRERIY0aNZKRI0dq9HFcv35d7O3tZffu3e8s47+OCDK7suyvv/4qn3zySab9KeHh4VK4cGHx9/eXy5cvS0JCgpw5c0Y++eQTadeuXaYna+Wm9Oa3ixcvSuXKlWXPnj3y559/iomJiXKuSPqORmBgoBgYGEhISIiIpH1u9u/fL9evX8+1+v+XO3fuiKenpzg4OMi2bdvk/v37ylH1nTt3RKVSyc8//ywiafe4d3NzU87eTpd+Bev0z0BeuK3tb7/9Jg0bNpRff/1VRNKGEjds2FDMzMwy7EjRh2OAZCL9xkFFihSRmjVrSqlSpaRt27bKeR137tyRQoUKZehAzQnJycny1VdfKRd39Pf3l2PHjinzfv31V1GpVMqonxkzZkjt2rWV+zCLiBw7dkwcHBwyvcbTfwXHv80fN26cctn7HTt2yPLly8XPz0+WL18uImmjYmrXri2FCxeWFi1aSKFChWTw4MF5ag89JiZG2rVrJ6NGjVJCxM3NTRn4MHDgQLG3t9d4H8LDw+WTTz4RBweHXKmzNr7//ntxd3fPcHOj9L+Fr6+vlClTRu7evSsJCQkyfvx4KVWqlAQGBsrdu3clODhYKlWqpPxt84qkpCT58ssvpUWLFtK2bVsxMDDQuK6ZCMMjOzFA3hITEyNjx44Vd3d35XILDx8+FJVKJQsWLFA6R7/55huxtbWVq1evSlJSkvz000//2S+SXYKCgqRp06bi7Owsn376qVhbW8vKlSslMjJSkpOTxdvbW7kJTmpqqvTo0UPKli0r7du3lwkTJoi1tbX07dtXaV7Sxv/+9z/54osvZOzYsbJ3714RSbsVbJkyZZTzXtq0aSOenp5ibW2ttEs/fvxYgoKCZO3atRr3l88rnjx5IjY2NmJubi7Dhg0TkbTBE/b29hIbGyshISFSoUIF5T7ub577k365/7wuPDxcLCwsMh1F+OZNqCwtLZVRh0+fPpVvvvlGLCwsxMnJSczNzTPc2jevSG+ibdGihcZnjP0c2Y8B8pa4uDhZuXKlMnb84MGD4uLiIkZGRmJnZ6dx3ShHR0epVauWWFlZSdWqVXP0xLhRo0ZJy5YtZfv27bJkyRKpWrWq1KpVSy5evCgHDx4US0tLZXx7ZGSkbNq0SXr27CnNmzdXDu//TWxsrLRs2VL27duXYXrnzp2lWLFi4ufnJ3Xr1pUSJUooHeahoaFy6NAhuXfvnnJSl7u7u/Tp0yeb34Hss3nzZuW9Sj9PY+zYsVK0aFH55ZdfZNOmTdK6dWv5448/RK1Wy+zZs8XKyipPBuD7uHLlipiZmSkd+2+PxErv4/j555/F1NRU44S7e/fuycGDBzO9D0ZekT4kOV1euTZbfsQAyUT6l2Pq1Klib28v48aNk5iYGClTpoz0799fOXv53r17snr1amUIbE66cOGCeHl5Se/evUVElLHvtWvXlg4dOkjXrl2lbNmyGq95u/npv5qr3NzcxM3NTeOOgcePH9c4MS46OloWLFgghoaGGp2T6V/YK1euiJubm8ZIsLwkJSVFpk6dqow8EhHx8/OTb7/9Vvbs2SNffPGFDBo0SJydnZV7aly9elWcnJyyfNnzvOLGjRtiYGAgP/7443/ulbu4uIiXl1e2nieUk/Ly6L78gAHyDg8ePJAGDRooe6YpKSnSuHFjsbKyki1btuSJE43mzp0rDRo0UH6cY2Ji5ODBg1KuXDkpU6aMqFQq+f777zO87n37Of7++28xMjLSOFN38eLFym1t0yUnJ4u7u7t07NhRRNKCdeHChdKnTx8xNTWV/v3758kzrt80bNgwcXV1ld9++03u378vRYsWlYSEBNm/f79069ZNVCqVchn7pKSkPHcDsKzy8PAQZ2dnZTve3kMfM2aMzJw5U06ePCm2trZ5bpAD5Q0FQJk6d+4c/v77b7i7uwMA7t+/j0qVKqFIkSK4dOlSLtcuTdeuXVGuXDls2bIFT548gbm5OZo2bYoDBw7Az88PNWrUQMuWLTO8zsDAINP1iQhSU1OV+VWqVMGYMWMwadIkPH36FABgaWkJW1tbnDt3DgCQmpqKggULonfv3jh//jyio6NhbGyMZ8+e4fXr1zh+/Dh++eUXGBkZ6ehdyB6zZs2Ch4cHJkyYgNOnT+Ozzz7Dhg0b0Lx5c4wfPx4AEBQUhIiICBgaGqJs2bK5XOMP4+/vj3PnzmHVqlWIjIyESqWCWq0GAFy7dg33799H5cqV4eLigidPnqB06dK5XGPKk3I7wfKqhIQEsbKykmbNmsnEiRPFwcFBJk+enCeGKr5p/fr14urqqvRBZIdbt25Jnz59ZNq0afLkyRMpVaqUjB07VkTSzoVxd3eXb775RuM1o0ePFhcXF0lISBC1Wp3hVp/6IDIyUrl7X5MmTWTq1KkaV1TOb5f1HjVqlBQsWFDatGkje/bskf3798vEiRPF1tZWBg0alOcut0J5DwPkXxw4cEC6d+8uderUyXACXF6RkJAggwYNkurVq8vFixczzM/qyJOpU6eKiYmJ9OjRQ9atWydRUVGybNkyMTExkatXr4qIyIQJE6RmzZoyffp0iYiIkNDQUGnSpIkSMvquf//+olKppF69enmiqVKX5syZI1WrVhVra2upWbOm1K1bVxlVR/RfVCIiuX0UlJelpKRApVK9s9knL9i/fz+OHz8OPz8/WFpaar2eS5cuoXfv3ggICEC7du2U6SKCBg0awN7eHtu2bUN4eDjWr1+PcePGoVq1arh9+zZatGiB1atXw8LCIhu2KHeICFQqFZ49e4YZM2agSpUq6N+/f25XS+diYmKQmpqKx48fo2rVqrldHdIjDBBSLFiwAD/++COOHz8OOzs7AIBarUaBAgVw6NAhNG/eHLt378ann34KALh+/ToePnwIGxsb1K5dOxdrnn3SQ+Rj8jFuM2UPBkg+kv5jr61x48Zh7969uHDhAlQqVYYfld69e+Ps2bM4ceLEBx3pEFH+wFFY+ciHhAcAdOrUCVeuXMGRI0eU8BARPHv2DFu2bMG3336L+/fv48aNG9lRXSLSczwCIUVycjL69OmDkydPYsuWLahYsSIAYPbs2fj777+xePFimJmZwdzcPJdrSkR5AQOENCQmJuKTTz7Bw4cP4eDggH/++QcFChTAmjVr4ObmltvVI6I8hAFCGURGRuLKlSsICQmBjY0NevTokdtVIqI8iAFCRERaYSc6ERFphQFCRERaYYAQEZFWGCBERKQVBggREWmFAUJERFphgBARkVYYIEREpJX/B9T0qLmFuIQQAAAAAElFTkSuQmCC;clipPath=inset(0% 9.5% 0% 2.5%);" vertex="1" parent="mIjLraYWU1ijbTPT-EfQ-20">
          <mxGeometry x="323" width="352" height="600" as="geometry" />
        </mxCell>
        <mxCell id="mIjLraYWU1ijbTPT-EfQ-18" value="" style="shape=image;verticalLabelPosition=bottom;labelBackgroundColor=default;verticalAlign=top;aspect=fixed;imageAspect=0;image=data:image/png,iVBORw0KGgoAAAANSUhEUgAAAZAAAAJYCAYAAABM7LCIAAAAOXRFWHRTb2Z0d2FyZQBNYXRwbG90bGliIHZlcnNpb24zLjcuMCwgaHR0cHM6Ly9tYXRwbG90bGliLm9yZy88F64QAAAACXBIWXMAAA9hAAAPYQGoP6dpAAByt0lEQVR4nO3dd1gU1/s28HtFioCgiAgWLKBi7wKCBixgNLFrNBbsJWIBS9REiRp7bDHGEhVL9GusiSWKFTX2hi0WrBgLoChSpO7z/sGPeV3BRFYWWLw/17WX7szsnDPL7t4z55yZUYmIgIiIKIsK5HYFiIhIPzFAiIhIKwwQIiLSCgOEiIi0wgAhIiKtMECIiEgrDBAiItIKA4SIiLTCACEiIq0wQIiISCsMECIi0goDhIiItMIAISIirTBAiIhIKwwQIiLSCgOEiIi0wgAhIiKtMECIiEgrDBAiItIKA4SIiLTCACEiIq0wQIiISCsMECIi0goDhIiItMIAISIirTBAiIhIKwwQIiLSCgOEiIi0wgAhIiKtMECIiEgrDBAiItIKA4SIiLTCACEiIq0wQIiISCsMECIi0goDhIiItMIAISIirTBAiIhIKwwQIiLSCgOEiIi0wgAhIiKtMECIiEgrDBAiItIKA4SIiLTCACEiIq0wQIiISCsMECIi0goDhIiItMIAISIirTBAiDIRHBwMlUqF4ODg3K6KXlGpVPjuu+9yuxqUQxggem716tVQqVQaDxsbG3h6emLPnj06Kzc+Ph7ffffde//Apv8gpz8MDAxgY2ODTp064fr161rXY/r06fj999+1fn12uXfvHnx9fVGpUiWYmprC1NQUVatWxdChQ3H58uXcrl62+vPPPxkSBAAomNsVoOwxZcoUlC9fHiKC8PBwrF69Gq1atcLOnTvx2WefZXt58fHxmDx5MgDAw8PjvV83fPhwNGjQAMnJybh8+TKWLl2K4OBgXL16Fba2tlmux/Tp09GpUye0a9cuy6/NLrt27cIXX3yBggULonv37qhVqxYKFCiAGzduYNu2bViyZAnu3buHsmXL5lods9Off/6JxYsXZxoir1+/RsGC/Fn5WPAvnU98+umnqF+/vvK8X79+KFGiBP73v//pJEC01bhxY3Tq1El5XrlyZQwZMgRr167F2LFjc7Fm2rlz5w66du2KsmXL4uDBg7Czs9OYP2vWLPz8888oUCDvHuzHxcXBzMwsW9ZlYmKSLesh/ZB3P9X0QYoUKYJChQpl2BtUq9VYsGABqlWrBhMTE5QoUQKDBg3CixcvNJY7d+4cvL29YW1tjUKFCqF8+fLo27cvAOD+/fsoXrw4AGDy5MlKs5Q2zRqNGzcGkPZD/KYffvgBjRo1QrFixVCoUCHUq1cPW7Zs0VhGpVIhLi4Oa9asUerQu3dvZf6jR4/Qt29flChRAsbGxqhWrRpWrVqVoQ7//PMP2rVrBzMzM9jY2MDPzw+JiYnvVf/Zs2cjLi4OgYGBGcIDAAoWLIjhw4ejTJkyGtNv3LiBTp06wcrKCiYmJqhfvz527NihsUx68+Tx48fh7++P4sWLw8zMDO3bt0dkZGSGsvbs2YPGjRvDzMwMhQsXRuvWrXHt2jWNZXr37g1zc3PcuXMHrVq1QuHChdG9e3cAwLFjx9C5c2fY29vD2NgYZcqUgZ+fH16/fq3x+sWLFwOARpNkusw+BxcvXsSnn34KCwsLmJubo1mzZjh16tQHbSvlDTwCySeio6Px7NkziAgiIiKwaNEixMbGokePHhrLDRo0CKtXr0afPn0wfPhw3Lt3Dz/99BMuXryI48ePw9DQEBEREfDy8kLx4sUxbtw4FClSBPfv38e2bdsAAMWLF8eSJUswZMgQtG/fHh06dAAA1KxZM8v1vn//PgCgaNGiGtMXLlyINm3aoHv37khKSsLGjRvRuXNn7Nq1C61btwYArFu3Dv3790fDhg0xcOBAAICDgwMAIDw8HC4uLlCpVPD19UXx4sWxZ88e9OvXD69evcLIkSMBpDW5NGvWDGFhYRg+fDhKliyJdevW4dChQ+9V/127dsHR0RHOzs7vvc3Xrl2Dm5sbSpUqhXHjxsHMzAybNm1Cu3btsHXrVrRv315j+WHDhqFo0aIICAjA/fv3sWDBAvj6+uK3335Tllm3bh18fHzg7e2NWbNmIT4+HkuWLIG7uzsuXryIcuXKKcumpKTA29sb7u7u+OGHH2BqagoA2Lx5M+Lj4zFkyBAUK1YMZ86cwaJFi/DPP/9g8+bNANI+P48fP8b+/fuxbt2699rWxo0bw8LCAmPHjoWhoSGWLVsGDw8PHDlyJMP79j7bSnmIkF4LDAwUABkexsbGsnr1ao1ljx07JgBk/fr1GtP37t2rMX379u0CQM6ePfvOciMjIwWABAQEvFc9Dx8+LABk1apVEhkZKY8fP5a9e/eKo6OjqFQqOXPmjMby8fHxGs+TkpKkevXq0rRpU43pZmZm4uPjk6G8fv36iZ2dnTx79kxjeteuXcXS0lJZ/4IFCwSAbNq0SVkmLi5OHB0dBYAcPnz4ndsUHR0tAKRdu3YZ5r148UIiIyOVx5vb06xZM6lRo4YkJCQo09RqtTRq1EgqVqyoTEv/2zZv3lzUarUy3c/PTwwMDOTly5ciIhITEyNFihSRAQMGaNTh6dOnYmlpqTHdx8dHAMi4ceMy1Pnt91xEZMaMGaJSqeTBgwfKtKFDh8q7fjre/ky0a9dOjIyM5M6dO8q0x48fS+HChaVJkyZZ3lbKW9iElU8sXrwY+/fvx/79+/Hrr7/C09MT/fv3V44agLQ9TEtLS7Ro0QLPnj1THvXq1YO5uTkOHz4MIK35C0jbu05OTs7Wevbt2xfFixdHyZIl0bJlS0RHR2PdunVo0KCBxnKFChVS/v/ixQtER0ejcePGuHDhwn+WISLYunUrPv/8c4iIxrZ6e3sjOjpaWc+ff/4JOzs7jX4ZU1NT5Yjm37x69QoAYG5unmGeh4cHihcvrjzSm32ioqJw6NAhdOnSBTExMUq9nj9/Dm9vb4SGhuLRo0ca6xo4cKBGM1Hjxo2RmpqKBw8eAAD279+Ply9folu3bhrbamBgAGdnZ+Xv+qYhQ4ZkmPbmex4XF4dnz56hUaNGEBFcvHjxP9+Pt6WmpmLfvn1o164dKlSooEy3s7PDl19+ib/++kt5D993WylvYRNWPtGwYUONTvRu3bqhTp068PX1xWeffQYjIyOEhoYiOjoaNjY2ma4jIiICAPDJJ5+gY8eOmDx5MubPnw8PDw+0a9cOX375JYyNjT+onpMmTULjxo0RGxuL7du3Y+PGjZl2MO/atQvff/89QkJCNPoj3vxxeZfIyEi8fPkSy5cvx/LlyzNdJn1bHzx4AEdHxwzrrVy58n+WU7hwYQBAbGxshnnLli1DTEwMwsPDNZoRb9++DRHBxIkTMXHixHfWrVSpUspze3t7jfnpzX3p/VahoaEAgKZNm2a6PgsLC43nBQsWROnSpTMsFxYWhkmTJmHHjh0Z+sSio6MzXfe/iYyMRHx8fKbvZZUqVaBWq/Hw4UNUq1ZNmf5f20p5CwMknypQoAA8PT2xcOFChIaGolq1alCr1bCxscH69eszfU16x7hKpcKWLVtw6tQp7Ny5E0FBQejbty/mzp2LU6dOZbrH/b5q1KiB5s2bAwDatWuH+Ph4DBgwAO7u7kpH87Fjx9CmTRs0adIEP//8M+zs7GBoaIjAwEBs2LDhP8tQq9UAgB49esDHxyfTZbTpr3mbpaUl7OzscPXq1Qzz0tv20/t43q7b6NGj4e3tnel6HR0dNZ4bGBhkupyIaKxz3bp1mQ6FfnsghbGxcYbQTk1NRYsWLRAVFYWvv/4aTk5OMDMzw6NHj9C7d2+lDF37r22lvIUBko+lpKQA+P97yA4ODjhw4ADc3Nw0mivexcXFBS4uLpg2bRo2bNiA7t27Y+PGjejfv/97HQm8j5kzZ2L79u2YNm0ali5dCgDYunUrTExMEBQUpHHEExgYmOH1mdWjePHiKFy4MFJTU5WwepeyZcvi6tWrEBGNdd28efO96t+6dWusWLECZ86cQcOGDf9z+fSmHENDw/+s2/tKHzhgY2Oj9TqvXLmCW7duYc2aNejVq5cyff/+/RmWfd+/ffHixWFqaprpe3njxg0UKFAgw+g00i/sA8mnkpOTsW/fPhgZGaFKlSoAgC5duiA1NRVTp07NsHxKSgpevnwJIK254O09vtq1awOA0pyUPnIn/TXacnBwQMeOHbF69Wo8ffoUQNpeqEqlQmpqqrLc/fv3Mz3j3MzMLEMdDAwM0LFjR2zdujXTo4M3h4W2atUKjx8/1hgiHB8f/86mr7eNHTsWpqam6Nu3L8LDwzPMf/t9tLGxgYeHB5YtW4YnT578a93el7e3NywsLDB9+vRM+6zeZ53pe/5v1ldEsHDhwgzLpp8z8l9/ewMDA3h5eeGPP/7QOBILDw/Hhg0b4O7unqF5jfQLj0DyiT179uDGjRsA0trQN2zYgNDQUIwbN075kn7yyScYNGgQZsyYgZCQEHh5ecHQ0BChoaHYvHkzFi5ciE6dOmHNmjX4+eef0b59ezg4OCAmJga//PILLCws0KpVKwBpHa5Vq1bFb7/9hkqVKsHKygrVq1dH9erVs1z3MWPGYNOmTViwYAFmzpyJ1q1bY968eWjZsiW+/PJLREREYPHixXB0dMxwWZB69erhwIEDmDdvHkqWLIny5cvD2dkZM2fOxOHDh+Hs7IwBAwagatWqiIqKwoULF3DgwAFERUUBAAYMGICffvoJvXr1wvnz52FnZ4d169YpAflfKlasiA0bNqBbt26oXLmycia6iODevXvYsGEDChQooNHnsHjxYri7u6NGjRoYMGAAKlSogPDwcJw8eRL//PMPLl26lKX3z8LCAkuWLEHPnj1Rt25ddO3aFcWLF0dYWBh2794NNzc3/PTTT/+6DicnJzg4OGD06NF49OgRLCwssHXr1kz7HurVqwcg7aoC3t7eMDAwQNeuXTNd7/fff4/9+/fD3d0dX331FQoWLIhly5YhMTERs2fPztJ2Uh6UO4O/KLtkNozXxMREateuLUuWLNEYEplu+fLlUq9ePSlUqJAULlxYatSoIWPHjpXHjx+LiMiFCxekW7duYm9vL8bGxmJjYyOfffaZnDt3TmM9J06ckHr16omRkdF/DulNH8a7efPmTOd7eHiIhYWFMlxz5cqVUrFiRTE2NhYnJycJDAyUgICADMNHb9y4IU2aNJFChQoJAI0hveHh4TJ06FApU6aMGBoaiq2trTRr1kyWL1+usY4HDx5ImzZtxNTUVKytrWXEiBHK0OZ/G8b7ptu3b8uQIUPE0dFRTExMpFChQuLk5CSDBw+WkJCQDMvfuXNHevXqJba2tmJoaCilSpWSzz77TLZs2aIsk/63fXs4dfp7+XbdDh8+LN7e3mJpaSkmJibi4OAgvXv31vi7+fj4iJmZWabb8Pfff0vz5s3F3NxcrK2tZcCAAXLp0iUBIIGBgcpyKSkpMmzYMClevLioVCqNv0lmn4MLFy6It7e3mJubi6mpqXh6esqJEyc0lsnqtlLeoBJh7xQREWUd+0CIiEgrDBAiItIKA4SIiLSSpQD57rvvMty8yMnJSZmfkJCAoUOHolixYjA3N0fHjh01hjZGRUXh888/h7m5OerUqZPh8ghDhw7F3LlzP3CTiIgoJ2T5CKRatWp48uSJ8vjrr7+UeX5+fti5cyc2b96MI0eO4PHjx8qVWgFg2rRpiImJwYULF+Dh4YEBAwYo806dOoXTp08rV0klIqK8LcvngRQsWDDTyyVER0dj5cqV2LBhg3JNnsDAQFSpUgWnTp2Ci4sLrl+/jq5du6JSpUoYOHCgcrJWcnIyBg8ejBUrVrzzUgZERJS3ZDlAQkNDUbJkSZiYmMDV1RUzZsyAvb09zp8/j+TkZI1LKTg5OcHe3h4nT56Ei4sLatWqhUOHDqF///4ICgpSrkc0e/ZseHh4aFwM8N8kJiZqXGBPrVYjKioKxYoVy7ZLbBAR5SYRQUxMDEqWLJl372iZlZNG/vzzT9m0aZNcunRJ9u7dK66urmJvby+vXr2S9evXi5GRUYbXNGjQQMaOHSsiIi9fvlROUGvSpIlcu3ZNbt26JRUrVpRnz57JoEGDpHz58tK5c+d/vf5/+gllfPDBBx/5/fHw4cOs/EznqA86kfDly5coW7Ys5s2bh0KFCqFPnz4ZbgXasGFDeHp6YtasWZmuo2nTphgxYgQePHiAXbt2Yffu3RgwYACKFSv2zg71t49AoqOjYW9vj4cPH/LaOkSUL7x69QplypTBy5cvYWlpmdvVydQHXQurSJEiqFSpEm7fvo0WLVogKSkJL1++VG5IBKRdOC2zPhMgrY+kSJEiaNu2LTp06IB27drB0NAQnTt3xqRJk95ZrrGxcab3pbCwsGCAEFG+kpeb5T+oYS02NhZ37tyBnZ0d6tWrB0NDQxw8eFCZf/PmTYSFhcHV1TXDayMjIzFlyhQsWrQIQNr9CNKvJJqcnKxxJVYiIsp7snQEMnr0aHz++ecoW7YsHj9+jICAABgYGKBbt26wtLREv3794O/vDysrK1hYWGDYsGFwdXWFi4tLhnWNHDkSo0aNUu685ubmhnXr1sHLywvLly+Hm5tb9mwhERHpRJYC5J9//kG3bt3w/PlzFC9eHO7u7jh16pRyJ7v58+ejQIEC6NixIxITE+Ht7Y2ff/45w3qCgoJw+/ZtrFu3Tpnm6+uLc+fOwdnZGQ0bNkRAQMAHbhoREelSvrga76tXr2BpaYno6Oh/7QN5s5mMdMfIyCjvDjsk0hPv+7uWmz6KG0qJCJ4+ffrBd8+j91OgQAGUL18eRkZGuV0VItKhjyJA0sPDxsYGpqameXpUg75Tq9V4/Pgxnjx5Ant7e77XRPlYvg+Q1NRUJTyKFSuW29X5KBQvXhyPHz9GSkoKDA0Nc7s6RKQj+b6hOr3P433vcU0fLr3pikOxifK3fB8g6diUknP4XhN9HD6aACEiouzFACEiIq3k+070f1Nu3O4cK+v+zNZZWr53795Ys2ZNhune3t7Yu3dvdlXrvUybNg27d+9GSEgIjIyMOByaiAB85AGS17Vs2RKBgYEa0zK7iKSuJSUloXPnznB1dcXKlStzvHwiypvYhJWHGRsbw9bWVuNRtGhRAEBwcDCMjIxw7NgxZfnZs2fDxsZGuQ+9h4cHfH194evrC0tLS1hbW2PixInI6sUHJk+eDD8/P9SoUSP7No6I9B4DRE95eHhg5MiR6NmzJ6Kjo3Hx4kVMnDgRK1asQIkSJZTl1qxZg4IFC+LMmTNYuHAh5s2bhxUrVuRizYkov2CA5GG7du2Cubm5xmP69OnK/O+//x5FixbFwIED0aNHD/j4+KBNmzYa6yhTpgzmz5+PypUro3v37hg2bBjmz5+f05tCRPkQ+0DyME9PTyxZskRjmpWVlfJ/IyMjrF+/HjVr1kTZsmUzDQYXFxeN8zJcXV0xd+5cpKamwsDAQHeVJ6J8jwGSh5mZmcHR0fFflzlx4gQAICoqClFRUTAzM8uJqhERsQlLn925cwd+fn745Zdf4OzsDB8fH6jVao1lTp8+rfH81KlTqFixIo8+iOiDMUDysMTERDx9+lTj8ezZMwBp15nq0aMHvL290adPHwQGBuLy5cuYO3euxjrCwsLg7++Pmzdv4n//+x8WLVqEESNGKPPHjx+PXr16/Ws9wsLCEBISgrCwMKSmpiIkJAQhISGIjY3N/o0mIr3BJqw8bO/evbCzs9OYVrlyZdy4cQPTpk3DgwcPsGvXLgCAnZ0dli9fjm7dusHLywu1atUCAPTq1QuvX79Gw4YNYWBggBEjRmDgwIHK+p48eYKwsLB/rcekSZM0TmqsU6cOAODw4cPw8PDIjk0lIj2U7+9ImJCQgHv37qF8+fIwMTHJpRrmDg8PD9SuXRsLFizI0XI/5vecKLvowx0J2YRFRERaYYAQEZFW2AeSjwUHB+d2FYgoH+MRCBERaYUBQkREWmGAEBGRVhggRESkFQYIERFphQFCRERaYYDkUb1794ZKpcrwaNmyZY7W4/79++jXrx/Kly+PQoUKwcHBAQEBAUhKSsrRehBR3vNxnwfynWUOlhWd5ZfkhXui37hxA2q1GsuWLYOjoyOuXr2KAQMGIC4uDj/88EOO1oWI8hYegeRheeGe6Okh5uXlhQoVKqBNmzYYPXo0tm3blr0bS0R6hwGip3LznujR0dEad0Ykoo8TAyQPy4v3RL99+zYWLVqEQYMGab0OIsofPu4+kDwur90T/dGjR2jZsiU6d+6MAQMGZHFriCi/YYDkYXnpnuiPHz+Gp6cnGjVqhOXLl+ukDCLSL2zC0mM5dU/0R48ewcPDA/Xq1UNgYCAKFODHhogYIHlaXrgnenp42Nvb44cffkBkZKRSFyL6uLEJKw/LC/dE379/P27fvo3bt2+jdOnSGvPywd2QiegD8J7o+RjviU6kv3hPdCIiyrcYIEREpBX2geRjvCc6EekSj0CIiEgrDBAiItIKA4SIiLTCACEiIq0wQIiISCsMECIi0goDhIiItMIAyaN69+4NlUqV4dGyZcscr0ubNm1gb28PExMT2NnZoWfPnnj8+HGO14OI8paP+kTCGmtq5FhZV3yuZPk16fcjf5OxsXF2Vem9eXp6YsKECbCzs8OjR48wevRodOrUSbkXCRF9nHgEkocZGxvD1tZW41G0aFEAaWeZGxkZ4dixY8rys2fPho2NDcLDwwGkXUzR19cXvr6+sLS0hLW1NSZOnJjlq+j6+fnBxcUFZcuWRaNGjTBu3DicOnUKycnJ2bexRKR3PuojEH3m4eGBkSNHomfPnrh06RLu3r2LiRMnYvPmzShRooSy3Jo1a9CvXz+cOXMG586dw8CBA2Fvb6/1LWmjoqKwfv16NGrUCIaGhtm1OZRDFg8+lGtlD13aNNfKJt3gEUgetmvXLpibm2s8pk+frsz//vvvUbRoUQwcOBA9evSAj48P2rRpo7GOMmXKYP78+ahcuTK6d++OYcOGZXrv9P/y9ddfw8zMDMWKFUNYWBj++OOPD94+ItJvDJA8zNPTEyEhIRqPwYMHK/ONjIywfv16bN26FQkJCZkGg4uLC1QqlfLc1dUVoaGhSE1NzVJdxowZg4sXL2Lfvn0wMDBAr169eEMpoo8cm7DyMDMzMzg6Ov7rMukd2VFRUYiKioKZmZlO6mJtbQ1ra2tUqlQJVapUQZkyZXDq1Cm4urrqpDwiyvt4BKLH7ty5Az8/P/zyyy9wdnaGj48P1Gq1xjKnT5/WeH7q1ClUrFgRBgYGWpebXkZiYqLW6yAi/ccAycMSExPx9OlTjcezZ88AAKmpqejRowe8vb3Rp08fBAYG4vLly5g7d67GOsLCwuDv74+bN2/if//7HxYtWoQRI0Yo88ePH49evXq9sw6nT5/GTz/9hJCQEDx48ACHDh1Ct27d4ODgwKMPoo8cm7DysL1798LOzk5jWuXKlXHjxg1MmzYNDx48wK5duwAAdnZ2WL58Obp16wYvLy/UqlULANCrVy+8fv0aDRs2hIGBAUaMGIGBAwcq63vy5AnCwsLeWQdTU1Ns27YNAQEBiIuLg52dHVq2bIlvv/02V85JIaK8QyX5oCf0324+n5CQgHv37qF8+fIwMTHJpRrmDg8PD9SuXRsLFizI0XI/5vc8r+MwXv3xb79reQWbsIiISCsMECIi0gr7QPKx4ODg3K4CEeVjPAIhIiKtMECIiEgrDBAiItIKA4SIiLTCACEiIq0wQIiISCsMECIi0goDJI/q3bs3VCpVhkfLli1zrU6JiYmoXbs2VCoVQkJCcq0eRJQ3fNQnEl53qpJjZVW5cT3Lr2nZsiUCAwM1puXmBQzHjh2LkiVL4tKlS7lWByLKO3gEkocZGxvD1tZW41G0aFEAaWeZGxkZ4dixY8rys2fPho2NDcLDwwGkXUzR19cXvr6+sLS0hLW1NSZOnKjVnQT37NmDffv24YcffsiejSMivccA0VMeHh4YOXIkevbsiejoaFy8eBETJ07EihUrUKJECWW5NWvWoGDBgjhz5gwWLlyIefPmYcWKFVkqKzw8HAMGDMC6detgamqa3ZtCRHqKAZKH7dq1C+bm5hqP6dOnK/O///57FC1aFAMHDkSPHj3g4+ODNm3aaKyjTJkymD9/PipXrozu3btj2LBhmd47/V1EBL1798bgwYNRv379bNs2ItJ/H3UfSF7n6emJJUuWaEyzsrJS/m9kZIT169ejZs2aKFu2bKbB4OLiApVKpTx3dXXF3LlzkZqa+l63tV20aBFiYmIwfvz4D9gSIsqPGCB5mJmZGRwdHf91mRMnTgAAoqKiEBUVBTMzs2ytw6FDh3Dy5MkMnff169dH9+7dsWbNmmwtj4j0B5uw9NidO3fg5+eHX375Bc7OzvDx8YFardZY5vTp0xrPT506hYoVK77X0QcA/Pjjj7h06RJCQkIQEhKCP//8EwDw22+/Ydq0admzIUSkl3gEkoclJibi6dOnGtMKFiwIa2trpKamokePHvD29kafPn3QsmVL1KhRA3PnzsWYMWOU5cPCwuDv749BgwbhwoULWLRoEebOnavMHz9+PB49eoS1a9dmWgd7e3uN5+bm5gAABwcHlC5dOrs2lYj0EAMkD9u7dy/s7Ow0plWuXBk3btzAtGnT8ODBA+zatQsAYGdnh+XLl6Nbt27w8vJCrVq1AAC9evXC69ev0bBhQxgYGGDEiBEYOHCgsr4nT54gLCws5zaKiPINlWhzUkAe8283n09ISMC9e/dQvnx5mJiY5FINc4eHhwdq166NBQsW5Gi5H/N7ntctHnwo18oeurRprpWtj/7tdy2vYB8IERFpResAmTlzJlQqFUaOHKlMS0hIwNChQ1GsWDGYm5ujY8eOylnRQNpIoc8//xzm5uaoU6cOLl68qLHOoUOHarTPExFR3qVVgJw9exbLli1DzZo1Nab7+flh586d2Lx5M44cOYLHjx+jQ4cOyvxp06YhJiYGFy5cgIeHBwYMGKDMO3XqFE6fPq0RSPRhgoODc7z5iog+HlkOkNjYWHTv3h2//PKLcl0mAIiOjsbKlSsxb948NG3aFPXq1UNgYCBOnDiBU6dOAQCuX7+Orl27olKlShg4cCCuX0+7wGBycjIGDx6MpUuXvvfwUiIiyl1ZDpChQ4eidevWaN68ucb08+fPIzk5WWO6k5MT7O3tcfLkSQBArVq1cOjQIaSkpCAoKEg5gpk9ezY8PDze+1IZiYmJePXqlcaDiIhyVpYCZOPGjbhw4QJmzJiRYd7Tp09hZGSEIkWKaEwvUaKEci7DuHHjULBgQTg4OGD79u1YuXIlQkNDsWbNGkycOBGDBw9GhQoV0KVLF0RHR7+zHjNmzIClpaXyKFOmTFY2g4iIssF7B8jDhw8xYsQIrF+/XuuhmZaWltiwYQMePHiAI0eOoGrVqhg0aBDmzJmD9evX4+7du7h58yZMTU0xZcqUd65n/PjxiI6OVh4PHz7Uqj5ERKS99w6Q8+fPIyIiAnXr1kXBggVRsGBBHDlyBD/++CMKFiyIEiVKICkpCS9fvtR4XXh4OGxtbTNdZ2BgIIoUKYK2bdsiODgY7dq1g6GhITp37ozg4OB31sXY2BgWFhYaDyIiylnvfSZ6s2bNcOXKFY1pffr0gZOTE77++muUKVMGhoaGOHjwIDp27AgAuHnzJsLCwuDq6pphfZGRkZgyZQr++usvAEBqaiqSk5MBpHWqp6amar1RRESke+8dIIULF0b16tU1ppmZmaFYsWLK9H79+sHf3x9WVlawsLDAsGHD4OrqChcXlwzrGzlyJEaNGoVSpUoBANzc3LBu3Tp4eXlh+fLlcHNz+5DtIiIiHcvWM9Hnz5+Pzz77DB07dkSTJk1ga2uLbdu2ZVguKCgIt2/fxldffaVM8/X1RYUKFeDs7IykpCQEBARkZ9X0Tu/evaFSqTI8WrZsmeN1KVeuXIZ6zJw5M8frQUR5ywddTPHtfgoTExMsXrwYixcv/tfXeXt7w9vbW2OaqakpNm3a9CHVybKcvC6QNtcBatmyJQIDAzWmvX1fjpwyZcoUjRM/CxcunCv1IKK8g9fCysOMjY1ha2ur8Ug/eTM4OBhGRkY4duyYsvzs2bNhY2OjXD7Gw8MDvr6+8PX1haWlJaytrTFx4kRoc/3MwoULa9Qju29cRUT6hwGipzw8PDBy5Ej07NkT0dHRuHjxIiZOnIgVK1agRIkSynJr1qxBwYIFcebMGSxcuBDz5s3DihUrslzezJkzUaxYMdSpUwdz5sxBSkpKdm4OEekh3g8kD9u1a5dyA6d0EyZMwIQJEwAA33//Pfbv34+BAwfi6tWr8PHxQZs2bTSWL1OmDObPnw+VSoXKlSvjypUrmD9/vkZz1H8ZPnw46tatCysrK5w4cQLjx4/HkydPMG/evA/fSCLSWwyQPMzT0xNLlizRmGZlZaX838jICOvXr0fNmjVRtmxZzJ8/P8M6XFxcoFKplOeurq6YO3cuUlNT3/u6Y/7+/sr/a9asCSMjIwwaNAgzZszItT4ZIsp9DJA8zMzMDI6Ojv+6zIkTJwCkXSo/KioqR/omnJ2dkZKSgvv376Ny5co6L4+I8ib2geixO3fuwM/PD7/88gucnZ3h4+MDtVqtsczp06c1np86dQoVK1b8oKseh4SEoECBArCxsdF6HUSk/3gEkoclJiYqF6JMV7BgQVhbWyM1NRU9evSAt7c3+vTpg5YtW6JGjRqYO3cuxowZoywfFhYGf39/DBo0CBcuXMCiRYs0bto1fvx4PHr0CGvXrs20DidPnsTp06fh6emJwoUL4+TJk/Dz80OPHj00LudPRB8fBkgetnfvXtjZ2WlMq1y5Mm7cuIFp06bhwYMH2LVrFwDAzs4Oy5cvR7du3eDl5YVatWoBAHr16oXXr1+jYcOGMDAwwIgRIzBw4EBlfU+ePEFYWNg762BsbIyNGzfiu+++Q2JiIsqXLw8/Pz+NfhEi+jipRJuTAvKYf7v5fEJCAu7du4fy5ctrfRVhfeXh4YHatWvn+F0JP+b3PK/LyZNn36bNybQfs3/7Xcsr2AdCRERaYRMW0UekafDQXCz9ei6WTbrAAMnH/u2eKkREH4pNWEREpBUGCBERaeWjCZB8MNhMb/C9Jvo45PsAMTQ0BADEx8fnck0+HklJSQDwQWe7E1Hel+870Q0MDFCkSBFEREQASLtx1ZsXF6TspVarERkZCVNTUxQsmO8/XkQftY/iG25rawsASoiQbhUoUAD29vYMaqJ87qMIEJVKBTs7O9jY2CA5OTm3q5PvGRkZoUCBfN86SvTR+ygCJJ2BgQHb5YmIsgl3E4mISCsMECIi0goDhIiItMIAISIirTBAiIhIKwwQIiLSCgOEiIi0wgAhIiKtMECIiEgrDBAiItIKA4SIiLTCACEiIq0wQIiISCsMECIi0goDhIiItMIAISIirTBAiIhIKwwQIiLSCgOEiIi0wgAhIiKtMECIiEgrDBAiIj31+vVrxMfHK88fPHiABQsWYN++fTlSPgOEiEhPtW3bFmvXrgUAvHz5Es7Ozpg7dy7atm2LJUuW6Lx8BggRkZ66cOECGjduDADYsmULSpQogQcPHmDt2rX48ccfdV4+A4SISE/Fx8ejcOHCAIB9+/ahQ4cOKFCgAFxcXPDgwQOdl88AISLSU46Ojvj999/x8OFDBAUFwcvLCwAQEREBCwsLnZfPACEi0lOTJk3C6NGjUa5cOTg7O8PV1RVA2tFInTp1dF5+QZ2XQEREOtGpUye4u7vjyZMnqFWrljK9WbNmaN++vc7LZ4AQEekxW1tb2Nraakxr2LBhjpTNACEi0lNxcXGYOXMmDh48iIiICKjVao35d+/e1Wn5DBAiIj3Vv39/HDlyBD179oSdnR1UKlWOls8AISLSU3v27MHu3bvh5uaWK+VzFBYRkZ4qWrQorKyscq18BggRkZ6aOnUqJk2apHE9rJzEJiwiIj01d+5c3LlzByVKlEC5cuVgaGioMf/ChQs6LZ8BQkSkp9q1a5er5TNAiIj0VEBAQK6WzwAhItJz58+fx/Xr1wEA1apVy5HLmAAMECIivRUREYGuXbsiODgYRYoUAZB2XxBPT09s3LgRxYsX12n5HIVFRKSnhg0bhpiYGFy7dg1RUVGIiorC1atX8erVKwwfPlzn5fMIhIhIT+3duxcHDhxAlSpVlGlVq1bF4sWLlUu76xKPQIiI9JRarc4wdBcADA0NM1wXSxcYIEREeqpp06YYMWIEHj9+rEx79OgR/Pz80KxZM52XzwAhItJTP/30E169eoVy5crBwcEBDg4OKF++PF69eoVFixbpvHz2gRAR6akyZcrgwoULOHDgAG7cuAEAqFKlCpo3b54j5TNAiIj0mEqlQosWLdCiRYscL5sBQkSkR3788UcMHDgQJiYm+PHHH/91WV0P5VWJiOi0hBzw6tUrWFpaIjo6GhYWFrldHaI867pTlf9eSEeq3Liea2Xro3f9rpUvXx7nzp1DsWLFUL58+Xe+XqVS8Y6ERET0/927dy/T/+cGjsIiItJTU6ZMyfReIK9fv8aUKVN0Xj4DhIhIT02ePBmxsbEZpsfHx2Py5Mk6L58BQkSkp0QEKpUqw/RLly7lyK1u2QdCRKRnihYtCpVKBZVKhUqVKmmESGpqKmJjYzF48GCd14MBQkSkZxYsWAARQd++fTF58mRYWloq84yMjFCuXDm4urrqvB4MECIiPePj4wMgbUhvo0aNMr2gYk5ggBAR6alPPvlE+X9CQgKSkpI05uv6vDh2ohMR6an4+Hj4+vrCxsYGZmZmKFq0qMZD1xggRER6asyYMTh06BCWLFkCY2NjrFixApMnT0bJkiWxdu1anZfPJiwiIj21c+dOrF27Fh4eHujTpw8aN24MR0dHlC1bFuvXr0f37t11Wj6PQIiI9FRUVBQqVKgAIK2/IyoqCgDg7u6Oo0eP6rx8BggRkZ6qUKGCcj0sJycnbNq0CUDakUmRIkV0Xn6WAmTJkiWoWbMmLCwsYGFhAVdXV+zZs0eZn5CQgKFDh6JYsWIwNzdHx44dER4ersyPiorC559/DnNzc9SpUwcXL17UWP/QoUMxd+7cD9wkIqKPQ58+fXDp0iUAwLhx47B48WKYmJjAz88PY8aM0Xn5Wbqc+86dO2FgYICKFStCRLBmzRrMmTMHFy9eRLVq1TBkyBDs3r0bq1evhqWlJXx9fVGgQAEcP34cADBq1CicP38ey5cvx5IlS3Ds2DGcO3cOAHDq1Cn4+vri9OnTMDAwyNJG8HLuRO+nxpoauVb2FZ8ruVa2PtLmd+3Bgwc4f/48HB0dUbNmTR3XMBvuB2JlZYU5c+agU6dOKF68ODZs2IBOnToBAG7cuIEqVarg5MmTcHFxQatWrdCmTRsMHjwY169fR/369REXF4fk5GQ0aNAAK1asQP369bNcBwYI0fthgOiP//pdS05ORsuWLbF06VJUrFgxF2r4AX0gqamp2LhxI+Li4uDq6orz588jOTlZ4168Tk5OsLe3x8mTJwEAtWrVwqFDh5CSkoKgoCAlIWfPng0PDw+twoOI6GNkaGiIy5cv52odshwgV65cgbm5OYyNjTF48GBs374dVatWxdOnT2FkZJSh46ZEiRJ4+vQpgLQ2uoIFC8LBwQHbt2/HypUrERoaijVr1mDixIkYPHgwKlSogC5duiA6OvqddUhMTMSrV680HkREH5sePXpg5cqVuVZ+ls8DqVy5MkJCQhAdHY0tW7bAx8cHR44cea/XWlpaYsOGDRrTmjZtijlz5mD9+vW4e/cubt68iQEDBmDKlCnv7FCfMWNGjlzrnogoL0tJScGqVatw4MAB1KtXD2ZmZhrz582bp9PysxwgRkZGcHR0BADUq1cPZ8+excKFC/HFF18gKSkJL1++1DgKCQ8Ph62tbabrCgwMRJEiRdC2bVt06NAB7dq1g6GhITp37oxJkya9sw7jx4+Hv7+/8vzVq1coU6ZMVjeFiEivXb16FXXr1gUA3Lp1S2NeZvcJyW4ffCa6Wq1GYmIi6tWrB0NDQxw8eBAdO3YEANy8eRNhYWGZXlY4MjISU6ZMwV9//QUgrU8lOTkZQFrnUGpq6jvLNDY2hrGx8YdWnYhIrx0+fDhXy89SgIwfPx6ffvop7O3tERMTgw0bNiA4OBhBQUGwtLREv3794O/vDysrK1hYWGDYsGFwdXWFi4tLhnWNHDkSo0aNQqlSpQAAbm5uWLduHby8vLB8+XK4ubllzxYSEeVzt2/fxp07d9CkSRMUKlTonXcqzG5ZCpCIiAj06tULT548gaWlJWrWrImgoCC0aNECADB//nwUKFAAHTt2RGJiIry9vfHzzz9nWE9QUBBu376NdevWKdN8fX1x7tw5ODs7o2HDhggICPjATSMiyt+eP3+OLl264PDhw1CpVAgNDUWFChXQr18/FC1aVOcnZn/weSB5Ac8DIXo/PA9Ef7zP71qvXr0QERGBFStWoEqVKrh06RIqVKiAoKAg+Pv749q1azqtI6/GS0Skp/bt24egoCCULl1aY3rFihXx4MEDnZfPiykSEempuLg4mJqaZpgeFRWVIwONGCBERHqqcePGGjeOUqlUUKvVmD17Njw9PXVePpuwiIj01OzZs9GsWTOcO3cOSUlJGDt2LK5du4aoqCjlIra6xCMQIiI9Vb16ddy6dQvu7u5o27Yt4uLi0KFDB1y8eBEODg46L59HIEREeszS0hLffPNNrpTNACEi0mMvX77EmTNnEBERAbVarTGvV69eOi2bAUJEpKd27tyJ7t27IzY2FhYWFhpnn6tUKp0HCPtAiIj01KhRo9C3b1/Exsbi5cuXePHihfKIiorSefkMECIiPfXo0SMMHz4803NBcgIDhIhIT3l7e+PcuXO5Vj77QIiI9FTr1q0xZswY/P3336hRowYMDQ015rdp00an5TNAiIj01IABAwAAU6ZMyTBPpVL9632VsgMDhIhIT709bDensQ+EiCgfSEhIyPEyGSBERHoqNTUVU6dORalSpWBubo67d+8CACZOnIiVK1fqvHw2YRFRvrd48KFcK3vo0qY6W/e0adOwZs0azJ49W+kPAdKukbVgwQL069dPZ2UDPAIhItJba9euxfLly9G9e3cYGBgo02vVqoUbN27ovHwGCBGRnnr06BEcHR0zTFer1UhOTtZ5+QwQIiI9VbVqVRw7dizD9C1btqBOnTo6L599IEREemrSpEnw8fHBo0ePoFarsW3bNty8eRNr167Frl27dF4+j0CIiPRU27ZtsXPnThw4cABmZmaYNGkSrl+/jp07d6JFixY6L59HIEREeqxx48bYv39/rpTNACEi0nMxMTEQEeV5gQIFYG5urvNy2YRFRKRnQkJC0KpVK+V5yZIlUbRoUeVRpEgRnD17Vuf14BEIEZGeWbRoEdzd3TWmrVu3DqVKlYKIYNWqVfjxxx+xbt06ndaDAUJEpGdOnDgBX19fjWkuLi6oUKECAKBQoULo0qWLzuvBJiwiIj3z4MEDFC9eXHk+ZcoUWFtbK8/t7OwQHh6u83owQIiI9IyJiQkePHigPPfz84OFhYXy/OHDhzlym1sGCBGRnqlTpw5+//33d87ftm0bz0QnIqKMvvrqK3Tt2hXlypXDkCFDUKBA2rFAamoqfv75ZyxatAgbNmzQeT0YIEREeqZjx47w9/fHsGHDMGHCBKXz/O7du4iNjYW/vz86deqk83owQIiI9NCsWbPQvn17/O9//0NoaCgAoEmTJujWrRtcXFxypA4MECIiPeXi4pJjYZEZdqITEZFWGCBERKQVBggREWmFAUJEpEd27NiRI7erfR8MECIiPdK+fXu8fPkSAGBgYICIiIhcqwsDhIhIjxQvXhynTp0CAIgIVCpVrtWFw3iJiPTI4MGD0bZtW6hUKqhUKtja2r5z2dTUVJ3WhQFCRKRHvvvuO3Tt2hW3b99GmzZtEBgYiCJFiuRKXRggRER6xsnJCU5OTggICEDnzp1z5Mq7mWGAEBHpqYCAAABAZGQkbt68CQCoXLmyxr1CdImd6EREeio+Ph59+/ZFyZIl0aRJEzRp0gQlS5ZEv379EB8fr/PyGSBERHrKz88PR44cwY4dO/Dy5Uu8fPkSf/zxB44cOYJRo0bpvHw2YRER6amtW7diy5Yt8PDwUKa1atVKuSf6kiVLdFo+j0CIiPRUfHw8SpQokWG6jY0Nm7CIiOjdXF1dERAQgISEBGXa69evMXnyZLi6uuq8fDZhERHpqYULF8Lb2xulS5dGrVq1AACXLl2CiYkJgoKCdF4+A4SISE9Vr14doaGhWL9+PW7cuAEA6NatG7p3745ChQrpvHwGCBGRHjM1NcWAAQNypWz2gRARkVYYIEREpBUGCBERaYUBQkREWmGAEBHpsZcvX2LFihUYP348oqKiAAAXLlzAo0ePdF42R2EREempy5cvo3nz5rC0tMT9+/cxYMAAWFlZYdu2bQgLC8PatWt1Wj6PQIiI9JS/vz969+6N0NBQmJiYKNNbtWqFo0eP6rx8BggRkZ46e/YsBg0alGF6qVKl8PTpU52XzwAhItJTxsbGePXqVYbpt27dypGbSjFAiIj0VJs2bTBlyhQkJycDAFQqFcLCwvD111+jY8eOOi+fAUJEpKfmzp2L2NhY2NjY4PXr1/jkk0/g6OiIwoULY9q0aTovn6OwiIj0lKWlJfbv34+//voLly9fRmxsLOrWrYvmzZvnSPkMECIiPefu7g53d/ccL5cBQkSkp3788cdMp6tUKpiYmMDR0RFNmjSBgYGBTspngBAR6an58+cjMjIS8fHxKFq0KADgxYsXMDU1hbm5OSIiIlChQgUcPnwYZcqUyfby2YlORKSnpk+fjgYNGiA0NBTPnz/H8+fPcevWLTg7O2PhwoUICwuDra0t/Pz8dFI+j0CIiPTUt99+i61bt8LBwUGZ5ujoiB9++AEdO3bE3bt3MXv2bJ0N6WWA0Edp8eBDuVb20KVNc61syl+ePHmClJSUDNNTUlKUM9FLliyJmJgYnZTPJiwiIj3l6emJQYMG4eLFi8q0ixcvYsiQIWjaNG1H5cqVKyhfvrxOyucRCBHle02Dh+Zi6dd1tuaVK1eiZ8+eqFevHgwNDQGkHX00a9YMK1euBACYm5tj7ty5OimfAUJEpKdsbW2xf/9+3LhxA7du3QIAVK5cGZUrV1aW8fT01Fn5DBAiIj3n5OQEJyenHC+XAUJEpMf++ecf7NixA2FhYUhKStKYN2/ePJ2WzQAhItJTBw8eRJs2bVChQgXcuHED1atXx/379yEiqFu3rs7L5ygsIiI9NX78eIwePRpXrlyBiYkJtm7diocPH+KTTz5B586ddV4+A4SISE9dv34dvXr1AgAULFgQr1+/hrm5OaZMmYJZs2bpvHwGCBGRnjIzM1P6Pezs7HDnzh1l3rNnz3RePvtAiIj0lIuLC/766y9UqVIFrVq1wqhRo3DlyhVs27YNLi4uOi+fAUJEpKfmzZuH2NhYAMDkyZMRGxuL3377DRUrVtT5CCyAAUJEpLcqVKig/N/MzAxLly7N0fKz1AcyY8YMNGjQAIULF4aNjQ3atWuHmzdvaiyTkJCAoUOHolixYjA3N0fHjh0RHh6uzI+KisLnn38Oc3Nz1KlTR+MaLgAwdOhQnZ12T0SUn1SoUAHPnz/PMP3ly5ca4aIrWQqQI0eOYOjQoTh16hT279+P5ORkeHl5IS4uTlnGz88PO3fuxObNm3HkyBE8fvwYHTp0UOZPmzYNMTExuHDhAjw8PDBgwABl3qlTp3D69GmMHDnyw7eMiCifu3//PlJTUzNMT0xMxKNHj3RefpaasPbu3avxfPXq1bCxscH58+fRpEkTREdHY+XKldiwYYNyJcjAwEBUqVIFp06dgouLC65fv46uXbuiUqVKGDhwIJYvXw4ASE5OxuDBg7FixQqd3X6RiCg/2LFjh/L/oKAgWFpaKs9TU1Nx8OBBlCtXTuf1+KA+kOjoaACAlZUVAOD8+fNITk5G8+bNlWWcnJxgb2+PkydPwsXFBbVq1cKhQ4fQv39/BAUFoWbNmgCA2bNnw8PDA/Xr1//PchMTE5GYmKg8f/Xq1YdsBhGRXmnXrh2AtHuf+/j4aMwzNDREuXLlcqQrQOvzQNRqNUaOHAk3NzdUr14dAPD06VMYGRmhSJEiGsuWKFFCubnJuHHjULBgQTg4OGD79u1YuXIlQkNDsWbNGkycOBGDBw9GhQoV0KVLFyWg3jZjxgxYWloqD13c65eIKK9Sq9VQq9Wwt7dHRESE8lytViMxMRE3b97EZ599pvN6aB0gQ4cOxdWrV7Fx48Ysvc7S0hIbNmzAgwcPcOTIEVStWhWDBg3CnDlzsH79ety9exc3b96EqakppkyZkuk6xo8fj+joaOXx8OFDbTeDiEhv3bt3D9bW1rlWvlZNWL6+vti1axeOHj2K0qVLK9NtbW2RlJSEly9fahyFhIeHw9bWNtN1BQYGokiRImjbti06dOiAdu3awdDQEJ07d8akSZMyfY2xsTGMjY21qToRUb5y8OBBHDx4UDkSedOqVat0WnaWjkBEBL6+vti+fTsOHTqU4TaJ6XfFOnjwoDLt5s2bCAsLg6ura4b1RUZGYsqUKVi0aBGAtM6f5ORkAGmd6pmNLiAiojSTJ0+Gl5cXDh48iGfPnuHFixcaD13L0hHI0KFDsWHDBvzxxx8oXLiw0q9haWmJQoUKwdLSEv369YO/vz+srKxgYWGBYcOGwdXVNdPT6keOHIlRo0ahVKlSAAA3NzesW7cOXl5eWL58Odzc3LJhE4mI8qelS5di9erV6NmzZ66Un6UjkCVLliA6OhoeHh6ws7NTHr/99puyzPz58/HZZ5+hY8eOaNKkCWxtbbFt27YM6woKCsLt27fx1VdfKdN8fX1RoUIFODs7IykpCQEBAR+waURE+VtSUhIaNWqUa+WrRERyrfRs8urVK1haWiI6OhoWFha5XR3SA4sHH8q1socubZprZddYUyPXyr7icyXXyr7uVCXXyq5y47pWr3uf37Wvv/4a5ubmmDhx4odUUWu8FhYRkZ5KSEjA8uXLceDAAdSsWROGhoYa83lLWyIdaBo8NBdL126PlOhtly9fRu3atQEAV69e1ZinUql0Xj4DhIhITx0+fDhXy+cdCYmI9Nzt27cRFBSE169fA0g75SInMECIiPTU8+fP0axZM1SqVAmtWrXCkydPAAD9+vXDqFGjdF4+A4SISE/5+fnB0NAQYWFhMDU1VaZ/8cUXGa6ergvsAyEi0lP79u1DUFCQxiWlAKBixYp48OCBzstngBB9RK7cC8vtKlA2iouL0zjySBcVFZUj1wtkExYRkZ5q3Lgx1q5dqzxXqVRQq9WYPXs2PD09dV4+j0CIiPTU7Nmz0axZM5w7dw5JSUkYO3Ysrl27hqioKBw/flzn5fMIhIhIT1WvXh23bt2Cu7s72rZti7i4OHTo0AEXL16Eg4ODzsvnEQgRkR6ztLTEN998kytl8wiEiEhPBQYGYvPmzRmmb968GWvWrNF5+QwQIiI9NWPGjExvaWtjY4Pp06frvHwGCBGRngoLC8twZ1gAKFu2LMLCdD9kmwFCRKSnbGxscPny5QzTL126hGLFium8fAYIEZGe6tatG4YPH47Dhw8jNTUVqampOHToEEaMGIGuXbvqvHyOwiIi0lNTp07F/fv30axZMxQsmPZzrlar0atXrxzpA2GAEBHpIRHB06dPsXr1anz//fcICQlBoUKFUKNGDZQtWzZH6sAAISLSQyICR0dHXLt2DRUrVkTFihVzvA7sAyEi0kMFChRAxYoV8fz589yrQ66VTEREH2TmzJkYM2ZMhvuh5xQ2YRER6alevXohPj4etWrVgpGREQoVKqQxPyoqSqflM0CIiPTUggULcrV8BggRkZ7y8fHJ1fIZIESU73UZn3s/dVd0vP47d+4gMDAQd+7cwcKFC2FjY4M9e/bA3t4e1apV02nZ7EQnItJTR44cQY0aNXD69Gls27YNsbGxANIuZRIQEKDz8hkgRER6aty4cfj++++xf/9+GBkZKdObNm2KU6dO6bx8BggRkZ66cuUK2rdvn2G6jY0Nnj17pvPyGSBERHqqSJEiePLkSYbpFy9eRKlSpXRePjvR6aOUnztV6ePRtWtXfP3119i8eTNUKhXUajWOHz+O0aNHo1evXjovn0cgRER6avr06XByckKZMmUQGxuLqlWrokmTJmjUqBG+/fZbnZfPIxAiIj1lZGSEX375BZMmTcKVK1cQGxuLOnXq5NiFFRkgRER6Rq1WY86cOdixYweSkpLQrFkzBAQEZLiUia6xCYuISM9MmzYNEyZMgLm5OUqVKoWFCxdi6NChOV4PBggRkZ5Zu3Ytfv75ZwQFBeH333/Hzp07sX79eqjV6hytBwOEiEjPhIWFoVWrVsrz5s2bQ6VS4fHjxzlaDwYIEZGeSUlJgYmJicY0Q0NDJCcn52g92IlORKRnRAS9e/eGsbGxMi0hIQGDBw+GmZmZMm3btm06rQcDhIhIz2R2GfcePXrkeD0YIEREeiYwMDC3qwCAfSBERKQlBggREWmFAUJERFphgBARkVYYIEREpBUGCBERaYUBQkREWmGAEBGRVhggRESkFQYIERFphQFCRERaYYAQEZFWGCBERKQVBggREWmFAUJERFphgBARkVYYIEREpBUGCBERaYUBQkREWmGAEBGRVhggRESkFQYIERFphQFCRERaYYAQEZFWGCBERKQVBggREWmFAUJERFphgBARkVYYIEREpBUGCBERaYUBQkREWmGAEBGRVhggRESkFQYIERFphQFCRERaYYAQEZFWGCBERKQVBggREWmFAUJERFphgBARkVayFCBHjx7F559/jpIlS0KlUuH333/XmC8imDRpEuzs7FCoUCE0b94coaGhyvzExET07NkTFhYWqFSpEg4cOKDx+jlz5mDYsGHabw0REeWYLAVIXFwcatWqhcWLF2c6f/bs2fjxxx+xdOlSnD59GmZmZvD29kZCQgIAYPny5Th//jxOnjyJgQMH4ssvv4SIAADu3buHX375BdOmTfvATSIiopxQMCsLf/rpp/j0008znSciWLBgAb799lu0bdsWALB27VqUKFECv//+O7p27Yrr16+jTZs2qFatGipUqIAxY8bg2bNnKF68OIYMGYJZs2bBwsLiw7eKiIh0LksB8m/u3buHp0+fonnz5so0S0tLODs74+TJk+jatStq1aqFdevW4fXr1wgKCoKdnR2sra2xfv16mJiYoH379tlVHaJ/deVeWG5XgUjvZVuAPH36FABQokQJjeklSpRQ5vXt2xeXL19G1apVYW1tjU2bNuHFixeYNGkSgoOD8e2332Ljxo1wcHDAqlWrUKpUqUzLSkxMRGJiovL81atX2bUZRET0nnJ0FJahoSEWL16Me/fu4ezZs3B3d8eoUaMwfPhwXLx4Eb///jsuXboEFxcXDB8+/J3rmTFjBiwtLZVHmTJlcnAriIgIyMYAsbW1BQCEh4drTA8PD1fmve3w4cO4du0afH19ERwcjFatWsHMzAxdunRBcHDwO8saP348oqOjlcfDhw+zazOIiOg9ZVuAlC9fHra2tjh48KAy7dWrVzh9+jRcXV0zLJ+QkIChQ4di2bJlMDAwQGpqKpKTkwEAycnJSE1NfWdZxsbGsLCw0HgQEVHOylKAxMbGIiQkBCEhIQDSOs5DQkIQFhYGlUqFkSNH4vvvv8eOHTtw5coV9OrVCyVLlkS7du0yrGvq1Klo1aoV6tSpAwBwc3PDtm3bcPnyZfz0009wc3P74I0jIiLdyVIn+rlz5+Dp6ak89/f3BwD4+Phg9erVGDt2LOLi4jBw4EC8fPkS7u7u2Lt3L0xMTDTWc/XqVWzatEkJIgDo1KkTgoOD0bhxY1SuXBkbNmz4gM0iIiJdU0n6mXx67NWrV7C0tER0dDSbs+j9fGeZi2VH52LZ3O6cL1u77daH3zVeC4uIiLTCACEiIq0wQIiISCsMECIi0goDhIiItMIAISIirTBAiIhIKwwQIiLSCgOEiIi0wgAhIiKtMECIiEgrDBAiItIKA4SIiLTCACEiIq0wQIiISCsMECIi0goDhIiItMIAISIirTBAiIhIKwwQIiLSCgOEiIi0wgAhIiKtMECIiEgrDBAiItIKA4SIiLTCACEiIq0wQIiISCsMECIi0goDhIiItMIAISIirTBAiIhIKwwQIiLSCgOEiIi0wgAhIiKtMECIiEgrDBAiItJKwdyuABHlnHIJG3Kt7Pu5VjLpCo9AiIhIKwwQIiLSCgOEiIi0wgAhIiKtMECIiEgrDBAiItIKA4SIiLTCACEiIq0wQIiISCsMECIi0goDhIiItMIAISIirTBAiIhIK7wa70du8eBDuVb20KVNc61sIvpwPAIhIiKtMECIiEgrDBAiItIKA4SIiLTCTvSPXNPgoblY+vVcLJuIPhSPQIiISCsMECIi0gqbsOijVC5hQ66VfT/XSv548e+tGwyQ/8MT6oiIsoYB8pHrMj73PgJXcq1kIsoO7AMhIiKtMECIiEgrDBAiItIK+0D+D0+oIyLKGh6BEBGRVhggRESkFQYIERFphQFCRERaYSf6//lYT6i7ci8sF0snIn3GIxAiItIKA4SIiLTCACEiIq0wQIiISCsMECIi0goDhIiItMJhvP+Hw1mJiLKGRyBERKQVBggREWmFAUJERFphH8hHrlzChlwr+36ulUxE2YFHIEREpBWdHIEsXrwYc+bMwdOnT1GrVi0sWrQIDRs2BAD4+/tj9erVMDMzw8yZM9G9e3fldZs3b8batWuxc+dOXVTrX3FPnIgoa7I9QH777Tf4+/tj6dKlcHZ2xoIFC+Dt7Y2bN2/i9OnT2LBhA/bt24fQ0FD07dsX3t7esLa2RnR0NL755hscOHAgu6tEREQ6kO1NWPPmzcOAAQPQp08fVK1aFUuXLoWpqSlWrVqF69evw8PDA/Xr10e3bt1gYWGBe/fuAQDGjh2LIUOGwN7ePrurREREOpCtRyBJSUk4f/48xo8fr0wrUKAAmjdvjpMnT+Krr77C8uXL8eLFC9y9exevX7+Go6Mj/vrrL1y4cAE///zze5WTmJiIxMRE5Xl0dDQA4NWrV1rXXZ0Yr/VrP9SH1PtDcbtzHrc75+njdqe/TkSyszrZS7LRo0ePBICcOHFCY/qYMWOkYcOGIiISEBAgDg4OUr16ddm2bZskJiZK9erV5dy5c7Jo0SKpVKmSNGrUSK5evfrOcgICAgQAH3zwwUe+fzx8+DA7f6azlUok++Lt8ePHKFWqFE6cOAFXV1dl+tixY3HkyBGcPn06w2smT56Mly9fok+fPvDy8sKVK1ewa9cu/PTTTzh//nym5bx9BKJWqxEVFYVixYpBpVJl1+a8l1evXqFMmTJ4+PAhLCwscrTs3MTt5nZ/DHJzu0UEMTExKFmyJAoUyJsDZrO1Ccva2hoGBgYIDw/XmB4eHg5bW9sMy9+4cQO//vorLl68iFWrVqFJkyYoXrw4unTpgr59+yImJgaFCxfO8DpjY2MYGxtrTCtSpEh2bkqWWVhYfFRfrHTc7o8LtztnWVpa5niZWZGtsWZkZIR69erh4MGDyjS1Wo2DBw9qHJEAaek6aNAgzJs3D+bm5khNTUVycjIAKP+mpqZmZ/WIiCgbZfswXn9/f/j4+KB+/fpo2LAhFixYgLi4OPTp00djuRUrVqB48eL4/PPPAQBubm747rvvcOrUKezZswdVq1bN9aMKIiJ6t2wPkC+++AKRkZGYNGkSnj59itq1a2Pv3r0oUaKEskx4eDimTZuGEydOKNMaNmyIUaNGoXXr1rCxscGaNWuyu2o6YWxsjICAgAxNavkdt5vb/TH4WLf7fWVrJzoREX088mbXPhER5XkMECIi0goDhIiItMIAISIirTBAiIhIKwwQomzEQY30MWGAUK5Qq9W5XYVspVarkZqamuFabPk1UPLb3y8n7N+/H8+fP8/tamQrBkg24pfq/eXVi8NpQ0RQoEABGBgY4Pbt21i0aBEOHjyIuLi4HL+4Z05J//u9eVFTSpPZTsODBw/g7e2Nhw8fAsg/vxX551uci/755x8Amj+K+XXPM7uICCZOnIgdO3Yoz/WVSqWCWq2Gv78/6tSpg+3bt6Nv377o0KEDjh8/ntvV05nZs2dj+PDhAD7u69ZFRUVh3bp1iI2NBYAMOw1qtRqmpqZo2LAhzp49CyD/7EDlj63IRf3798fw4cORmJiI48ePY8CAAQAyfog+Zpn9uDx+/Bj79u3DrVu3AOj/+/XHH3/g0KFDOHLkCA4dOoTbt2/j9OnTmD9/PiIiInK7eh/k7b3l9LBPSUnB0aNHAQAGBgY5Xq+8Yt++ffDx8cGZM2eUaVu2bMHJkycBpIWFqakpkpOTlfeSRyAfufQvUffu3XH27Fk0atQITZs2hampab75cHyo9Pchsx+XUqVKAfj/d13Thz1YEclQz9TUVIgItm/fjk6dOqFu3brYvXs33N3dUbRoUfTu3Rs2Nja5VOMPIyJK8xyQtqcN/P+wt7Kygo2NDcLCwnKtjrnhzaNlEUHXrl3h4uKCuXPn4tWrV/j7778xffp0dO3aFZcuXUJSUhLMzMxQoUIF7N69GwCPQD5a6T+K6R+i6OhoREREICwsDDt37sTChQvzzYfjQ7z5w/Py5Ut07NgRy5cvx7Nnz5RlvL29sW/fPgD6sQerUqlgYGCAyMhIXLhwAWq1GgYGBlCpVHj+/Dnu3buH3r17o0ePHvD29salS5fw2WefISEhAfHxuXdLVW2ICFQqFVQqFcLDwzFx4kR069YNwcHByjJVq1bFhQsXYGpqmnsVzQUqlQqvX79W/g8AS5YswZ49e/DHH3+gatWqOHToENzd3dGzZ08sXrwYAODq6orU1NR81ZHOX7r3pFaroVarlR/F9A+Oo6MjVq9ejUKFCuHSpUtKO6g+t+l/iPTtTn9/+vbti9mzZ6N48eJYuXIlhgwZoixbrFgxmJub5+kmnvQjjvTt+u6771C+fHl06tQJX3zxBUJDQwEArVq1wrp16xAZGYlbt25hypQpsLCwwJMnTzBz5kzcvXs317ZBG+l/v2+//RadO3eGsbExKlSogI4dO2Lnzp1ISkpCw4YNUbJkSezduzeXa5tz1Go1Fi1ahC+//BIAEBMTg02bNqFWrVro2bMnpk+fjjt37qBIkSL49ddf0a1bN8yZMwcLFy7E69evERERkelN8vRWDt06V6+p1Wrl/5cuXZIhQ4bIhAkT5NixYxITEyMiIsOHD5fatWtLcHBwblUzTzl//rzs3r1bGjZsKCdPnhQRkX379omjo6O0bdtWrl+/LiEhIWJmZiZxcXG5XNvMpaamajx/+PChtG3bVo4ePSq7d++WcuXKyaBBg+TZs2cSEhIizs7O0rlzZxERSU5Olri4OPnmm2+kYcOGcubMmdzYBK0dPXpUVq9eLZ9//rkcO3ZMkpOTRURk4MCB4urqKmPGjJFXr16Jm5ubrFixIpdrm7OWLFkilStXlu7du4tKpZK+ffuKiMirV6/E2NhYpkyZovGZ3rp1q9SpU0eaNm0qKpVK/v7779yqerZjgLxDfHy87N27V0REkpKSRK1Wy6RJk8TExES+/PJLqVu3rlSuXFn69esnIiLR0dFSqVIlGT58uERERGis680Aym/UanWG7du7d6+oVCqpUaOG7NmzR2NeaGiotG3bVqpWrSrr1q2TatWqyR9//JGTVf5PKSkpyv+PHTsmrVq1kn79+sn48ePlu+++U+atXLlS6tSpI7/88ouIiGzfvl0sLS2lWrVq0q1bNylfvrw4OTnJiRMncnwb3pdarVaCMv3v+OLFC7GwsJAiRYrIpEmTREQkISFBRERiY2Nl165dYmJiInPmzBFbW1sZN26ciGQM3PwiNTVVY9t2794tKpVKzM3NZdeuXcoyIiIzZswQKysrOXfunMY6Dhw4IN26dROVSiU7d+7MucrrGAMkE6mpqfLDDz+ISqWSFy9eiIjIrVu3pG7durJx40YREYmJiZHVq1eLiYmJbN++XUREFi1aJJUqVZJly5ZJXFyc+Pr6yqVLl3JpK3Qvfa9URDMkIyMj5csvvxRLS0t58OCBMj39SxYRESGjRo0SU1NTMTExkW3btuVcpd9TbGysnD9/XipVqiT9+vUTFxcXUalUMnHiRGUZtVotHTp0kNatW8vVq1dFROTcuXPy888/y5gxY2TVqlW5Vf338mZQpgdE+t9x6dKlYmBgIFOmTFGWefNv/Pvvv0uXLl1EpVJJs2bN5PXr1zlU65z15nv0zz//yO3bt2X37t0yYsQIqVmzpixatEhERBITE5XlypQpI3369JHo6GiNdSUnJ4u1tbWyw5EfApcB8g537tyR2rVrS7du3UREJDg4WAoUKCB37txRlnn16pX069dPnJyclGmdOnWSmjVrSvHixaV06dJy48aNfH0EIiIybdo0GTVqlMyaNUvCw8NFROTIkSNiaGgoa9euFZHMvyxLly6VEiVKyNdff/3OZXLC23+fkJAQadCggTRq1Eh++uknERF5+vSpdO7cWTw8POTu3bvKsvv375cGDRrId999pzd/53nz5snt27eV5wEBAeLp6Sndu3eXefPmKdOdnZ2lffv2yva+vX0RERHSrl07qVu3riQkJOjN9mdVUlKSDBgwQIoXLy4zZsyQJ0+eSHx8vBIi//zzj4iIEqK///67mJiYaBx9pwdM+/btZeDAgTm/ETrCABGR+/fvy9KlSzXaJlNSUmT9+vWiUqnkwoULcv78ealatar8+eefGq/9/fffxcnJSS5evCgiIs+ePZOjR4/KgQMH/rPcZ8+eZet25JT0H4pz585JhQoVpEaNGvLtt99K5cqVpX379ko/UL9+/aRs2bIZXp8eFHFxcTJmzBjp0KGDxtFMTnm7aSLdrVu35MsvvxRzc3ONI8itW7eKm5ubfPvttxrL9+7dW+rUqaMXR5vh4eFiZGQkixYtkpSUFGnQoIFUq1ZNVq1aJZMmTZKSJUvKhAkTRERkx44dUqpUKVm5cmWGcEh/fvHiRTE1NZXHjx/n+LbkhCdPnkiTJk3kk08+kSNHjsjt27eVz+rBgwelUaNG4uvrKyKaO0B16tSR+vXraxyFJCYmSrVq1WTlypU5uxE69NEHSFRUlDg6OopKpZKyZcvKjh075Pnz5yKStofl7e0t7u7ukpqaKrVr15axY8dq/PAHBgaKjY3Ne3+BUlNT5dmzZ9KhQwcZNWqU3uy1ZfZDO2zYMKUPSERk06ZNYmxsLIMGDRIRkevXr4u1tbVMmzYtwzrSt3vw4MHSqVOnd5ahK2+WdfPmTdmyZYuEhoYq0/744w+xtbXV6PNISUmRYcOGSZMmTeT06dPK9Lt372o8z8seP34sLi4uMn36dFm/fr14e3sre8c3btwQGxsbqVu3rvIZb9eunbRo0UIuX76c6fr++usvqV27tty4cSPHtkEX3vU9/P3336VSpUpKE+WbEhMTZdq0aVKlShU5cuSIiIjs2rVL/vnnH3n8+LFcuHBBWfb169cydOhQKVOmjNy7d08n25AbPvoAERGZPn26NGzYUJycnKRx48bi7u4uN2/eFJG0phgDAwMJCgqSTZs2iZOTk3zzzTfy/PlziYyMlF69eskXX3zxXm3AkZGRyv979eolTZs2lYMHD+psu7JbXFycbN++XWJiYuTFixfi6ekpx48fl5iYGOnZs6cULlxYRo4cKU+fPhWRtC/lnDlzxMjISJ48eZJhfZGRkVK3bl0ZPHhwjtQ/JSVFkpKSlOcJCQnSp08fMTMzEycnJ7G1tZX+/ftLcnKyxMbGyqhRo6R69eoaX/iTJ0+Kh4eHMtoqL0sPybeD2d3dXYYNGyY//PCD+Pj4iIiIj4+PmJuby9ChQ+XRo0fKsteuXRM7OzuZMGGCxMfHa6wnISFBnJ2dpU6dOvLq1atM65DZIIu85t+OfkeOHCk1a9bUmPbm9vz999/Stm1bKV26tDg7O4uJiYnGzsSb731+PEpjgEjaqJP27dtL9+7dJSQkRD755BOpWLGiTJ48WcLCwmTChAliZ2cnIiILFiwQKysrqV69utja2kq1atXkypUr/1nGwYMHpV69erJ69WoRSfvgOTs7i6+vb4bOtrwgsy/9nDlzxMrKSkTSwsTa2lq+/PJLKV68uHh5eSnNeCJpPzyJiYkSEREhjo6OsmbNmgzrmz59uvTp0yfDD5MuLF26VPr37y979uxRvtTz58+XqlWryo0bN+TBgweyc+dOMTIykqlTp0pqaqqcPHlS3N3dM7RZT5o0SebMmaPRwfpfMhvtpEu//fabdOzYUcLCwpRp6T+UkyZNkurVq8uwYcPExcVFLCwsxMvLS86ePasse/ToUWWH56uvvpIZM2ZkCKJ79+7JhAkT3vn5ffOHOTeaKP/L23+HxYsXy6+//iqnTp1Spv34449Srlw5pc/ozfcgvb/v6dOnMn36dPnhhx9yoNZ5CwPk/2zcuFHq1aunDMtbu3atlC5dWlxdXWX27NlStGhRmTNnjoiIXL16VXbs2JGl4ac3b96Uzz77TDp37ixRUVEiIvL9999Lw4YNZcOGDdm/QR/g7S9W+g/l2bNnpWTJksoQxbFjx4pKpZKtW7dqLH/06FEZNWqU8qVLP1cmXfqX8M2jAV3Zt2+flCtXTqpXry7+/v6yY8cOef36tbx+/VqaNGmSof16xowZUrZsWbl8+bKkpKTInDlzpGrVqrJ//35lne9bb7VaLSkpKfLTTz8pe/XpQ8J17eDBg1K9enWpUaNGhnOTpk2bJi1btpRly5ZJsWLF5KuvvtKY//jxY+nWrZsyAOJD6puYmCjjx4+XQYMGyU8//aQ0BeWlEUgbNmwQW1tbqVmzpjRo0EDMzMxky5YtIpI2/NbNzU38/Pw0XnP27FlZvHix0tz9prwYlrrCAPk/SUlJ0qVLF2ndurUyquLSpUsyfPhwsbOzE5VKJSqVKsM5HlmxYsUKcXZ2lrlz54pI2pFP8+bN5csvv5T79+9ny3Zkl0ePHsmiRYuUYcwiIqdPn5YGDRooAwlCQkLEwsJCvv76a7l8+bLExsbKnj17pG7dutKrVy+NvqLcaMoIDg6W6tWry4wZM+T169fKUNV09erVE39/fxHRHIZpbW0t8+fPF5G0TmJ3d3flZLGsun//vqhUKvnll19k1qxZUrBgQfnf//6n3QZlUXR0tDRq1EgqV64sy5YtU6b/9ddfUrBgQYmMjJSuXbtKgwYNZMGCBXLt2jX5888/pW7duuLh4aH0a6T/3bL6o3/gwAGxsbGRJk2ayMiRI8XLy0uqVq2q8ZnKaW8fNQYHB0vjxo2V4bgiIj169JCqVavK5cuXRa1Wy6xZs8TGxkbGjRsnu3btkg0bNkiFChWkT58+Ehsbq7G+vN5cl90YIG84ffq0uLq6ytSpUzWm7969W5o0aSKurq4SFRX13h+S9C9c+oc2OjpafHx8pFmzZsqIrzVr1kidOnVkwYIF2bglH27x4sVSsWJFadWqlbx8+VKZXrJkSVmyZInyfPPmzeLk5CTFixeXxo0bi6mpqXLyWW4bO3astGjR4p0/WFOnThVHR0dlpyD9yMLd3V2GDBmiLPc+TZSZSV9fu3btpFChQlKyZMkcP+fl7t27MmnSJDEwMJDp06dLZGSkRERESLly5WTHjh3y6NEjmTRpkpibm4uzs7PyQ5kVbzbPpUtOTpY+ffpIQECAMm3Dhg2iUqlk+vTp2bFpWnv+/Lmyw3b69GnlaOPN85eMjIykX79+kpKSIrGxsbJixQqpWLGiVKtWTcqUKaPsYHzsGCBvUKvVMmLECPH09FSGZKaHxZt7qP/l39rGd+zYIe7u7jJmzBhlWpcuXeTTTz/NcPaqrmU2NPPNvc3bt2+Lvb29dO7cWRmW3LdvX2nbtq3G6+7fvy+HDx+WDRs2aBzSZ6WPQBdatmwpX3zxhfJ8z549Mn/+fBk5cqQsXLhQli1bJp9//rl8+eWXyjJ3796VSpUqZRiu/b7e3ubo6GipWLGimJiYyKhRo5TpOb2n+t1330mVKlWkbdu2cufOHalQoYLSRCWS1mx1+fJljbB9n7/fm801L168UPqzYmJipFKlSnL69Gl59uyZtG7dWqysrCQgIOCdHe7Z4e339e3mxujoaKlXr55MnjxZRP7/Np45c0Zq1qwpbdq0kcePH8v69evFxMREgoKCNIadh4aGamxzbn/GcxsD5C1hYWHi7u4uPXv21Or1b36A165dK8OHD5e5c+dqnLjl7+8vjRo1Un6UDx8+LHXr1pWJEyfmSPtpSEiITJgwQfmxz+w6TelfmpMnT0qvXr3E1tZWrl27JqNGjZKePXv+65FYSkpKnjiUDwoKEpVKJR4eHlKuXDmpXLmytGjRQqpXry5VqlSRsmXLytatW8XS0lIaNmwogwcPltKlS4uXl5fSQfq+3v4hiY2N1djpWLt2rZiamsrRo0ezZduyKiUlRY4cOSLFihWTHj16iIGBgdL/k9myWf37jR49WipVqiS//fabpKSkyO3bt8XNzU06duwohQsXlq5du2oMk87unaW3j4L27duX6d8wPDxcLC0tlY7y9L/b2LFj5bPPPlMGDmzcuFFUKpV4eXnJw4cPM6znYw+OdAyQTPzwww+ycOFCrX8E//77b2nUqJHY2dnJV199JeXLl5c2bdrI4cOHRUTk1KlT4uXlJb169VI+9P7+/lKvXj3lsii69Mcff4iFhYXMmTNHucDbrVu33rl8bGystGnTRlq2bClubm5Srly5dwbdf71nOR0sO3bskLFjx8qMGTPk+PHjSpAHBwdLmTJl5I8//pCLFy9KQECAdO7c+YMvDLhixQqpUaOG0rf15t521apVpX379krfUG6E7IkTJ+SLL74QlUolnTp1ytKRdWbOnz8vFSpUEFdXV/nf//4nFy5cUD7Tbdq0ERMTE9m0aZPGa4KDg6Vv375KX+OHevPH/OLFi1KjRg2xt7eXCxcuyLNnz6R58+ayePFiefjwoTx+/FiqVaumnLeRrnr16jJ06FDl+ZQpU2T06NFSpUoVjWHNpIkBkokP+WInJSVJv379pH///kqnbXBwsBIi6WbOnCnOzs6ybt06EUkbpdWyZUs5fvz4h1X+PTk5OYlKpZLPP//8vTo14+Li5LvvvpPChQv/Z+BkJq/tsR0+fFisrKy0bqp6W0REhHTo0EHKly8vCxYskI0bN4qjo6P07NlTOafo6NGjolKpNPpB0ofZ5uSopOfPn2f4Uf8vmfVziIhMnjxZORH0badPnxYTExOZOHGiXLt2TaKiomT9+vVSpUoVGTlyZLYOX4+JiZEuXbooR1bpI/8iIyNl+PDh4uzsLOXKlZPPP/9c7O3tlaOT9M/lwoULRaVSSe/evaVZs2Zib2+vnM9E78YAeU/vupRDZtMOHDgg165dE5G0jtoiRYpI3bp1xcHBQRYvXiwiaWPoO3XqJO7u7spJdrrYI83sch2nTp0Sb29vsbGxkXnz5intxO8qP326Wq2WgwcPftCe47Jly2T06NGyaNGiLIdQdomLi5PRo0dLixYtstxUlZqammkYnj9/Xnx9fZWwEBFp3ry5FClSRBYtWqScaNqxY0epVKmSzJkzRzw9PaVu3bq5Gq7vU/aby7zdp+Dp6SktWrSQhw8fyurVq+WHH36Qbt26yfr160Uk7e9dt25dKV68uDRo0ECKFi2qMeIpO/z5559ibm4ujRs31jjv5W2rVq0SLy8vUalUMmDAgAxXSZ45c6Z069ZNBgwYoBFuH9Ow3KxigGRRfHx8hh/kzPbM1Gq1DBo0SOrUqSN79+6V58+fS+PGjaVBgwZKE8aSJUtkzJgx8vLlS52FR7q///5b/vrrL40vhr+/v9SqVUtpWsuKrH6pbt++LXXq1JGyZcvKyJEjpVatWtK8eXOlT0DXzTl3796VX3/9VZYuXSqOjo5SrVq19778yLJly5TLsby53W82/zx8+FAJj3nz5omVlZV06tRJWrVqJdWrV1fa3J8/fy6DBg2S+vXry6BBgz64CUkX3hUq3333nbRq1UrGjBkjv//+u4ikHVWVLl1aChUqJF5eXtKpUyfx9PSUKlWqSGBgoIik9TscP35ctm7dqpNzfw4ePChVqlRRLnyZ7o8//pBBgwZpXOMuMDBQnJycpFGjRmJrayvdu3fXuDbVm/XLa0fNeRED5D2lpKRIly5dlJE0ISEhMnv27Hcuf+XKFSldurTGCWiNGzeWggULyoABA0REd80Wb6735cuX0rFjRylatKg4OjpKvXr1lCuuvnjxQipVqiTDhg37oPNb3pbZF2/q1KnStWtXZV5wcLCYmJhIu3btsq3cf7Njxw5xdnaWRo0aZWkPOD4+XkaPHi2mpqZKB+vatWulXr160r59+ww/Wlu2bJGaNWsql/0PDQ0VAwMDmThxovIev379OsPJlblNrVYrV6B+uxn1/v37UqdOHalZs6ZMmjRJGjduLIUKFVKGv964cUMuX74sT58+VUZhOTg45NjQdLVaLV999ZU0a9ZMoqKi5OnTp9K8eXMpXLiwzJ07VyP0hwwZolxh++jRo+Lj4yNly5bN0FGel050zMsYIFmwfv16MTMzk5YtW4pKpZKAgIB37qUEBwdLxYoVlS/Z4cOHpUuXLjJ16lTlzPPs3ut+8/yM9LOghw4dKo0bN5a///5bzp49K2PGjBELCwvlLPoff/xRKlasKJs3bxaRtA7z9C9TVr9Eb78X6T8mSUlJ0rJlS+VyJv7+/lK4cGHp1auXxsgcXfv777+zdOSU/ve5fv261K9fX7p37y7Xr1+XihUryvTp06VDhw5SqlQppVkyPj5eevfuLW3btlVOMFu6dKkULlxYSpYsmaHjNi94+29crFgx6dWrl8a5P+vWrZM6deooncnpw91Lliyp0QyZ/t5u27ZNatWqlaPXebt9+7Y0btxYqlevLoULF5Y+ffponJybXrfhw4dL9+7dc6xe+R0D5F+8/QO/ZMkSUalUUrp0aaWP413u3LkjnTp1Emtra/nss8/ExMRE5s+fr7PD4mvXrmnc8EitVktERIRYWVkpTQkiaUcd/fv3l3LlyinTmjdvLvXr15d+/fqJSqX64Isbrly5UmrWrCmzZs0SkbQOzjp16kj//v2lTJky0rBhQ40fl5s3b+bp5oLY2FhZtWqVWFtbS4sWLZQdgOfPn0tAQICYmpoqtzBt3769eHh4yPHjxyU0NFS6dOkiu3fvznKnta69GRzx8fFy7NgxiYuLkzNnzih3zUv//Pfq1Uvc3d1FRHMnwcbGRjnp9vz58/L111/Lp59+KmZmZrlyot2sWbPEzs5O48jn7e9w48aNMx2+zH4O7TBAMpG+9/62U6dOSUBAgKhUqve638ft27dlwYIFMmTIEDl//rxO6pkuISFBZsyYIaampsqoqocPH0rNmjU17oynVqvlxIkTYmdnp4wGunr1qkyfPl1at26ttG1r4+nTp+Lh4SGlS5eWhQsXyp9//qn8sI4bN05UKpXGDYvSy/bz89O49HVuevvvfvHiRenQoYMsX75cBgwYIMbGxhrDOkNDQ6VSpUrSo0cPEUkL8ooVK0r58uWlUKFC0r179xy55pe2Zs6cKU5OTtK6dWspV66cpKSkSIsWLaRx48bKkeisWbOkcuXKShNcer/N6NGjxdXVVUTS+jmGDh2q3Cs9N7x8+VK8vb3Fx8cnw3u+bt066d27t8yePVsv7tuiLxggb3lzz+zevXuyatUqOXfunMYHslOnTv96CWtdi4+Pl2nTpikjXdLdvn1batSooZx9HRERIY0aNZKRI0dq9HFcv35d7O3tZffu3e8s47+OCDK7suyvv/4qn3zySab9KeHh4VK4cGHx9/eXy5cvS0JCgpw5c0Y++eQTadeuXaYna+Wm9Oa3ixcvSuXKlWXPnj3y559/iomJiXKuSPqORmBgoBgYGEhISIiIpH1u9u/fL9evX8+1+v+XO3fuiKenpzg4OMi2bdvk/v37ylH1nTt3RKVSyc8//ywiafe4d3NzU87eTpd+Bev0z0BeuK3tb7/9Jg0bNpRff/1VRNKGEjds2FDMzMwy7EjRh2OAZCL9xkFFihSRmjVrSqlSpaRt27bKeR137tyRQoUKZehAzQnJycny1VdfKRd39Pf3l2PHjinzfv31V1GpVMqonxkzZkjt2rWV+zCLiBw7dkwcHBwyvcbTfwXHv80fN26cctn7HTt2yPLly8XPz0+WL18uImmjYmrXri2FCxeWFi1aSKFChWTw4MF5ag89JiZG2rVrJ6NGjVJCxM3NTRn4MHDgQLG3t9d4H8LDw+WTTz4RBweHXKmzNr7//ntxd3fPcHOj9L+Fr6+vlClTRu7evSsJCQkyfvx4KVWqlAQGBsrdu3clODhYKlWqpPxt84qkpCT58ssvpUWLFtK2bVsxMDDQuK6ZCMMjOzFA3hITEyNjx44Vd3d35XILDx8+FJVKJQsWLFA6R7/55huxtbWVq1evSlJSkvz000//2S+SXYKCgqRp06bi7Owsn376qVhbW8vKlSslMjJSkpOTxdvbW7kJTmpqqvTo0UPKli0r7du3lwkTJoi1tbX07dtXaV7Sxv/+9z/54osvZOzYsbJ3714RSbsVbJkyZZTzXtq0aSOenp5ibW2ttEs/fvxYgoKCZO3atRr3l88rnjx5IjY2NmJubi7Dhg0TkbTBE/b29hIbGyshISFSoUIF5T7ub577k365/7wuPDxcLCwsMh1F+OZNqCwtLZVRh0+fPpVvvvlGLCwsxMnJSczNzTPc2jevSG+ibdGihcZnjP0c2Y8B8pa4uDhZuXKlMnb84MGD4uLiIkZGRmJnZ6dx3ShHR0epVauWWFlZSdWqVXP0xLhRo0ZJy5YtZfv27bJkyRKpWrWq1KpVSy5evCgHDx4US0tLZXx7ZGSkbNq0SXr27CnNmzdXDu//TWxsrLRs2VL27duXYXrnzp2lWLFi4ufnJ3Xr1pUSJUooHeahoaFy6NAhuXfvnnJSl7u7u/Tp0yeb34Hss3nzZuW9Sj9PY+zYsVK0aFH55ZdfZNOmTdK6dWv5448/RK1Wy+zZs8XKyipPBuD7uHLlipiZmSkd+2+PxErv4/j555/F1NRU44S7e/fuycGDBzO9D0ZekT4kOV1euTZbfsQAyUT6l2Pq1Klib28v48aNk5iYGClTpoz0799fOXv53r17snr1amUIbE66cOGCeHl5Se/evUVElLHvtWvXlg4dOkjXrl2lbNmyGq95u/npv5qr3NzcxM3NTeOOgcePH9c4MS46OloWLFgghoaGGp2T6V/YK1euiJubm8ZIsLwkJSVFpk6dqow8EhHx8/OTb7/9Vvbs2SNffPGFDBo0SJydnZV7aly9elWcnJyyfNnzvOLGjRtiYGAgP/7443/ulbu4uIiXl1e2nieUk/Ly6L78gAHyDg8ePJAGDRooe6YpKSnSuHFjsbKyki1btuSJE43mzp0rDRo0UH6cY2Ji5ODBg1KuXDkpU6aMqFQq+f777zO87n37Of7++28xMjLSOFN38eLFym1t0yUnJ4u7u7t07NhRRNKCdeHChdKnTx8xNTWV/v3758kzrt80bNgwcXV1ld9++03u378vRYsWlYSEBNm/f79069ZNVCqVchn7pKSkPHcDsKzy8PAQZ2dnZTve3kMfM2aMzJw5U06ePCm2trZ5bpAD5Q0FQJk6d+4c/v77b7i7uwMA7t+/j0qVKqFIkSK4dOlSLtcuTdeuXVGuXDls2bIFT548gbm5OZo2bYoDBw7Az88PNWrUQMuWLTO8zsDAINP1iQhSU1OV+VWqVMGYMWMwadIkPH36FABgaWkJW1tbnDt3DgCQmpqKggULonfv3jh//jyio6NhbGyMZ8+e4fXr1zh+/Dh++eUXGBkZ6ehdyB6zZs2Ch4cHJkyYgNOnT+Ozzz7Dhg0b0Lx5c4wfPx4AEBQUhIiICBgaGqJs2bK5XOMP4+/vj3PnzmHVqlWIjIyESqWCWq0GAFy7dg33799H5cqV4eLigidPnqB06dK5XGPKk3I7wfKqhIQEsbKykmbNmsnEiRPFwcFBJk+enCeGKr5p/fr14urqqvRBZIdbt25Jnz59ZNq0afLkyRMpVaqUjB07VkTSzoVxd3eXb775RuM1o0ePFhcXF0lISBC1Wp3hVp/6IDIyUrl7X5MmTWTq1KkaV1TOb5f1HjVqlBQsWFDatGkje/bskf3798vEiRPF1tZWBg0alOcut0J5DwPkXxw4cEC6d+8uderUyXACXF6RkJAggwYNkurVq8vFixczzM/qyJOpU6eKiYmJ9OjRQ9atWydRUVGybNkyMTExkatXr4qIyIQJE6RmzZoyffp0iYiIkNDQUGnSpIkSMvquf//+olKppF69enmiqVKX5syZI1WrVhVra2upWbOm1K1bVxlVR/RfVCIiuX0UlJelpKRApVK9s9knL9i/fz+OHz8OPz8/WFpaar2eS5cuoXfv3ggICEC7du2U6SKCBg0awN7eHtu2bUN4eDjWr1+PcePGoVq1arh9+zZatGiB1atXw8LCIhu2KHeICFQqFZ49e4YZM2agSpUq6N+/f25XS+diYmKQmpqKx48fo2rVqrldHdIjDBBSLFiwAD/++COOHz8OOzs7AIBarUaBAgVw6NAhNG/eHLt378ann34KALh+/ToePnwIGxsb1K5dOxdrnn3SQ+Rj8jFuM2UPBkg+kv5jr61x48Zh7969uHDhAlQqVYYfld69e+Ps2bM4ceLEBx3pEFH+wFFY+ciHhAcAdOrUCVeuXMGRI0eU8BARPHv2DFu2bMG3336L+/fv48aNG9lRXSLSczwCIUVycjL69OmDkydPYsuWLahYsSIAYPbs2fj777+xePFimJmZwdzcPJdrSkR5AQOENCQmJuKTTz7Bw4cP4eDggH/++QcFChTAmjVr4ObmltvVI6I8hAFCGURGRuLKlSsICQmBjY0NevTokdtVIqI8iAFCRERaYSc6ERFphQFCRERaYYAQEZFWGCBERKQVBggREWmFAUJERFphgBARkVYYIEREpJX/B9T0qLmFuIQQAAAAAElFTkSuQmCC;clipPath=inset(12.67% 61% 67.67% 13.5%);" vertex="1" parent="mIjLraYWU1ijbTPT-EfQ-20">
          <mxGeometry x="15" y="80" width="129.66" height="150" as="geometry" />
        </mxCell>
        <mxCell id="mIjLraYWU1ijbTPT-EfQ-19" value="" style="shape=image;verticalLabelPosition=bottom;labelBackgroundColor=default;verticalAlign=top;aspect=fixed;imageAspect=0;image=data:image/png,iVBORw0KGgoAAAANSUhEUgAAAZAAAAJYCAYAAABM7LCIAAAAOXRFWHRTb2Z0d2FyZQBNYXRwbG90bGliIHZlcnNpb24zLjcuMCwgaHR0cHM6Ly9tYXRwbG90bGliLm9yZy88F64QAAAACXBIWXMAAA9hAAAPYQGoP6dpAAByt0lEQVR4nO3dd1gU1/s28HtFioCgiAgWLKBi7wKCBixgNLFrNBbsJWIBS9REiRp7bDHGEhVL9GusiSWKFTX2hi0WrBgLoChSpO7z/sGPeV3BRFYWWLw/17WX7szsnDPL7t4z55yZUYmIgIiIKIsK5HYFiIhIPzFAiIhIKwwQIiLSCgOEiIi0wgAhIiKtMECIiEgrDBAiItIKA4SIiLTCACEiIq0wQIiISCsMECIi0goDhIiItMIAISIirTBAiIhIKwwQIiLSCgOEiIi0wgAhIiKtMECIiEgrDBAiItIKA4SIiLTCACEiIq0wQIiISCsMECIi0goDhIiItMIAISIirTBAiIhIKwwQIiLSCgOEiIi0wgAhIiKtMECIiEgrDBAiItIKA4SIiLTCACEiIq0wQIiISCsMECIi0goDhIiItMIAISIirTBAiIhIKwwQIiLSCgOEiIi0wgAhIiKtMECIiEgrDBAiItIKA4SIiLTCACEiIq0wQIiISCsMECIi0goDhIiItMIAISIirTBAiDIRHBwMlUqF4ODg3K6KXlGpVPjuu+9yuxqUQxggem716tVQqVQaDxsbG3h6emLPnj06Kzc+Ph7ffffde//Apv8gpz8MDAxgY2ODTp064fr161rXY/r06fj999+1fn12uXfvHnx9fVGpUiWYmprC1NQUVatWxdChQ3H58uXcrl62+vPPPxkSBAAomNsVoOwxZcoUlC9fHiKC8PBwrF69Gq1atcLOnTvx2WefZXt58fHxmDx5MgDAw8PjvV83fPhwNGjQAMnJybh8+TKWLl2K4OBgXL16Fba2tlmux/Tp09GpUye0a9cuy6/NLrt27cIXX3yBggULonv37qhVqxYKFCiAGzduYNu2bViyZAnu3buHsmXL5lods9Off/6JxYsXZxoir1+/RsGC/Fn5WPAvnU98+umnqF+/vvK8X79+KFGiBP73v//pJEC01bhxY3Tq1El5XrlyZQwZMgRr167F2LFjc7Fm2rlz5w66du2KsmXL4uDBg7Czs9OYP2vWLPz8888oUCDvHuzHxcXBzMwsW9ZlYmKSLesh/ZB3P9X0QYoUKYJChQpl2BtUq9VYsGABqlWrBhMTE5QoUQKDBg3CixcvNJY7d+4cvL29YW1tjUKFCqF8+fLo27cvAOD+/fsoXrw4AGDy5MlKs5Q2zRqNGzcGkPZD/KYffvgBjRo1QrFixVCoUCHUq1cPW7Zs0VhGpVIhLi4Oa9asUerQu3dvZf6jR4/Qt29flChRAsbGxqhWrRpWrVqVoQ7//PMP2rVrBzMzM9jY2MDPzw+JiYnvVf/Zs2cjLi4OgYGBGcIDAAoWLIjhw4ejTJkyGtNv3LiBTp06wcrKCiYmJqhfvz527NihsUx68+Tx48fh7++P4sWLw8zMDO3bt0dkZGSGsvbs2YPGjRvDzMwMhQsXRuvWrXHt2jWNZXr37g1zc3PcuXMHrVq1QuHChdG9e3cAwLFjx9C5c2fY29vD2NgYZcqUgZ+fH16/fq3x+sWLFwOARpNkusw+BxcvXsSnn34KCwsLmJubo1mzZjh16tQHbSvlDTwCySeio6Px7NkziAgiIiKwaNEixMbGokePHhrLDRo0CKtXr0afPn0wfPhw3Lt3Dz/99BMuXryI48ePw9DQEBEREfDy8kLx4sUxbtw4FClSBPfv38e2bdsAAMWLF8eSJUswZMgQtG/fHh06dAAA1KxZM8v1vn//PgCgaNGiGtMXLlyINm3aoHv37khKSsLGjRvRuXNn7Nq1C61btwYArFu3Dv3790fDhg0xcOBAAICDgwMAIDw8HC4uLlCpVPD19UXx4sWxZ88e9OvXD69evcLIkSMBpDW5NGvWDGFhYRg+fDhKliyJdevW4dChQ+9V/127dsHR0RHOzs7vvc3Xrl2Dm5sbSpUqhXHjxsHMzAybNm1Cu3btsHXrVrRv315j+WHDhqFo0aIICAjA/fv3sWDBAvj6+uK3335Tllm3bh18fHzg7e2NWbNmIT4+HkuWLIG7uzsuXryIcuXKKcumpKTA29sb7u7u+OGHH2BqagoA2Lx5M+Lj4zFkyBAUK1YMZ86cwaJFi/DPP/9g8+bNANI+P48fP8b+/fuxbt2699rWxo0bw8LCAmPHjoWhoSGWLVsGDw8PHDlyJMP79j7bSnmIkF4LDAwUABkexsbGsnr1ao1ljx07JgBk/fr1GtP37t2rMX379u0CQM6ePfvOciMjIwWABAQEvFc9Dx8+LABk1apVEhkZKY8fP5a9e/eKo6OjqFQqOXPmjMby8fHxGs+TkpKkevXq0rRpU43pZmZm4uPjk6G8fv36iZ2dnTx79kxjeteuXcXS0lJZ/4IFCwSAbNq0SVkmLi5OHB0dBYAcPnz4ndsUHR0tAKRdu3YZ5r148UIiIyOVx5vb06xZM6lRo4YkJCQo09RqtTRq1EgqVqyoTEv/2zZv3lzUarUy3c/PTwwMDOTly5ciIhITEyNFihSRAQMGaNTh6dOnYmlpqTHdx8dHAMi4ceMy1Pnt91xEZMaMGaJSqeTBgwfKtKFDh8q7fjre/ky0a9dOjIyM5M6dO8q0x48fS+HChaVJkyZZ3lbKW9iElU8sXrwY+/fvx/79+/Hrr7/C09MT/fv3V44agLQ9TEtLS7Ro0QLPnj1THvXq1YO5uTkOHz4MIK35C0jbu05OTs7Wevbt2xfFixdHyZIl0bJlS0RHR2PdunVo0KCBxnKFChVS/v/ixQtER0ejcePGuHDhwn+WISLYunUrPv/8c4iIxrZ6e3sjOjpaWc+ff/4JOzs7jX4ZU1NT5Yjm37x69QoAYG5unmGeh4cHihcvrjzSm32ioqJw6NAhdOnSBTExMUq9nj9/Dm9vb4SGhuLRo0ca6xo4cKBGM1Hjxo2RmpqKBw8eAAD279+Ply9folu3bhrbamBgAGdnZ+Xv+qYhQ4ZkmPbmex4XF4dnz56hUaNGEBFcvHjxP9+Pt6WmpmLfvn1o164dKlSooEy3s7PDl19+ib/++kt5D993WylvYRNWPtGwYUONTvRu3bqhTp068PX1xWeffQYjIyOEhoYiOjoaNjY2ma4jIiICAPDJJ5+gY8eOmDx5MubPnw8PDw+0a9cOX375JYyNjT+onpMmTULjxo0RGxuL7du3Y+PGjZl2MO/atQvff/89QkJCNPoj3vxxeZfIyEi8fPkSy5cvx/LlyzNdJn1bHzx4AEdHxwzrrVy58n+WU7hwYQBAbGxshnnLli1DTEwMwsPDNZoRb9++DRHBxIkTMXHixHfWrVSpUspze3t7jfnpzX3p/VahoaEAgKZNm2a6PgsLC43nBQsWROnSpTMsFxYWhkmTJmHHjh0Z+sSio6MzXfe/iYyMRHx8fKbvZZUqVaBWq/Hw4UNUq1ZNmf5f20p5CwMknypQoAA8PT2xcOFChIaGolq1alCr1bCxscH69eszfU16x7hKpcKWLVtw6tQp7Ny5E0FBQejbty/mzp2LU6dOZbrH/b5q1KiB5s2bAwDatWuH+Ph4DBgwAO7u7kpH87Fjx9CmTRs0adIEP//8M+zs7GBoaIjAwEBs2LDhP8tQq9UAgB49esDHxyfTZbTpr3mbpaUl7OzscPXq1Qzz0tv20/t43q7b6NGj4e3tnel6HR0dNZ4bGBhkupyIaKxz3bp1mQ6FfnsghbGxcYbQTk1NRYsWLRAVFYWvv/4aTk5OMDMzw6NHj9C7d2+lDF37r22lvIUBko+lpKQA+P97yA4ODjhw4ADc3Nw0mivexcXFBS4uLpg2bRo2bNiA7t27Y+PGjejfv/97HQm8j5kzZ2L79u2YNm0ali5dCgDYunUrTExMEBQUpHHEExgYmOH1mdWjePHiKFy4MFJTU5WwepeyZcvi6tWrEBGNdd28efO96t+6dWusWLECZ86cQcOGDf9z+fSmHENDw/+s2/tKHzhgY2Oj9TqvXLmCW7duYc2aNejVq5cyff/+/RmWfd+/ffHixWFqaprpe3njxg0UKFAgw+g00i/sA8mnkpOTsW/fPhgZGaFKlSoAgC5duiA1NRVTp07NsHxKSgpevnwJIK254O09vtq1awOA0pyUPnIn/TXacnBwQMeOHbF69Wo8ffoUQNpeqEqlQmpqqrLc/fv3Mz3j3MzMLEMdDAwM0LFjR2zdujXTo4M3h4W2atUKjx8/1hgiHB8f/86mr7eNHTsWpqam6Nu3L8LDwzPMf/t9tLGxgYeHB5YtW4YnT578a93el7e3NywsLDB9+vRM+6zeZ53pe/5v1ldEsHDhwgzLpp8z8l9/ewMDA3h5eeGPP/7QOBILDw/Hhg0b4O7unqF5jfQLj0DyiT179uDGjRsA0trQN2zYgNDQUIwbN075kn7yyScYNGgQZsyYgZCQEHh5ecHQ0BChoaHYvHkzFi5ciE6dOmHNmjX4+eef0b59ezg4OCAmJga//PILLCws0KpVKwBpHa5Vq1bFb7/9hkqVKsHKygrVq1dH9erVs1z3MWPGYNOmTViwYAFmzpyJ1q1bY968eWjZsiW+/PJLREREYPHixXB0dMxwWZB69erhwIEDmDdvHkqWLIny5cvD2dkZM2fOxOHDh+Hs7IwBAwagatWqiIqKwoULF3DgwAFERUUBAAYMGICffvoJvXr1wvnz52FnZ4d169YpAflfKlasiA0bNqBbt26oXLmycia6iODevXvYsGEDChQooNHnsHjxYri7u6NGjRoYMGAAKlSogPDwcJw8eRL//PMPLl26lKX3z8LCAkuWLEHPnj1Rt25ddO3aFcWLF0dYWBh2794NNzc3/PTTT/+6DicnJzg4OGD06NF49OgRLCwssHXr1kz7HurVqwcg7aoC3t7eMDAwQNeuXTNd7/fff4/9+/fD3d0dX331FQoWLIhly5YhMTERs2fPztJ2Uh6UO4O/KLtkNozXxMREateuLUuWLNEYEplu+fLlUq9ePSlUqJAULlxYatSoIWPHjpXHjx+LiMiFCxekW7duYm9vL8bGxmJjYyOfffaZnDt3TmM9J06ckHr16omRkdF/DulNH8a7efPmTOd7eHiIhYWFMlxz5cqVUrFiRTE2NhYnJycJDAyUgICADMNHb9y4IU2aNJFChQoJAI0hveHh4TJ06FApU6aMGBoaiq2trTRr1kyWL1+usY4HDx5ImzZtxNTUVKytrWXEiBHK0OZ/G8b7ptu3b8uQIUPE0dFRTExMpFChQuLk5CSDBw+WkJCQDMvfuXNHevXqJba2tmJoaCilSpWSzz77TLZs2aIsk/63fXs4dfp7+XbdDh8+LN7e3mJpaSkmJibi4OAgvXv31vi7+fj4iJmZWabb8Pfff0vz5s3F3NxcrK2tZcCAAXLp0iUBIIGBgcpyKSkpMmzYMClevLioVCqNv0lmn4MLFy6It7e3mJubi6mpqXh6esqJEyc0lsnqtlLeoBJh7xQREWUd+0CIiEgrDBAiItIKA4SIiLSSpQD57rvvMty8yMnJSZmfkJCAoUOHolixYjA3N0fHjh01hjZGRUXh888/h7m5OerUqZPh8ghDhw7F3LlzP3CTiIgoJ2T5CKRatWp48uSJ8vjrr7+UeX5+fti5cyc2b96MI0eO4PHjx8qVWgFg2rRpiImJwYULF+Dh4YEBAwYo806dOoXTp08rV0klIqK8LcvngRQsWDDTyyVER0dj5cqV2LBhg3JNnsDAQFSpUgWnTp2Ci4sLrl+/jq5du6JSpUoYOHCgcrJWcnIyBg8ejBUrVrzzUgZERJS3ZDlAQkNDUbJkSZiYmMDV1RUzZsyAvb09zp8/j+TkZI1LKTg5OcHe3h4nT56Ei4sLatWqhUOHDqF///4ICgpSrkc0e/ZseHh4aFwM8N8kJiZqXGBPrVYjKioKxYoVy7ZLbBAR5SYRQUxMDEqWLJl372iZlZNG/vzzT9m0aZNcunRJ9u7dK66urmJvby+vXr2S9evXi5GRUYbXNGjQQMaOHSsiIi9fvlROUGvSpIlcu3ZNbt26JRUrVpRnz57JoEGDpHz58tK5c+d/vf5/+gllfPDBBx/5/fHw4cOs/EznqA86kfDly5coW7Ys5s2bh0KFCqFPnz4ZbgXasGFDeHp6YtasWZmuo2nTphgxYgQePHiAXbt2Yffu3RgwYACKFSv2zg71t49AoqOjYW9vj4cPH/LaOkSUL7x69QplypTBy5cvYWlpmdvVydQHXQurSJEiqFSpEm7fvo0WLVogKSkJL1++VG5IBKRdOC2zPhMgrY+kSJEiaNu2LTp06IB27drB0NAQnTt3xqRJk95ZrrGxcab3pbCwsGCAEFG+kpeb5T+oYS02NhZ37tyBnZ0d6tWrB0NDQxw8eFCZf/PmTYSFhcHV1TXDayMjIzFlyhQsWrQIQNr9CNKvJJqcnKxxJVYiIsp7snQEMnr0aHz++ecoW7YsHj9+jICAABgYGKBbt26wtLREv3794O/vDysrK1hYWGDYsGFwdXWFi4tLhnWNHDkSo0aNUu685ubmhnXr1sHLywvLly+Hm5tb9mwhERHpRJYC5J9//kG3bt3w/PlzFC9eHO7u7jh16pRyJ7v58+ejQIEC6NixIxITE+Ht7Y2ff/45w3qCgoJw+/ZtrFu3Tpnm6+uLc+fOwdnZGQ0bNkRAQMAHbhoREelSvrga76tXr2BpaYno6Oh/7QN5s5mMdMfIyCjvDjsk0hPv+7uWmz6KG0qJCJ4+ffrBd8+j91OgQAGUL18eRkZGuV0VItKhjyJA0sPDxsYGpqameXpUg75Tq9V4/Pgxnjx5Ant7e77XRPlYvg+Q1NRUJTyKFSuW29X5KBQvXhyPHz9GSkoKDA0Nc7s6RKQj+b6hOr3P433vcU0fLr3pikOxifK3fB8g6diUknP4XhN9HD6aACEiouzFACEiIq3k+070f1Nu3O4cK+v+zNZZWr53795Ys2ZNhune3t7Yu3dvdlXrvUybNg27d+9GSEgIjIyMOByaiAB85AGS17Vs2RKBgYEa0zK7iKSuJSUloXPnznB1dcXKlStzvHwiypvYhJWHGRsbw9bWVuNRtGhRAEBwcDCMjIxw7NgxZfnZs2fDxsZGuQ+9h4cHfH194evrC0tLS1hbW2PixInI6sUHJk+eDD8/P9SoUSP7No6I9B4DRE95eHhg5MiR6NmzJ6Kjo3Hx4kVMnDgRK1asQIkSJZTl1qxZg4IFC+LMmTNYuHAh5s2bhxUrVuRizYkov2CA5GG7du2Cubm5xmP69OnK/O+//x5FixbFwIED0aNHD/j4+KBNmzYa6yhTpgzmz5+PypUro3v37hg2bBjmz5+f05tCRPkQ+0DyME9PTyxZskRjmpWVlfJ/IyMjrF+/HjVr1kTZsmUzDQYXFxeN8zJcXV0xd+5cpKamwsDAQHeVJ6J8jwGSh5mZmcHR0fFflzlx4gQAICoqClFRUTAzM8uJqhERsQlLn925cwd+fn745Zdf4OzsDB8fH6jVao1lTp8+rfH81KlTqFixIo8+iOiDMUDysMTERDx9+lTj8ezZMwBp15nq0aMHvL290adPHwQGBuLy5cuYO3euxjrCwsLg7++Pmzdv4n//+x8WLVqEESNGKPPHjx+PXr16/Ws9wsLCEBISgrCwMKSmpiIkJAQhISGIjY3N/o0mIr3BJqw8bO/evbCzs9OYVrlyZdy4cQPTpk3DgwcPsGvXLgCAnZ0dli9fjm7dusHLywu1atUCAPTq1QuvX79Gw4YNYWBggBEjRmDgwIHK+p48eYKwsLB/rcekSZM0TmqsU6cOAODw4cPw8PDIjk0lIj2U7+9ImJCQgHv37qF8+fIwMTHJpRrmDg8PD9SuXRsLFizI0XI/5vecKLvowx0J2YRFRERaYYAQEZFW2AeSjwUHB+d2FYgoH+MRCBERaYUBQkREWmGAEBGRVhggRESkFQYIERFphQFCRERaYYDkUb1794ZKpcrwaNmyZY7W4/79++jXrx/Kly+PQoUKwcHBAQEBAUhKSsrRehBR3vNxnwfynWUOlhWd5ZfkhXui37hxA2q1GsuWLYOjoyOuXr2KAQMGIC4uDj/88EOO1oWI8hYegeRheeGe6Okh5uXlhQoVKqBNmzYYPXo0tm3blr0bS0R6hwGip3LznujR0dEad0Ykoo8TAyQPy4v3RL99+zYWLVqEQYMGab0OIsofPu4+kDwur90T/dGjR2jZsiU6d+6MAQMGZHFriCi/YYDkYXnpnuiPHz+Gp6cnGjVqhOXLl+ukDCLSL2zC0mM5dU/0R48ewcPDA/Xq1UNgYCAKFODHhogYIHlaXrgnenp42Nvb44cffkBkZKRSFyL6uLEJKw/LC/dE379/P27fvo3bt2+jdOnSGvPywd2QiegD8J7o+RjviU6kv3hPdCIiyrcYIEREpBX2geRjvCc6EekSj0CIiEgrDBAiItIKA4SIiLTCACEiIq0wQIiISCsMECIi0goDhIiItMIAyaN69+4NlUqV4dGyZcscr0ubNm1gb28PExMT2NnZoWfPnnj8+HGO14OI8paP+kTCGmtq5FhZV3yuZPk16fcjf5OxsXF2Vem9eXp6YsKECbCzs8OjR48wevRodOrUSbkXCRF9nHgEkocZGxvD1tZW41G0aFEAaWeZGxkZ4dixY8rys2fPho2NDcLDwwGkXUzR19cXvr6+sLS0hLW1NSZOnJjlq+j6+fnBxcUFZcuWRaNGjTBu3DicOnUKycnJ2bexRKR3PuojEH3m4eGBkSNHomfPnrh06RLu3r2LiRMnYvPmzShRooSy3Jo1a9CvXz+cOXMG586dw8CBA2Fvb6/1LWmjoqKwfv16NGrUCIaGhtm1OZRDFg8+lGtlD13aNNfKJt3gEUgetmvXLpibm2s8pk+frsz//vvvUbRoUQwcOBA9evSAj48P2rRpo7GOMmXKYP78+ahcuTK6d++OYcOGZXrv9P/y9ddfw8zMDMWKFUNYWBj++OOPD94+ItJvDJA8zNPTEyEhIRqPwYMHK/ONjIywfv16bN26FQkJCZkGg4uLC1QqlfLc1dUVoaGhSE1NzVJdxowZg4sXL2Lfvn0wMDBAr169eEMpoo8cm7DyMDMzMzg6Ov7rMukd2VFRUYiKioKZmZlO6mJtbQ1ra2tUqlQJVapUQZkyZXDq1Cm4urrqpDwiyvt4BKLH7ty5Az8/P/zyyy9wdnaGj48P1Gq1xjKnT5/WeH7q1ClUrFgRBgYGWpebXkZiYqLW6yAi/ccAycMSExPx9OlTjcezZ88AAKmpqejRowe8vb3Rp08fBAYG4vLly5g7d67GOsLCwuDv74+bN2/if//7HxYtWoQRI0Yo88ePH49evXq9sw6nT5/GTz/9hJCQEDx48ACHDh1Ct27d4ODgwKMPoo8cm7DysL1798LOzk5jWuXKlXHjxg1MmzYNDx48wK5duwAAdnZ2WL58Obp16wYvLy/UqlULANCrVy+8fv0aDRs2hIGBAUaMGIGBAwcq63vy5AnCwsLeWQdTU1Ns27YNAQEBiIuLg52dHVq2bIlvv/02V85JIaK8QyX5oCf0324+n5CQgHv37qF8+fIwMTHJpRrmDg8PD9SuXRsLFizI0XI/5vc8r+MwXv3xb79reQWbsIiISCsMECIi0gr7QPKx4ODg3K4CEeVjPAIhIiKtMECIiEgrDBAiItIKA4SIiLTCACEiIq0wQIiISCsMECIi0goDJI/q3bs3VCpVhkfLli1zrU6JiYmoXbs2VCoVQkJCcq0eRJQ3fNQnEl53qpJjZVW5cT3Lr2nZsiUCAwM1puXmBQzHjh2LkiVL4tKlS7lWByLKO3gEkocZGxvD1tZW41G0aFEAaWeZGxkZ4dixY8rys2fPho2NDcLDwwGkXUzR19cXvr6+sLS0hLW1NSZOnKjVnQT37NmDffv24YcffsiejSMivccA0VMeHh4YOXIkevbsiejoaFy8eBETJ07EihUrUKJECWW5NWvWoGDBgjhz5gwWLlyIefPmYcWKFVkqKzw8HAMGDMC6detgamqa3ZtCRHqKAZKH7dq1C+bm5hqP6dOnK/O///57FC1aFAMHDkSPHj3g4+ODNm3aaKyjTJkymD9/PipXrozu3btj2LBhmd47/V1EBL1798bgwYNRv379bNs2ItJ/H3UfSF7n6emJJUuWaEyzsrJS/m9kZIT169ejZs2aKFu2bKbB4OLiApVKpTx3dXXF3LlzkZqa+l63tV20aBFiYmIwfvz4D9gSIsqPGCB5mJmZGRwdHf91mRMnTgAAoqKiEBUVBTMzs2ytw6FDh3Dy5MkMnff169dH9+7dsWbNmmwtj4j0B5uw9NidO3fg5+eHX375Bc7OzvDx8YFardZY5vTp0xrPT506hYoVK77X0QcA/Pjjj7h06RJCQkIQEhKCP//8EwDw22+/Ydq0admzIUSkl3gEkoclJibi6dOnGtMKFiwIa2trpKamokePHvD29kafPn3QsmVL1KhRA3PnzsWYMWOU5cPCwuDv749BgwbhwoULWLRoEebOnavMHz9+PB49eoS1a9dmWgd7e3uN5+bm5gAABwcHlC5dOrs2lYj0EAMkD9u7dy/s7Ow0plWuXBk3btzAtGnT8ODBA+zatQsAYGdnh+XLl6Nbt27w8vJCrVq1AAC9evXC69ev0bBhQxgYGGDEiBEYOHCgsr4nT54gLCws5zaKiPINlWhzUkAe8283n09ISMC9e/dQvnx5mJiY5FINc4eHhwdq166NBQsW5Gi5H/N7ntctHnwo18oeurRprpWtj/7tdy2vYB8IERFpResAmTlzJlQqFUaOHKlMS0hIwNChQ1GsWDGYm5ujY8eOylnRQNpIoc8//xzm5uaoU6cOLl68qLHOoUOHarTPExFR3qVVgJw9exbLli1DzZo1Nab7+flh586d2Lx5M44cOYLHjx+jQ4cOyvxp06YhJiYGFy5cgIeHBwYMGKDMO3XqFE6fPq0RSPRhgoODc7z5iog+HlkOkNjYWHTv3h2//PKLcl0mAIiOjsbKlSsxb948NG3aFPXq1UNgYCBOnDiBU6dOAQCuX7+Orl27olKlShg4cCCuX0+7wGBycjIGDx6MpUuXvvfwUiIiyl1ZDpChQ4eidevWaN68ucb08+fPIzk5WWO6k5MT7O3tcfLkSQBArVq1cOjQIaSkpCAoKEg5gpk9ezY8PDze+1IZiYmJePXqlcaDiIhyVpYCZOPGjbhw4QJmzJiRYd7Tp09hZGSEIkWKaEwvUaKEci7DuHHjULBgQTg4OGD79u1YuXIlQkNDsWbNGkycOBGDBw9GhQoV0KVLF0RHR7+zHjNmzIClpaXyKFOmTFY2g4iIssF7B8jDhw8xYsQIrF+/XuuhmZaWltiwYQMePHiAI0eOoGrVqhg0aBDmzJmD9evX4+7du7h58yZMTU0xZcqUd65n/PjxiI6OVh4PHz7Uqj5ERKS99w6Q8+fPIyIiAnXr1kXBggVRsGBBHDlyBD/++CMKFiyIEiVKICkpCS9fvtR4XXh4OGxtbTNdZ2BgIIoUKYK2bdsiODgY7dq1g6GhITp37ozg4OB31sXY2BgWFhYaDyIiylnvfSZ6s2bNcOXKFY1pffr0gZOTE77++muUKVMGhoaGOHjwIDp27AgAuHnzJsLCwuDq6pphfZGRkZgyZQr++usvAEBqaiqSk5MBpHWqp6amar1RRESke+8dIIULF0b16tU1ppmZmaFYsWLK9H79+sHf3x9WVlawsLDAsGHD4OrqChcXlwzrGzlyJEaNGoVSpUoBANzc3LBu3Tp4eXlh+fLlcHNz+5DtIiIiHcvWM9Hnz5+Pzz77DB07dkSTJk1ga2uLbdu2ZVguKCgIt2/fxldffaVM8/X1RYUKFeDs7IykpCQEBARkZ9X0Tu/evaFSqTI8WrZsmeN1KVeuXIZ6zJw5M8frQUR5ywddTPHtfgoTExMsXrwYixcv/tfXeXt7w9vbW2OaqakpNm3a9CHVybKcvC6QNtcBatmyJQIDAzWmvX1fjpwyZcoUjRM/CxcunCv1IKK8g9fCysOMjY1ha2ur8Ug/eTM4OBhGRkY4duyYsvzs2bNhY2OjXD7Gw8MDvr6+8PX1haWlJaytrTFx4kRoc/3MwoULa9Qju29cRUT6hwGipzw8PDBy5Ej07NkT0dHRuHjxIiZOnIgVK1agRIkSynJr1qxBwYIFcebMGSxcuBDz5s3DihUrslzezJkzUaxYMdSpUwdz5sxBSkpKdm4OEekh3g8kD9u1a5dyA6d0EyZMwIQJEwAA33//Pfbv34+BAwfi6tWr8PHxQZs2bTSWL1OmDObPnw+VSoXKlSvjypUrmD9/vkZz1H8ZPnw46tatCysrK5w4cQLjx4/HkydPMG/evA/fSCLSWwyQPMzT0xNLlizRmGZlZaX838jICOvXr0fNmjVRtmxZzJ8/P8M6XFxcoFKplOeurq6YO3cuUlNT3/u6Y/7+/sr/a9asCSMjIwwaNAgzZszItT4ZIsp9DJA8zMzMDI6Ojv+6zIkTJwCkXSo/KioqR/omnJ2dkZKSgvv376Ny5co6L4+I8ib2geixO3fuwM/PD7/88gucnZ3h4+MDtVqtsczp06c1np86dQoVK1b8oKseh4SEoECBArCxsdF6HUSk/3gEkoclJiYqF6JMV7BgQVhbWyM1NRU9evSAt7c3+vTpg5YtW6JGjRqYO3cuxowZoywfFhYGf39/DBo0CBcuXMCiRYs0bto1fvx4PHr0CGvXrs20DidPnsTp06fh6emJwoUL4+TJk/Dz80OPHj00LudPRB8fBkgetnfvXtjZ2WlMq1y5Mm7cuIFp06bhwYMH2LVrFwDAzs4Oy5cvR7du3eDl5YVatWoBAHr16oXXr1+jYcOGMDAwwIgRIzBw4EBlfU+ePEFYWNg762BsbIyNGzfiu+++Q2JiIsqXLw8/Pz+NfhEi+jipRJuTAvKYf7v5fEJCAu7du4fy5ctrfRVhfeXh4YHatWvn+F0JP+b3PK/LyZNn36bNybQfs3/7Xcsr2AdCRERaYRMW0UekafDQXCz9ei6WTbrAAMnH/u2eKkREH4pNWEREpBUGCBERaeWjCZB8MNhMb/C9Jvo45PsAMTQ0BADEx8fnck0+HklJSQDwQWe7E1Hel+870Q0MDFCkSBFEREQASLtx1ZsXF6TspVarERkZCVNTUxQsmO8/XkQftY/iG25rawsASoiQbhUoUAD29vYMaqJ87qMIEJVKBTs7O9jY2CA5OTm3q5PvGRkZoUCBfN86SvTR+ygCJJ2BgQHb5YmIsgl3E4mISCsMECIi0goDhIiItMIAISIirTBAiIhIKwwQIiLSCgOEiIi0wgAhIiKtMECIiEgrDBAiItIKA4SIiLTCACEiIq0wQIiISCsMECIi0goDhIiItMIAISIirTBAiIhIKwwQIiLSCgOEiIi0wgAhIiKtMECIiEgrDBAiIj31+vVrxMfHK88fPHiABQsWYN++fTlSPgOEiEhPtW3bFmvXrgUAvHz5Es7Ozpg7dy7atm2LJUuW6Lx8BggRkZ66cOECGjduDADYsmULSpQogQcPHmDt2rX48ccfdV4+A4SISE/Fx8ejcOHCAIB9+/ahQ4cOKFCgAFxcXPDgwQOdl88AISLSU46Ojvj999/x8OFDBAUFwcvLCwAQEREBCwsLnZfPACEi0lOTJk3C6NGjUa5cOTg7O8PV1RVA2tFInTp1dF5+QZ2XQEREOtGpUye4u7vjyZMnqFWrljK9WbNmaN++vc7LZ4AQEekxW1tb2Nraakxr2LBhjpTNACEi0lNxcXGYOXMmDh48iIiICKjVao35d+/e1Wn5DBAiIj3Vv39/HDlyBD179oSdnR1UKlWOls8AISLSU3v27MHu3bvh5uaWK+VzFBYRkZ4qWrQorKyscq18BggRkZ6aOnUqJk2apHE9rJzEJiwiIj01d+5c3LlzByVKlEC5cuVgaGioMf/ChQs6LZ8BQkSkp9q1a5er5TNAiIj0VEBAQK6WzwAhItJz58+fx/Xr1wEA1apVy5HLmAAMECIivRUREYGuXbsiODgYRYoUAZB2XxBPT09s3LgRxYsX12n5HIVFRKSnhg0bhpiYGFy7dg1RUVGIiorC1atX8erVKwwfPlzn5fMIhIhIT+3duxcHDhxAlSpVlGlVq1bF4sWLlUu76xKPQIiI9JRarc4wdBcADA0NM1wXSxcYIEREeqpp06YYMWIEHj9+rEx79OgR/Pz80KxZM52XzwAhItJTP/30E169eoVy5crBwcEBDg4OKF++PF69eoVFixbpvHz2gRAR6akyZcrgwoULOHDgAG7cuAEAqFKlCpo3b54j5TNAiIj0mEqlQosWLdCiRYscL5sBQkSkR3788UcMHDgQJiYm+PHHH/91WV0P5VWJiOi0hBzw6tUrWFpaIjo6GhYWFrldHaI867pTlf9eSEeq3Liea2Xro3f9rpUvXx7nzp1DsWLFUL58+Xe+XqVS8Y6ERET0/927dy/T/+cGjsIiItJTU6ZMyfReIK9fv8aUKVN0Xj4DhIhIT02ePBmxsbEZpsfHx2Py5Mk6L58BQkSkp0QEKpUqw/RLly7lyK1u2QdCRKRnihYtCpVKBZVKhUqVKmmESGpqKmJjYzF48GCd14MBQkSkZxYsWAARQd++fTF58mRYWloq84yMjFCuXDm4urrqvB4MECIiPePj4wMgbUhvo0aNMr2gYk5ggBAR6alPPvlE+X9CQgKSkpI05uv6vDh2ohMR6an4+Hj4+vrCxsYGZmZmKFq0qMZD1xggRER6asyYMTh06BCWLFkCY2NjrFixApMnT0bJkiWxdu1anZfPJiwiIj21c+dOrF27Fh4eHujTpw8aN24MR0dHlC1bFuvXr0f37t11Wj6PQIiI9FRUVBQqVKgAIK2/IyoqCgDg7u6Oo0eP6rx8BggRkZ6qUKGCcj0sJycnbNq0CUDakUmRIkV0Xn6WAmTJkiWoWbMmLCwsYGFhAVdXV+zZs0eZn5CQgKFDh6JYsWIwNzdHx44dER4ersyPiorC559/DnNzc9SpUwcXL17UWP/QoUMxd+7cD9wkIqKPQ58+fXDp0iUAwLhx47B48WKYmJjAz88PY8aM0Xn5Wbqc+86dO2FgYICKFStCRLBmzRrMmTMHFy9eRLVq1TBkyBDs3r0bq1evhqWlJXx9fVGgQAEcP34cADBq1CicP38ey5cvx5IlS3Ds2DGcO3cOAHDq1Cn4+vri9OnTMDAwyNJG8HLuRO+nxpoauVb2FZ8ruVa2PtLmd+3Bgwc4f/48HB0dUbNmTR3XMBvuB2JlZYU5c+agU6dOKF68ODZs2IBOnToBAG7cuIEqVarg5MmTcHFxQatWrdCmTRsMHjwY169fR/369REXF4fk5GQ0aNAAK1asQP369bNcBwYI0fthgOiP//pdS05ORsuWLbF06VJUrFgxF2r4AX0gqamp2LhxI+Li4uDq6orz588jOTlZ4168Tk5OsLe3x8mTJwEAtWrVwqFDh5CSkoKgoCAlIWfPng0PDw+twoOI6GNkaGiIy5cv52odshwgV65cgbm5OYyNjTF48GBs374dVatWxdOnT2FkZJSh46ZEiRJ4+vQpgLQ2uoIFC8LBwQHbt2/HypUrERoaijVr1mDixIkYPHgwKlSogC5duiA6OvqddUhMTMSrV680HkREH5sePXpg5cqVuVZ+ls8DqVy5MkJCQhAdHY0tW7bAx8cHR44cea/XWlpaYsOGDRrTmjZtijlz5mD9+vW4e/cubt68iQEDBmDKlCnv7FCfMWNGjlzrnogoL0tJScGqVatw4MAB1KtXD2ZmZhrz582bp9PysxwgRkZGcHR0BADUq1cPZ8+excKFC/HFF18gKSkJL1++1DgKCQ8Ph62tbabrCgwMRJEiRdC2bVt06NAB7dq1g6GhITp37oxJkya9sw7jx4+Hv7+/8vzVq1coU6ZMVjeFiEivXb16FXXr1gUA3Lp1S2NeZvcJyW4ffCa6Wq1GYmIi6tWrB0NDQxw8eBAdO3YEANy8eRNhYWGZXlY4MjISU6ZMwV9//QUgrU8lOTkZQFrnUGpq6jvLNDY2hrGx8YdWnYhIrx0+fDhXy89SgIwfPx6ffvop7O3tERMTgw0bNiA4OBhBQUGwtLREv3794O/vDysrK1hYWGDYsGFwdXWFi4tLhnWNHDkSo0aNQqlSpQAAbm5uWLduHby8vLB8+XK4ubllzxYSEeVzt2/fxp07d9CkSRMUKlTonXcqzG5ZCpCIiAj06tULT548gaWlJWrWrImgoCC0aNECADB//nwUKFAAHTt2RGJiIry9vfHzzz9nWE9QUBBu376NdevWKdN8fX1x7tw5ODs7o2HDhggICPjATSMiyt+eP3+OLl264PDhw1CpVAgNDUWFChXQr18/FC1aVOcnZn/weSB5Ac8DIXo/PA9Ef7zP71qvXr0QERGBFStWoEqVKrh06RIqVKiAoKAg+Pv749q1azqtI6/GS0Skp/bt24egoCCULl1aY3rFihXx4MEDnZfPiykSEempuLg4mJqaZpgeFRWVIwONGCBERHqqcePGGjeOUqlUUKvVmD17Njw9PXVePpuwiIj01OzZs9GsWTOcO3cOSUlJGDt2LK5du4aoqCjlIra6xCMQIiI9Vb16ddy6dQvu7u5o27Yt4uLi0KFDB1y8eBEODg46L59HIEREeszS0hLffPNNrpTNACEi0mMvX77EmTNnEBERAbVarTGvV69eOi2bAUJEpKd27tyJ7t27IzY2FhYWFhpnn6tUKp0HCPtAiIj01KhRo9C3b1/Exsbi5cuXePHihfKIiorSefkMECIiPfXo0SMMHz4803NBcgIDhIhIT3l7e+PcuXO5Vj77QIiI9FTr1q0xZswY/P3336hRowYMDQ015rdp00an5TNAiIj01IABAwAAU6ZMyTBPpVL9632VsgMDhIhIT709bDensQ+EiCgfSEhIyPEyGSBERHoqNTUVU6dORalSpWBubo67d+8CACZOnIiVK1fqvHw2YRFRvrd48KFcK3vo0qY6W/e0adOwZs0azJ49W+kPAdKukbVgwQL069dPZ2UDPAIhItJba9euxfLly9G9e3cYGBgo02vVqoUbN27ovHwGCBGRnnr06BEcHR0zTFer1UhOTtZ5+QwQIiI9VbVqVRw7dizD9C1btqBOnTo6L599IEREemrSpEnw8fHBo0ePoFarsW3bNty8eRNr167Frl27dF4+j0CIiPRU27ZtsXPnThw4cABmZmaYNGkSrl+/jp07d6JFixY6L59HIEREeqxx48bYv39/rpTNACEi0nMxMTEQEeV5gQIFYG5urvNy2YRFRKRnQkJC0KpVK+V5yZIlUbRoUeVRpEgRnD17Vuf14BEIEZGeWbRoEdzd3TWmrVu3DqVKlYKIYNWqVfjxxx+xbt06ndaDAUJEpGdOnDgBX19fjWkuLi6oUKECAKBQoULo0qWLzuvBJiwiIj3z4MEDFC9eXHk+ZcoUWFtbK8/t7OwQHh6u83owQIiI9IyJiQkePHigPPfz84OFhYXy/OHDhzlym1sGCBGRnqlTpw5+//33d87ftm0bz0QnIqKMvvrqK3Tt2hXlypXDkCFDUKBA2rFAamoqfv75ZyxatAgbNmzQeT0YIEREeqZjx47w9/fHsGHDMGHCBKXz/O7du4iNjYW/vz86deqk83owQIiI9NCsWbPQvn17/O9//0NoaCgAoEmTJujWrRtcXFxypA4MECIiPeXi4pJjYZEZdqITEZFWGCBERKQVBggREWmFAUJEpEd27NiRI7erfR8MECIiPdK+fXu8fPkSAGBgYICIiIhcqwsDhIhIjxQvXhynTp0CAIgIVCpVrtWFw3iJiPTI4MGD0bZtW6hUKqhUKtja2r5z2dTUVJ3WhQFCRKRHvvvuO3Tt2hW3b99GmzZtEBgYiCJFiuRKXRggRER6xsnJCU5OTggICEDnzp1z5Mq7mWGAEBHpqYCAAABAZGQkbt68CQCoXLmyxr1CdImd6EREeio+Ph59+/ZFyZIl0aRJEzRp0gQlS5ZEv379EB8fr/PyGSBERHrKz88PR44cwY4dO/Dy5Uu8fPkSf/zxB44cOYJRo0bpvHw2YRER6amtW7diy5Yt8PDwUKa1atVKuSf6kiVLdFo+j0CIiPRUfHw8SpQokWG6jY0Nm7CIiOjdXF1dERAQgISEBGXa69evMXnyZLi6uuq8fDZhERHpqYULF8Lb2xulS5dGrVq1AACXLl2CiYkJgoKCdF4+A4SISE9Vr14doaGhWL9+PW7cuAEA6NatG7p3745ChQrpvHwGCBGRHjM1NcWAAQNypWz2gRARkVYYIEREpBUGCBERaYUBQkREWmGAEBHpsZcvX2LFihUYP348oqKiAAAXLlzAo0ePdF42R2EREempy5cvo3nz5rC0tMT9+/cxYMAAWFlZYdu2bQgLC8PatWt1Wj6PQIiI9JS/vz969+6N0NBQmJiYKNNbtWqFo0eP6rx8BggRkZ46e/YsBg0alGF6qVKl8PTpU52XzwAhItJTxsbGePXqVYbpt27dypGbSjFAiIj0VJs2bTBlyhQkJycDAFQqFcLCwvD111+jY8eOOi+fAUJEpKfmzp2L2NhY2NjY4PXr1/jkk0/g6OiIwoULY9q0aTovn6OwiIj0lKWlJfbv34+//voLly9fRmxsLOrWrYvmzZvnSPkMECIiPefu7g53d/ccL5cBQkSkp3788cdMp6tUKpiYmMDR0RFNmjSBgYGBTspngBAR6an58+cjMjIS8fHxKFq0KADgxYsXMDU1hbm5OSIiIlChQgUcPnwYZcqUyfby2YlORKSnpk+fjgYNGiA0NBTPnz/H8+fPcevWLTg7O2PhwoUICwuDra0t/Pz8dFI+j0CIiPTUt99+i61bt8LBwUGZ5ujoiB9++AEdO3bE3bt3MXv2bJ0N6WWA0Edp8eBDuVb20KVNc61syl+ePHmClJSUDNNTUlKUM9FLliyJmJgYnZTPJiwiIj3l6emJQYMG4eLFi8q0ixcvYsiQIWjaNG1H5cqVKyhfvrxOyucRCBHle02Dh+Zi6dd1tuaVK1eiZ8+eqFevHgwNDQGkHX00a9YMK1euBACYm5tj7ty5OimfAUJEpKdsbW2xf/9+3LhxA7du3QIAVK5cGZUrV1aW8fT01Fn5DBAiIj3n5OQEJyenHC+XAUJEpMf++ecf7NixA2FhYUhKStKYN2/ePJ2WzQAhItJTBw8eRJs2bVChQgXcuHED1atXx/379yEiqFu3rs7L5ygsIiI9NX78eIwePRpXrlyBiYkJtm7diocPH+KTTz5B586ddV4+A4SISE9dv34dvXr1AgAULFgQr1+/hrm5OaZMmYJZs2bpvHwGCBGRnjIzM1P6Pezs7HDnzh1l3rNnz3RePvtAiIj0lIuLC/766y9UqVIFrVq1wqhRo3DlyhVs27YNLi4uOi+fAUJEpKfmzZuH2NhYAMDkyZMRGxuL3377DRUrVtT5CCyAAUJEpLcqVKig/N/MzAxLly7N0fKz1AcyY8YMNGjQAIULF4aNjQ3atWuHmzdvaiyTkJCAoUOHolixYjA3N0fHjh0RHh6uzI+KisLnn38Oc3Nz1KlTR+MaLgAwdOhQnZ12T0SUn1SoUAHPnz/PMP3ly5ca4aIrWQqQI0eOYOjQoTh16hT279+P5ORkeHl5IS4uTlnGz88PO3fuxObNm3HkyBE8fvwYHTp0UOZPmzYNMTExuHDhAjw8PDBgwABl3qlTp3D69GmMHDnyw7eMiCifu3//PlJTUzNMT0xMxKNHj3RefpaasPbu3avxfPXq1bCxscH58+fRpEkTREdHY+XKldiwYYNyJcjAwEBUqVIFp06dgouLC65fv46uXbuiUqVKGDhwIJYvXw4ASE5OxuDBg7FixQqd3X6RiCg/2LFjh/L/oKAgWFpaKs9TU1Nx8OBBlCtXTuf1+KA+kOjoaACAlZUVAOD8+fNITk5G8+bNlWWcnJxgb2+PkydPwsXFBbVq1cKhQ4fQv39/BAUFoWbNmgCA2bNnw8PDA/Xr1//PchMTE5GYmKg8f/Xq1YdsBhGRXmnXrh2AtHuf+/j4aMwzNDREuXLlcqQrQOvzQNRqNUaOHAk3NzdUr14dAPD06VMYGRmhSJEiGsuWKFFCubnJuHHjULBgQTg4OGD79u1YuXIlQkNDsWbNGkycOBGDBw9GhQoV0KVLFyWg3jZjxgxYWloqD13c65eIKK9Sq9VQq9Wwt7dHRESE8lytViMxMRE3b97EZ599pvN6aB0gQ4cOxdWrV7Fx48Ysvc7S0hIbNmzAgwcPcOTIEVStWhWDBg3CnDlzsH79ety9exc3b96EqakppkyZkuk6xo8fj+joaOXx8OFDbTeDiEhv3bt3D9bW1rlWvlZNWL6+vti1axeOHj2K0qVLK9NtbW2RlJSEly9fahyFhIeHw9bWNtN1BQYGokiRImjbti06dOiAdu3awdDQEJ07d8akSZMyfY2xsTGMjY21qToRUb5y8OBBHDx4UDkSedOqVat0WnaWjkBEBL6+vti+fTsOHTqU4TaJ6XfFOnjwoDLt5s2bCAsLg6ura4b1RUZGYsqUKVi0aBGAtM6f5ORkAGmd6pmNLiAiojSTJ0+Gl5cXDh48iGfPnuHFixcaD13L0hHI0KFDsWHDBvzxxx8oXLiw0q9haWmJQoUKwdLSEv369YO/vz+srKxgYWGBYcOGwdXVNdPT6keOHIlRo0ahVKlSAAA3NzesW7cOXl5eWL58Odzc3LJhE4mI8qelS5di9erV6NmzZ66Un6UjkCVLliA6OhoeHh6ws7NTHr/99puyzPz58/HZZ5+hY8eOaNKkCWxtbbFt27YM6woKCsLt27fx1VdfKdN8fX1RoUIFODs7IykpCQEBAR+waURE+VtSUhIaNWqUa+WrRERyrfRs8urVK1haWiI6OhoWFha5XR3SA4sHH8q1socubZprZddYUyPXyr7icyXXyr7uVCXXyq5y47pWr3uf37Wvv/4a5ubmmDhx4odUUWu8FhYRkZ5KSEjA8uXLceDAAdSsWROGhoYa83lLWyIdaBo8NBdL126PlOhtly9fRu3atQEAV69e1ZinUql0Xj4DhIhITx0+fDhXy+cdCYmI9Nzt27cRFBSE169fA0g75SInMECIiPTU8+fP0axZM1SqVAmtWrXCkydPAAD9+vXDqFGjdF4+A4SISE/5+fnB0NAQYWFhMDU1VaZ/8cUXGa6ergvsAyEi0lP79u1DUFCQxiWlAKBixYp48OCBzstngBB9RK7cC8vtKlA2iouL0zjySBcVFZUj1wtkExYRkZ5q3Lgx1q5dqzxXqVRQq9WYPXs2PD09dV4+j0CIiPTU7Nmz0axZM5w7dw5JSUkYO3Ysrl27hqioKBw/flzn5fMIhIhIT1WvXh23bt2Cu7s72rZti7i4OHTo0AEXL16Eg4ODzsvnEQgRkR6ztLTEN998kytl8wiEiEhPBQYGYvPmzRmmb968GWvWrNF5+QwQIiI9NWPGjExvaWtjY4Pp06frvHwGCBGRngoLC8twZ1gAKFu2LMLCdD9kmwFCRKSnbGxscPny5QzTL126hGLFium8fAYIEZGe6tatG4YPH47Dhw8jNTUVqampOHToEEaMGIGuXbvqvHyOwiIi0lNTp07F/fv30axZMxQsmPZzrlar0atXrxzpA2GAEBHpIRHB06dPsXr1anz//fcICQlBoUKFUKNGDZQtWzZH6sAAISLSQyICR0dHXLt2DRUrVkTFihVzvA7sAyEi0kMFChRAxYoV8fz589yrQ66VTEREH2TmzJkYM2ZMhvuh5xQ2YRER6alevXohPj4etWrVgpGREQoVKqQxPyoqSqflM0CIiPTUggULcrV8BggRkZ7y8fHJ1fIZIESU73UZn3s/dVd0vP47d+4gMDAQd+7cwcKFC2FjY4M9e/bA3t4e1apV02nZ7EQnItJTR44cQY0aNXD69Gls27YNsbGxANIuZRIQEKDz8hkgRER6aty4cfj++++xf/9+GBkZKdObNm2KU6dO6bx8BggRkZ66cuUK2rdvn2G6jY0Nnj17pvPyGSBERHqqSJEiePLkSYbpFy9eRKlSpXRePjvR6aOUnztV6ePRtWtXfP3119i8eTNUKhXUajWOHz+O0aNHo1evXjovn0cgRER6avr06XByckKZMmUQGxuLqlWrokmTJmjUqBG+/fZbnZfPIxAiIj1lZGSEX375BZMmTcKVK1cQGxuLOnXq5NiFFRkgRER6Rq1WY86cOdixYweSkpLQrFkzBAQEZLiUia6xCYuISM9MmzYNEyZMgLm5OUqVKoWFCxdi6NChOV4PBggRkZ5Zu3Ytfv75ZwQFBeH333/Hzp07sX79eqjV6hytBwOEiEjPhIWFoVWrVsrz5s2bQ6VS4fHjxzlaDwYIEZGeSUlJgYmJicY0Q0NDJCcn52g92IlORKRnRAS9e/eGsbGxMi0hIQGDBw+GmZmZMm3btm06rQcDhIhIz2R2GfcePXrkeD0YIEREeiYwMDC3qwCAfSBERKQlBggREWmFAUJERFphgBARkVYYIEREpBUGCBERaYUBQkREWmGAEBGRVhggRESkFQYIERFphQFCRERaYYAQEZFWGCBERKQVBggREWmFAUJERFphgBARkVYYIEREpBUGCBERaYUBQkREWmGAEBGRVhggRESkFQYIERFphQFCRERaYYAQEZFWGCBERKQVBggREWmFAUJERFphgBARkVYYIEREpBUGCBERaYUBQkREWmGAEBGRVhggRESkFQYIERFphQFCRERaYYAQEZFWGCBERKQVBggREWmFAUJERFphgBARkVayFCBHjx7F559/jpIlS0KlUuH333/XmC8imDRpEuzs7FCoUCE0b94coaGhyvzExET07NkTFhYWqFSpEg4cOKDx+jlz5mDYsGHabw0REeWYLAVIXFwcatWqhcWLF2c6f/bs2fjxxx+xdOlSnD59GmZmZvD29kZCQgIAYPny5Th//jxOnjyJgQMH4ssvv4SIAADu3buHX375BdOmTfvATSIiopxQMCsLf/rpp/j0008znSciWLBgAb799lu0bdsWALB27VqUKFECv//+O7p27Yrr16+jTZs2qFatGipUqIAxY8bg2bNnKF68OIYMGYJZs2bBwsLiw7eKiIh0LksB8m/u3buHp0+fonnz5so0S0tLODs74+TJk+jatStq1aqFdevW4fXr1wgKCoKdnR2sra2xfv16mJiYoH379tlVHaJ/deVeWG5XgUjvZVuAPH36FABQokQJjeklSpRQ5vXt2xeXL19G1apVYW1tjU2bNuHFixeYNGkSgoOD8e2332Ljxo1wcHDAqlWrUKpUqUzLSkxMRGJiovL81atX2bUZRET0nnJ0FJahoSEWL16Me/fu4ezZs3B3d8eoUaMwfPhwXLx4Eb///jsuXboEFxcXDB8+/J3rmTFjBiwtLZVHmTJlcnAriIgIyMYAsbW1BQCEh4drTA8PD1fmve3w4cO4du0afH19ERwcjFatWsHMzAxdunRBcHDwO8saP348oqOjlcfDhw+zazOIiOg9ZVuAlC9fHra2tjh48KAy7dWrVzh9+jRcXV0zLJ+QkIChQ4di2bJlMDAwQGpqKpKTkwEAycnJSE1NfWdZxsbGsLCw0HgQEVHOylKAxMbGIiQkBCEhIQDSOs5DQkIQFhYGlUqFkSNH4vvvv8eOHTtw5coV9OrVCyVLlkS7du0yrGvq1Klo1aoV6tSpAwBwc3PDtm3bcPnyZfz0009wc3P74I0jIiLdyVIn+rlz5+Dp6ak89/f3BwD4+Phg9erVGDt2LOLi4jBw4EC8fPkS7u7u2Lt3L0xMTDTWc/XqVWzatEkJIgDo1KkTgoOD0bhxY1SuXBkbNmz4gM0iIiJdU0n6mXx67NWrV7C0tER0dDSbs+j9fGeZi2VH52LZ3O6cL1u77daH3zVeC4uIiLTCACEiIq0wQIiISCsMECIi0goDhIiItMIAISIirTBAiIhIKwwQIiLSCgOEiIi0wgAhIiKtMECIiEgrDBAiItIKA4SIiLTCACEiIq0wQIiISCsMECIi0goDhIiItMIAISIirTBAiIhIKwwQIiLSCgOEiIi0wgAhIiKtMECIiEgrDBAiItIKA4SIiLTCACEiIq0wQIiISCsMECIi0goDhIiItMIAISIirTBAiIhIKwwQIiLSCgOEiIi0wgAhIiKtMECIiEgrDBAiItJKwdyuABHlnHIJG3Kt7Pu5VjLpCo9AiIhIKwwQIiLSCgOEiIi0wgAhIiKtMECIiEgrDBAiItIKA4SIiLTCACEiIq0wQIiISCsMECIi0goDhIiItMIAISIirTBAiIhIK7wa70du8eBDuVb20KVNc61sIvpwPAIhIiKtMECIiEgrDBAiItIKA4SIiLTCTvSPXNPgoblY+vVcLJuIPhSPQIiISCsMECIi0gqbsOijVC5hQ66VfT/XSv548e+tGwyQ/8MT6oiIsoYB8pHrMj73PgJXcq1kIsoO7AMhIiKtMECIiEgrDBAiItIK+0D+D0+oIyLKGh6BEBGRVhggRESkFQYIERFphQFCRERaYSf6//lYT6i7ci8sF0snIn3GIxAiItIKA4SIiLTCACEiIq0wQIiISCsMECIi0goDhIiItMJhvP+Hw1mJiLKGRyBERKQVBggREWmFAUJERFphH8hHrlzChlwr+36ulUxE2YFHIEREpBWdHIEsXrwYc+bMwdOnT1GrVi0sWrQIDRs2BAD4+/tj9erVMDMzw8yZM9G9e3fldZs3b8batWuxc+dOXVTrX3FPnIgoa7I9QH777Tf4+/tj6dKlcHZ2xoIFC+Dt7Y2bN2/i9OnT2LBhA/bt24fQ0FD07dsX3t7esLa2RnR0NL755hscOHAgu6tEREQ6kO1NWPPmzcOAAQPQp08fVK1aFUuXLoWpqSlWrVqF69evw8PDA/Xr10e3bt1gYWGBe/fuAQDGjh2LIUOGwN7ePrurREREOpCtRyBJSUk4f/48xo8fr0wrUKAAmjdvjpMnT+Krr77C8uXL8eLFC9y9exevX7+Go6Mj/vrrL1y4cAE///zze5WTmJiIxMRE5Xl0dDQA4NWrV1rXXZ0Yr/VrP9SH1PtDcbtzHrc75+njdqe/TkSyszrZS7LRo0ePBICcOHFCY/qYMWOkYcOGIiISEBAgDg4OUr16ddm2bZskJiZK9erV5dy5c7Jo0SKpVKmSNGrUSK5evfrOcgICAgQAH3zwwUe+fzx8+DA7f6azlUok++Lt8ePHKFWqFE6cOAFXV1dl+tixY3HkyBGcPn06w2smT56Mly9fok+fPvDy8sKVK1ewa9cu/PTTTzh//nym5bx9BKJWqxEVFYVixYpBpVJl1+a8l1evXqFMmTJ4+PAhLCwscrTs3MTt5nZ/DHJzu0UEMTExKFmyJAoUyJsDZrO1Ccva2hoGBgYIDw/XmB4eHg5bW9sMy9+4cQO//vorLl68iFWrVqFJkyYoXrw4unTpgr59+yImJgaFCxfO8DpjY2MYGxtrTCtSpEh2bkqWWVhYfFRfrHTc7o8LtztnWVpa5niZWZGtsWZkZIR69erh4MGDyjS1Wo2DBw9qHJEAaek6aNAgzJs3D+bm5khNTUVycjIAKP+mpqZmZ/WIiCgbZfswXn9/f/j4+KB+/fpo2LAhFixYgLi4OPTp00djuRUrVqB48eL4/PPPAQBubm747rvvcOrUKezZswdVq1bN9aMKIiJ6t2wPkC+++AKRkZGYNGkSnj59itq1a2Pv3r0oUaKEskx4eDimTZuGEydOKNMaNmyIUaNGoXXr1rCxscGaNWuyu2o6YWxsjICAgAxNavkdt5vb/TH4WLf7fWVrJzoREX088mbXPhER5XkMECIi0goDhIiItMIAISIirTBAiIhIKwwQomzEQY30MWGAUK5Qq9W5XYVspVarkZqamuFabPk1UPLb3y8n7N+/H8+fP8/tamQrBkg24pfq/eXVi8NpQ0RQoEABGBgY4Pbt21i0aBEOHjyIuLi4HL+4Z05J//u9eVFTSpPZTsODBw/g7e2Nhw8fAsg/vxX551uci/755x8Amj+K+XXPM7uICCZOnIgdO3Yoz/WVSqWCWq2Gv78/6tSpg+3bt6Nv377o0KEDjh8/ntvV05nZs2dj+PDhAD7u69ZFRUVh3bp1iI2NBYAMOw1qtRqmpqZo2LAhzp49CyD/7EDlj63IRf3798fw4cORmJiI48ePY8CAAQAyfog+Zpn9uDx+/Bj79u3DrVu3AOj/+/XHH3/g0KFDOHLkCA4dOoTbt2/j9OnTmD9/PiIiInK7eh/k7b3l9LBPSUnB0aNHAQAGBgY5Xq+8Yt++ffDx8cGZM2eUaVu2bMHJkycBpIWFqakpkpOTlfeSRyAfufQvUffu3XH27Fk0atQITZs2hampab75cHyo9Pchsx+XUqVKAfj/d13Thz1YEclQz9TUVIgItm/fjk6dOqFu3brYvXs33N3dUbRoUfTu3Rs2Nja5VOMPIyJK8xyQtqcN/P+wt7Kygo2NDcLCwnKtjrnhzaNlEUHXrl3h4uKCuXPn4tWrV/j7778xffp0dO3aFZcuXUJSUhLMzMxQoUIF7N69GwCPQD5a6T+K6R+i6OhoREREICwsDDt37sTChQvzzYfjQ7z5w/Py5Ut07NgRy5cvx7Nnz5RlvL29sW/fPgD6sQerUqlgYGCAyMhIXLhwAWq1GgYGBlCpVHj+/Dnu3buH3r17o0ePHvD29salS5fw2WefISEhAfHxuXdLVW2ICFQqFVQqFcLDwzFx4kR069YNwcHByjJVq1bFhQsXYGpqmnsVzQUqlQqvX79W/g8AS5YswZ49e/DHH3+gatWqOHToENzd3dGzZ08sXrwYAODq6orU1NR81ZHOX7r3pFaroVarlR/F9A+Oo6MjVq9ejUKFCuHSpUtKO6g+t+l/iPTtTn9/+vbti9mzZ6N48eJYuXIlhgwZoixbrFgxmJub5+kmnvQjjvTt+u6771C+fHl06tQJX3zxBUJDQwEArVq1wrp16xAZGYlbt25hypQpsLCwwJMnTzBz5kzcvXs317ZBG+l/v2+//RadO3eGsbExKlSogI4dO2Lnzp1ISkpCw4YNUbJkSezduzeXa5tz1Go1Fi1ahC+//BIAEBMTg02bNqFWrVro2bMnpk+fjjt37qBIkSL49ddf0a1bN8yZMwcLFy7E69evERERkelN8vRWDt06V6+p1Wrl/5cuXZIhQ4bIhAkT5NixYxITEyMiIsOHD5fatWtLcHBwblUzTzl//rzs3r1bGjZsKCdPnhQRkX379omjo6O0bdtWrl+/LiEhIWJmZiZxcXG5XNvMpaamajx/+PChtG3bVo4ePSq7d++WcuXKyaBBg+TZs2cSEhIizs7O0rlzZxERSU5Olri4OPnmm2+kYcOGcubMmdzYBK0dPXpUVq9eLZ9//rkcO3ZMkpOTRURk4MCB4urqKmPGjJFXr16Jm5ubrFixIpdrm7OWLFkilStXlu7du4tKpZK+ffuKiMirV6/E2NhYpkyZovGZ3rp1q9SpU0eaNm0qKpVK/v7779yqerZjgLxDfHy87N27V0REkpKSRK1Wy6RJk8TExES+/PJLqVu3rlSuXFn69esnIiLR0dFSqVIlGT58uERERGis680Aym/UanWG7du7d6+oVCqpUaOG7NmzR2NeaGiotG3bVqpWrSrr1q2TatWqyR9//JGTVf5PKSkpyv+PHTsmrVq1kn79+sn48ePlu+++U+atXLlS6tSpI7/88ouIiGzfvl0sLS2lWrVq0q1bNylfvrw4OTnJiRMncnwb3pdarVaCMv3v+OLFC7GwsJAiRYrIpEmTREQkISFBRERiY2Nl165dYmJiInPmzBFbW1sZN26ciGQM3PwiNTVVY9t2794tKpVKzM3NZdeuXcoyIiIzZswQKysrOXfunMY6Dhw4IN26dROVSiU7d+7MucrrGAMkE6mpqfLDDz+ISqWSFy9eiIjIrVu3pG7durJx40YREYmJiZHVq1eLiYmJbN++XUREFi1aJJUqVZJly5ZJXFyc+Pr6yqVLl3JpK3Qvfa9URDMkIyMj5csvvxRLS0t58OCBMj39SxYRESGjRo0SU1NTMTExkW3btuVcpd9TbGysnD9/XipVqiT9+vUTFxcXUalUMnHiRGUZtVotHTp0kNatW8vVq1dFROTcuXPy888/y5gxY2TVqlW5Vf338mZQpgdE+t9x6dKlYmBgIFOmTFGWefNv/Pvvv0uXLl1EpVJJs2bN5PXr1zlU65z15nv0zz//yO3bt2X37t0yYsQIqVmzpixatEhERBITE5XlypQpI3369JHo6GiNdSUnJ4u1tbWyw5EfApcB8g537tyR2rVrS7du3UREJDg4WAoUKCB37txRlnn16pX069dPnJyclGmdOnWSmjVrSvHixaV06dJy48aNfH0EIiIybdo0GTVqlMyaNUvCw8NFROTIkSNiaGgoa9euFZHMvyxLly6VEiVKyNdff/3OZXLC23+fkJAQadCggTRq1Eh++uknERF5+vSpdO7cWTw8POTu3bvKsvv375cGDRrId999pzd/53nz5snt27eV5wEBAeLp6Sndu3eXefPmKdOdnZ2lffv2yva+vX0RERHSrl07qVu3riQkJOjN9mdVUlKSDBgwQIoXLy4zZsyQJ0+eSHx8vBIi//zzj4iIEqK///67mJiYaBx9pwdM+/btZeDAgTm/ETrCABGR+/fvy9KlSzXaJlNSUmT9+vWiUqnkwoULcv78ealatar8+eefGq/9/fffxcnJSS5evCgiIs+ePZOjR4/KgQMH/rPcZ8+eZet25JT0H4pz585JhQoVpEaNGvLtt99K5cqVpX379ko/UL9+/aRs2bIZXp8eFHFxcTJmzBjp0KGDxtFMTnm7aSLdrVu35MsvvxRzc3ONI8itW7eKm5ubfPvttxrL9+7dW+rUqaMXR5vh4eFiZGQkixYtkpSUFGnQoIFUq1ZNVq1aJZMmTZKSJUvKhAkTRERkx44dUqpUKVm5cmWGcEh/fvHiRTE1NZXHjx/n+LbkhCdPnkiTJk3kk08+kSNHjsjt27eVz+rBgwelUaNG4uvrKyKaO0B16tSR+vXraxyFJCYmSrVq1WTlypU5uxE69NEHSFRUlDg6OopKpZKyZcvKjh075Pnz5yKStofl7e0t7u7ukpqaKrVr15axY8dq/PAHBgaKjY3Ne3+BUlNT5dmzZ9KhQwcZNWqU3uy1ZfZDO2zYMKUPSERk06ZNYmxsLIMGDRIRkevXr4u1tbVMmzYtwzrSt3vw4MHSqVOnd5ahK2+WdfPmTdmyZYuEhoYq0/744w+xtbXV6PNISUmRYcOGSZMmTeT06dPK9Lt372o8z8seP34sLi4uMn36dFm/fr14e3sre8c3btwQGxsbqVu3rvIZb9eunbRo0UIuX76c6fr++usvqV27tty4cSPHtkEX3vU9/P3336VSpUpKE+WbEhMTZdq0aVKlShU5cuSIiIjs2rVL/vnnH3n8+LFcuHBBWfb169cydOhQKVOmjNy7d08n25AbPvoAERGZPn26NGzYUJycnKRx48bi7u4uN2/eFJG0phgDAwMJCgqSTZs2iZOTk3zzzTfy/PlziYyMlF69eskXX3zxXm3AkZGRyv979eolTZs2lYMHD+psu7JbXFycbN++XWJiYuTFixfi6ekpx48fl5iYGOnZs6cULlxYRo4cKU+fPhWRtC/lnDlzxMjISJ48eZJhfZGRkVK3bl0ZPHhwjtQ/JSVFkpKSlOcJCQnSp08fMTMzEycnJ7G1tZX+/ftLcnKyxMbGyqhRo6R69eoaX/iTJ0+Kh4eHMtoqL0sPybeD2d3dXYYNGyY//PCD+Pj4iIiIj4+PmJuby9ChQ+XRo0fKsteuXRM7OzuZMGGCxMfHa6wnISFBnJ2dpU6dOvLq1atM65DZIIu85t+OfkeOHCk1a9bUmPbm9vz999/Stm1bKV26tDg7O4uJiYnGzsSb731+PEpjgEjaqJP27dtL9+7dJSQkRD755BOpWLGiTJ48WcLCwmTChAliZ2cnIiILFiwQKysrqV69utja2kq1atXkypUr/1nGwYMHpV69erJ69WoRSfvgOTs7i6+vb4bOtrwgsy/9nDlzxMrKSkTSwsTa2lq+/PJLKV68uHh5eSnNeCJpPzyJiYkSEREhjo6OsmbNmgzrmz59uvTp0yfDD5MuLF26VPr37y979uxRvtTz58+XqlWryo0bN+TBgweyc+dOMTIykqlTp0pqaqqcPHlS3N3dM7RZT5o0SebMmaPRwfpfMhvtpEu//fabdOzYUcLCwpRp6T+UkyZNkurVq8uwYcPExcVFLCwsxMvLS86ePasse/ToUWWH56uvvpIZM2ZkCKJ79+7JhAkT3vn5ffOHOTeaKP/L23+HxYsXy6+//iqnTp1Spv34449Srlw5pc/ozfcgvb/v6dOnMn36dPnhhx9yoNZ5CwPk/2zcuFHq1aunDMtbu3atlC5dWlxdXWX27NlStGhRmTNnjoiIXL16VXbs2JGl4ac3b96Uzz77TDp37ixRUVEiIvL9999Lw4YNZcOGDdm/QR/g7S9W+g/l2bNnpWTJksoQxbFjx4pKpZKtW7dqLH/06FEZNWqU8qVLP1cmXfqX8M2jAV3Zt2+flCtXTqpXry7+/v6yY8cOef36tbx+/VqaNGmSof16xowZUrZsWbl8+bKkpKTInDlzpGrVqrJ//35lne9bb7VaLSkpKfLTTz8pe/XpQ8J17eDBg1K9enWpUaNGhnOTpk2bJi1btpRly5ZJsWLF5KuvvtKY//jxY+nWrZsyAOJD6puYmCjjx4+XQYMGyU8//aQ0BeWlEUgbNmwQW1tbqVmzpjRo0EDMzMxky5YtIpI2/NbNzU38/Pw0XnP27FlZvHix0tz9prwYlrrCAPk/SUlJ0qVLF2ndurUyquLSpUsyfPhwsbOzE5VKJSqVKsM5HlmxYsUKcXZ2lrlz54pI2pFP8+bN5csvv5T79+9ny3Zkl0ePHsmiRYuUYcwiIqdPn5YGDRooAwlCQkLEwsJCvv76a7l8+bLExsbKnj17pG7dutKrVy+NvqLcaMoIDg6W6tWry4wZM+T169fKUNV09erVE39/fxHRHIZpbW0t8+fPF5G0TmJ3d3flZLGsun//vqhUKvnll19k1qxZUrBgQfnf//6n3QZlUXR0tDRq1EgqV64sy5YtU6b/9ddfUrBgQYmMjJSuXbtKgwYNZMGCBXLt2jX5888/pW7duuLh4aH0a6T/3bL6o3/gwAGxsbGRJk2ayMiRI8XLy0uqVq2q8ZnKaW8fNQYHB0vjxo2V4bgiIj169JCqVavK5cuXRa1Wy6xZs8TGxkbGjRsnu3btkg0bNkiFChWkT58+Ehsbq7G+vN5cl90YIG84ffq0uLq6ytSpUzWm7969W5o0aSKurq4SFRX13h+S9C9c+oc2OjpafHx8pFmzZsqIrzVr1kidOnVkwYIF2bglH27x4sVSsWJFadWqlbx8+VKZXrJkSVmyZInyfPPmzeLk5CTFixeXxo0bi6mpqXLyWW4bO3astGjR4p0/WFOnThVHR0dlpyD9yMLd3V2GDBmiLPc+TZSZSV9fu3btpFChQlKyZMkcP+fl7t27MmnSJDEwMJDp06dLZGSkRERESLly5WTHjh3y6NEjmTRpkpibm4uzs7PyQ5kVbzbPpUtOTpY+ffpIQECAMm3Dhg2iUqlk+vTp2bFpWnv+/Lmyw3b69GnlaOPN85eMjIykX79+kpKSIrGxsbJixQqpWLGiVKtWTcqUKaPsYHzsGCBvUKvVMmLECPH09FSGZKaHxZt7qP/l39rGd+zYIe7u7jJmzBhlWpcuXeTTTz/NcPaqrmU2NPPNvc3bt2+Lvb29dO7cWRmW3LdvX2nbtq3G6+7fvy+HDx+WDRs2aBzSZ6WPQBdatmwpX3zxhfJ8z549Mn/+fBk5cqQsXLhQli1bJp9//rl8+eWXyjJ3796VSpUqZRiu/b7e3ubo6GipWLGimJiYyKhRo5TpOb2n+t1330mVKlWkbdu2cufOHalQoYLSRCWS1mx1+fJljbB9n7/fm801L168UPqzYmJipFKlSnL69Gl59uyZtG7dWqysrCQgIOCdHe7Z4e339e3mxujoaKlXr55MnjxZRP7/Np45c0Zq1qwpbdq0kcePH8v69evFxMREgoKCNIadh4aGamxzbn/GcxsD5C1hYWHi7u4uPXv21Or1b36A165dK8OHD5e5c+dqnLjl7+8vjRo1Un6UDx8+LHXr1pWJEyfmSPtpSEiITJgwQfmxz+w6TelfmpMnT0qvXr3E1tZWrl27JqNGjZKePXv+65FYSkpKnjiUDwoKEpVKJR4eHlKuXDmpXLmytGjRQqpXry5VqlSRsmXLytatW8XS0lIaNmwogwcPltKlS4uXl5fSQfq+3v4hiY2N1djpWLt2rZiamsrRo0ezZduyKiUlRY4cOSLFihWTHj16iIGBgdL/k9myWf37jR49WipVqiS//fabpKSkyO3bt8XNzU06duwohQsXlq5du2oMk87unaW3j4L27duX6d8wPDxcLC0tlY7y9L/b2LFj5bPPPlMGDmzcuFFUKpV4eXnJw4cPM6znYw+OdAyQTPzwww+ycOFCrX8E//77b2nUqJHY2dnJV199JeXLl5c2bdrI4cOHRUTk1KlT4uXlJb169VI+9P7+/lKvXj3lsii69Mcff4iFhYXMmTNHucDbrVu33rl8bGystGnTRlq2bClubm5Srly5dwbdf71nOR0sO3bskLFjx8qMGTPk+PHjSpAHBwdLmTJl5I8//pCLFy9KQECAdO7c+YMvDLhixQqpUaOG0rf15t521apVpX379krfUG6E7IkTJ+SLL74QlUolnTp1ytKRdWbOnz8vFSpUEFdXV/nf//4nFy5cUD7Tbdq0ERMTE9m0aZPGa4KDg6Vv375KX+OHevPH/OLFi1KjRg2xt7eXCxcuyLNnz6R58+ayePFiefjwoTx+/FiqVaumnLeRrnr16jJ06FDl+ZQpU2T06NFSpUoVjWHNpIkBkokP+WInJSVJv379pH///kqnbXBwsBIi6WbOnCnOzs6ybt06EUkbpdWyZUs5fvz4h1X+PTk5OYlKpZLPP//8vTo14+Li5LvvvpPChQv/Z+BkJq/tsR0+fFisrKy0bqp6W0REhHTo0EHKly8vCxYskI0bN4qjo6P07NlTOafo6NGjolKpNPpB0ofZ5uSopOfPn2f4Uf8vmfVziIhMnjxZORH0badPnxYTExOZOHGiXLt2TaKiomT9+vVSpUoVGTlyZLYOX4+JiZEuXbooR1bpI/8iIyNl+PDh4uzsLOXKlZPPP/9c7O3tlaOT9M/lwoULRaVSSe/evaVZs2Zib2+vnM9E78YAeU/vupRDZtMOHDgg165dE5G0jtoiRYpI3bp1xcHBQRYvXiwiaWPoO3XqJO7u7spJdrrYI83sch2nTp0Sb29vsbGxkXnz5intxO8qP326Wq2WgwcPftCe47Jly2T06NGyaNGiLIdQdomLi5PRo0dLixYtstxUlZqammkYnj9/Xnx9fZWwEBFp3ry5FClSRBYtWqScaNqxY0epVKmSzJkzRzw9PaVu3bq5Gq7vU/aby7zdp+Dp6SktWrSQhw8fyurVq+WHH36Qbt26yfr160Uk7e9dt25dKV68uDRo0ECKFi2qMeIpO/z5559ibm4ujRs31jjv5W2rVq0SLy8vUalUMmDAgAxXSZ45c6Z069ZNBgwYoBFuH9Ow3KxigGRRfHx8hh/kzPbM1Gq1DBo0SOrUqSN79+6V58+fS+PGjaVBgwZKE8aSJUtkzJgx8vLlS52FR7q///5b/vrrL40vhr+/v9SqVUtpWsuKrH6pbt++LXXq1JGyZcvKyJEjpVatWtK8eXOlT0DXzTl3796VX3/9VZYuXSqOjo5SrVq19778yLJly5TLsby53W82/zx8+FAJj3nz5omVlZV06tRJWrVqJdWrV1fa3J8/fy6DBg2S+vXry6BBgz64CUkX3hUq3333nbRq1UrGjBkjv//+u4ikHVWVLl1aChUqJF5eXtKpUyfx9PSUKlWqSGBgoIik9TscP35ctm7dqpNzfw4ePChVqlRRLnyZ7o8//pBBgwZpXOMuMDBQnJycpFGjRmJrayvdu3fXuDbVm/XLa0fNeRED5D2lpKRIly5dlJE0ISEhMnv27Hcuf+XKFSldurTGCWiNGzeWggULyoABA0REd80Wb6735cuX0rFjRylatKg4OjpKvXr1lCuuvnjxQipVqiTDhg37oPNb3pbZF2/q1KnStWtXZV5wcLCYmJhIu3btsq3cf7Njxw5xdnaWRo0aZWkPOD4+XkaPHi2mpqZKB+vatWulXr160r59+ww/Wlu2bJGaNWsql/0PDQ0VAwMDmThxovIev379OsPJlblNrVYrV6B+uxn1/v37UqdOHalZs6ZMmjRJGjduLIUKFVKGv964cUMuX74sT58+VUZhOTg45NjQdLVaLV999ZU0a9ZMoqKi5OnTp9K8eXMpXLiwzJ07VyP0hwwZolxh++jRo+Lj4yNly5bN0FGel050zMsYIFmwfv16MTMzk5YtW4pKpZKAgIB37qUEBwdLxYoVlS/Z4cOHpUuXLjJ16lTlzPPs3ut+8/yM9LOghw4dKo0bN5a///5bzp49K2PGjBELCwvlLPoff/xRKlasKJs3bxaRtA7z9C9TVr9Eb78X6T8mSUlJ0rJlS+VyJv7+/lK4cGHp1auXxsgcXfv777+zdOSU/ve5fv261K9fX7p37y7Xr1+XihUryvTp06VDhw5SqlQppVkyPj5eevfuLW3btlVOMFu6dKkULlxYSpYsmaHjNi94+29crFgx6dWrl8a5P+vWrZM6deooncnpw91Lliyp0QyZ/t5u27ZNatWqlaPXebt9+7Y0btxYqlevLoULF5Y+ffponJybXrfhw4dL9+7dc6xe+R0D5F+8/QO/ZMkSUalUUrp0aaWP413u3LkjnTp1Emtra/nss8/ExMRE5s+fr7PD4mvXrmnc8EitVktERIRYWVkpTQkiaUcd/fv3l3LlyinTmjdvLvXr15d+/fqJSqX64Isbrly5UmrWrCmzZs0SkbQOzjp16kj//v2lTJky0rBhQ40fl5s3b+bp5oLY2FhZtWqVWFtbS4sWLZQdgOfPn0tAQICYmpoqtzBt3769eHh4yPHjxyU0NFS6dOkiu3fvznKnta69GRzx8fFy7NgxiYuLkzNnzih3zUv//Pfq1Uvc3d1FRHMnwcbGRjnp9vz58/L111/Lp59+KmZmZrlyot2sWbPEzs5O48jn7e9w48aNMx2+zH4O7TBAMpG+9/62U6dOSUBAgKhUqve638ft27dlwYIFMmTIEDl//rxO6pkuISFBZsyYIaampsqoqocPH0rNmjU17oynVqvlxIkTYmdnp4wGunr1qkyfPl1at26ttG1r4+nTp+Lh4SGlS5eWhQsXyp9//qn8sI4bN05UKpXGDYvSy/bz89O49HVuevvvfvHiRenQoYMsX75cBgwYIMbGxhrDOkNDQ6VSpUrSo0cPEUkL8ooVK0r58uWlUKFC0r179xy55pe2Zs6cKU5OTtK6dWspV66cpKSkSIsWLaRx48bKkeisWbOkcuXKShNcer/N6NGjxdXVVUTS+jmGDh2q3Cs9N7x8+VK8vb3Fx8cnw3u+bt066d27t8yePVsv7tuiLxggb3lzz+zevXuyatUqOXfunMYHslOnTv96CWtdi4+Pl2nTpikjXdLdvn1batSooZx9HRERIY0aNZKRI0dq9HFcv35d7O3tZffu3e8s47+OCDK7suyvv/4qn3zySab9KeHh4VK4cGHx9/eXy5cvS0JCgpw5c0Y++eQTadeuXaYna+Wm9Oa3ixcvSuXKlWXPnj3y559/iomJiXKuSPqORmBgoBgYGEhISIiIpH1u9u/fL9evX8+1+v+XO3fuiKenpzg4OMi2bdvk/v37ylH1nTt3RKVSyc8//ywiafe4d3NzU87eTpd+Bev0z0BeuK3tb7/9Jg0bNpRff/1VRNKGEjds2FDMzMwy7EjRh2OAZCL9xkFFihSRmjVrSqlSpaRt27bKeR137tyRQoUKZehAzQnJycny1VdfKRd39Pf3l2PHjinzfv31V1GpVMqonxkzZkjt2rWV+zCLiBw7dkwcHBwyvcbTfwXHv80fN26cctn7HTt2yPLly8XPz0+WL18uImmjYmrXri2FCxeWFi1aSKFChWTw4MF5ag89JiZG2rVrJ6NGjVJCxM3NTRn4MHDgQLG3t9d4H8LDw+WTTz4RBweHXKmzNr7//ntxd3fPcHOj9L+Fr6+vlClTRu7evSsJCQkyfvx4KVWqlAQGBsrdu3clODhYKlWqpPxt84qkpCT58ssvpUWLFtK2bVsxMDDQuK6ZCMMjOzFA3hITEyNjx44Vd3d35XILDx8+FJVKJQsWLFA6R7/55huxtbWVq1evSlJSkvz000//2S+SXYKCgqRp06bi7Owsn376qVhbW8vKlSslMjJSkpOTxdvbW7kJTmpqqvTo0UPKli0r7du3lwkTJoi1tbX07dtXaV7Sxv/+9z/54osvZOzYsbJ3714RSbsVbJkyZZTzXtq0aSOenp5ibW2ttEs/fvxYgoKCZO3atRr3l88rnjx5IjY2NmJubi7Dhg0TkbTBE/b29hIbGyshISFSoUIF5T7ub577k365/7wuPDxcLCwsMh1F+OZNqCwtLZVRh0+fPpVvvvlGLCwsxMnJSczNzTPc2jevSG+ibdGihcZnjP0c2Y8B8pa4uDhZuXKlMnb84MGD4uLiIkZGRmJnZ6dx3ShHR0epVauWWFlZSdWqVXP0xLhRo0ZJy5YtZfv27bJkyRKpWrWq1KpVSy5evCgHDx4US0tLZXx7ZGSkbNq0SXr27CnNmzdXDu//TWxsrLRs2VL27duXYXrnzp2lWLFi4ufnJ3Xr1pUSJUooHeahoaFy6NAhuXfvnnJSl7u7u/Tp0yeb34Hss3nzZuW9Sj9PY+zYsVK0aFH55ZdfZNOmTdK6dWv5448/RK1Wy+zZs8XKyipPBuD7uHLlipiZmSkd+2+PxErv4/j555/F1NRU44S7e/fuycGDBzO9D0ZekT4kOV1euTZbfsQAyUT6l2Pq1Klib28v48aNk5iYGClTpoz0799fOXv53r17snr1amUIbE66cOGCeHl5Se/evUVElLHvtWvXlg4dOkjXrl2lbNmyGq95u/npv5qr3NzcxM3NTeOOgcePH9c4MS46OloWLFgghoaGGp2T6V/YK1euiJubm8ZIsLwkJSVFpk6dqow8EhHx8/OTb7/9Vvbs2SNffPGFDBo0SJydnZV7aly9elWcnJyyfNnzvOLGjRtiYGAgP/7443/ulbu4uIiXl1e2nieUk/Ly6L78gAHyDg8ePJAGDRooe6YpKSnSuHFjsbKyki1btuSJE43mzp0rDRo0UH6cY2Ji5ODBg1KuXDkpU6aMqFQq+f777zO87n37Of7++28xMjLSOFN38eLFym1t0yUnJ4u7u7t07NhRRNKCdeHChdKnTx8xNTWV/v3758kzrt80bNgwcXV1ld9++03u378vRYsWlYSEBNm/f79069ZNVCqVchn7pKSkPHcDsKzy8PAQZ2dnZTve3kMfM2aMzJw5U06ePCm2trZ5bpAD5Q0FQJk6d+4c/v77b7i7uwMA7t+/j0qVKqFIkSK4dOlSLtcuTdeuXVGuXDls2bIFT548gbm5OZo2bYoDBw7Az88PNWrUQMuWLTO8zsDAINP1iQhSU1OV+VWqVMGYMWMwadIkPH36FABgaWkJW1tbnDt3DgCQmpqKggULonfv3jh//jyio6NhbGyMZ8+e4fXr1zh+/Dh++eUXGBkZ6ehdyB6zZs2Ch4cHJkyYgNOnT+Ozzz7Dhg0b0Lx5c4wfPx4AEBQUhIiICBgaGqJs2bK5XOMP4+/vj3PnzmHVqlWIjIyESqWCWq0GAFy7dg33799H5cqV4eLigidPnqB06dK5XGPKk3I7wfKqhIQEsbKykmbNmsnEiRPFwcFBJk+enCeGKr5p/fr14urqqvRBZIdbt25Jnz59ZNq0afLkyRMpVaqUjB07VkTSzoVxd3eXb775RuM1o0ePFhcXF0lISBC1Wp3hVp/6IDIyUrl7X5MmTWTq1KkaV1TOb5f1HjVqlBQsWFDatGkje/bskf3798vEiRPF1tZWBg0alOcut0J5DwPkXxw4cEC6d+8uderUyXACXF6RkJAggwYNkurVq8vFixczzM/qyJOpU6eKiYmJ9OjRQ9atWydRUVGybNkyMTExkatXr4qIyIQJE6RmzZoyffp0iYiIkNDQUGnSpIkSMvquf//+olKppF69enmiqVKX5syZI1WrVhVra2upWbOm1K1bVxlVR/RfVCIiuX0UlJelpKRApVK9s9knL9i/fz+OHz8OPz8/WFpaar2eS5cuoXfv3ggICEC7du2U6SKCBg0awN7eHtu2bUN4eDjWr1+PcePGoVq1arh9+zZatGiB1atXw8LCIhu2KHeICFQqFZ49e4YZM2agSpUq6N+/f25XS+diYmKQmpqKx48fo2rVqrldHdIjDBBSLFiwAD/++COOHz8OOzs7AIBarUaBAgVw6NAhNG/eHLt378ann34KALh+/ToePnwIGxsb1K5dOxdrnn3SQ+Rj8jFuM2UPBkg+kv5jr61x48Zh7969uHDhAlQqVYYfld69e+Ps2bM4ceLEBx3pEFH+wFFY+ciHhAcAdOrUCVeuXMGRI0eU8BARPHv2DFu2bMG3336L+/fv48aNG9lRXSLSczwCIUVycjL69OmDkydPYsuWLahYsSIAYPbs2fj777+xePFimJmZwdzcPJdrSkR5AQOENCQmJuKTTz7Bw4cP4eDggH/++QcFChTAmjVr4ObmltvVI6I8hAFCGURGRuLKlSsICQmBjY0NevTokdtVIqI8iAFCRERaYSc6ERFphQFCRERaYYAQEZFWGCBERKQVBggREWmFAUJERFphgBARkVYYIEREpJX/B9T0qLmFuIQQAAAAAElFTkSuQmCC;clipPath=inset(40% 58.5% 40.33% 16%);" vertex="1" parent="mIjLraYWU1ijbTPT-EfQ-20">
          <mxGeometry x="365" y="77" width="106.32" height="123" as="geometry" />
        </mxCell>
      </root>
    </mxGraphModel>
  </diagram>
</mxfile>
